<?xml version="1.0" encoding="UTF-8" standalone="no"?>
<!-- Created with Inkscape (http://www.inkscape.org/) -->

<svg
   xmlns:dc="http://purl.org/dc/elements/1.1/"
   xmlns:cc="http://creativecommons.org/ns#"
   xmlns:rdf="http://www.w3.org/1999/02/22-rdf-syntax-ns#"
   xmlns:svg="http://www.w3.org/2000/svg"
   xmlns="http://www.w3.org/2000/svg"
   xmlns:sodipodi="http://sodipodi.sourceforge.net/DTD/sodipodi-0.dtd"
   xmlns:inkscape="http://www.inkscape.org/namespaces/inkscape"
   width="11.930465"
   height="54.156658"
   id="svg3142"
   version="1.1"
   inkscape:version="0.48.3.1 r9886"
   sodipodi:docname="special-velocity.svg">
  <defs
     id="defs3144" />
  <sodipodi:namedview
     id="base"
     pagecolor="#ffffff"
     bordercolor="#666666"
     borderopacity="1.0"
     inkscape:pageopacity="0.0"
     inkscape:pageshadow="2"
     inkscape:zoom="0.49497475"
     inkscape:cx="77.760849"
     inkscape:cy="7.8200754"
     inkscape:document-units="px"
     showgrid="false"
     fit-margin-top="0"
     fit-margin-left="0"
     fit-margin-right="0"
     fit-margin-bottom="0"
     inkscape:window-width="497"
     inkscape:window-height="420"
     inkscape:window-x="1177"
     inkscape:window-y="427"
     inkscape:window-maximized="0"
     inkscape:current-layer="svg3142" />
  <metadata
     id="metadata3147">
    <rdf:RDF>
      <cc:Work
         rdf:about="">
        <dc:format>image/svg+xml</dc:format>
        <dc:type
           rdf:resource="http://purl.org/dc/dcmitype/StillImage" />
        <dc:title></dc:title>
      </cc:Work>
    </rdf:RDF>
  </metadata>
  <path
     inkscape:connector-curvature="0"
     style="fill:#000000"
     d="m -280.41732,16.262484 c -0.24203,0.016 -0.74664,-0.4027 -1.12135,-0.9296 -0.3747,-0.5269 -0.20571,-0.9888 0.37553,-1.0264 0.58125,-0.038 1.08585,0.3808 1.12135,0.9296 0.0355,0.5489 -0.13349,1.0107 -0.37553,1.0264 z"
     id="path3034" />
  <path
     inkscape:connector-curvature="0"
     style="fill:#000000"
     d="m -238.4593,-39.060716 c -0.57079,-0.3037 -1.00705,-0.077 -0.96946,0.5046 0.0376,0.5812 0.51741,1.0277 1.06627,0.9922 0.54885,-0.036 0.9851,-0.2625 0.96945,-0.5046 -0.0156,-0.242 -0.49547,-0.6885 -1.06626,-0.9922 z"
     id="path3030" />
  <path
     inkscape:connector-curvature="0"
     style="fill:#000000"
     d="m 10.013174,6.0524344 c -1.0847995,-5.31196 -2.6018995,-6.60566 -6.8689995,-5.85769 -3.51550003,0.61624 -3.62980003,1.26283 -2.52720003,14.3013696 1.13280003,13.39485 1.27040003,19.89874 0.56120003,26.51906 -0.80490003,7.51436 1.4532,13.2188 5.2018,13.14069 1.4137,-0.0295 2.3639,-0.23494 2.1115,-0.45663 -0.2523,-0.22169 0.2188,-0.96915 1.047,-1.66102 0.8281995,-0.69187 1.7876995,-3.27868 2.1322995,-5.74847 0.7942,-5.69266 -0.369,-33.92774 -1.6576,-40.2373096 z"
     id="path3088" />
</svg>
