<?xml version="1.0" encoding="UTF-8" standalone="no"?>
<!-- Created with Inkscape (http://www.inkscape.org/) -->

<svg
   xmlns:dc="http://purl.org/dc/elements/1.1/"
   xmlns:cc="http://creativecommons.org/ns#"
   xmlns:rdf="http://www.w3.org/1999/02/22-rdf-syntax-ns#"
   xmlns:svg="http://www.w3.org/2000/svg"
   xmlns="http://www.w3.org/2000/svg"
   xmlns:sodipodi="http://sodipodi.sourceforge.net/DTD/sodipodi-0.dtd"
   xmlns:inkscape="http://www.inkscape.org/namespaces/inkscape"
   width="204.01826"
   height="608.50952"
   id="svg3142"
   version="1.1"
   inkscape:version="0.48.5 r10040"
   sodipodi:docname="special-rpm.svg">
  <defs
     id="defs3144" />
  <sodipodi:namedview
     id="base"
     pagecolor="#ffffff"
     bordercolor="#666666"
     borderopacity="1.0"
     inkscape:pageopacity="0.0"
     inkscape:pageshadow="2"
     inkscape:zoom="0.49497475"
     inkscape:cx="217.8103"
     inkscape:cy="318.13269"
     inkscape:document-units="px"
     showgrid="false"
     fit-margin-top="0"
     fit-margin-left="0"
     fit-margin-right="0"
     fit-margin-bottom="0"
     inkscape:window-width="1280"
     inkscape:window-height="744"
     inkscape:window-x="0"
     inkscape:window-y="22"
     inkscape:window-maximized="1"
     inkscape:current-layer="svg3142" />
  <metadata
     id="metadata3147">
    <rdf:RDF>
      <cc:Work
         rdf:about="">
        <dc:format>image/svg+xml</dc:format>
        <dc:type
           rdf:resource="http://purl.org/dc/dcmitype/StillImage" />
        <dc:title />
      </cc:Work>
    </rdf:RDF>
  </metadata>
  <path
     inkscape:connector-curvature="0"
     style="fill:#000000"
     d="m 3.7213572,341.11493 c -0.24203,0.016 -0.74664,-0.4027 -1.12135,-0.9296 -0.3747,-0.5269 -0.20571,-0.9888 0.37553,-1.0264 0.58125,-0.038 1.08585,0.3808 1.12135,0.9296 0.0355,0.5489 -0.13349,1.0107 -0.37553,1.0264 z"
     id="path3034" />
  <path
     inkscape:connector-curvature="0"
     style="fill:#000000"
     d="m 45.679377,285.79173 c -0.57079,-0.3037 -1.00705,-0.077 -0.96946,0.5046 0.0376,0.5812 0.51741,1.0277 1.06627,0.9922 0.54885,-0.036 0.9851,-0.2625 0.96945,-0.5046 -0.0156,-0.242 -0.49547,-0.6885 -1.06626,-0.9922 z"
     id="path3030" />
  <path
     inkscape:connector-curvature="0"
     style="fill:#000000"
     d="m 203.14517,245.84882 c -1.0871,-5.44119 -2.6472,-19.5449 -3.4672,-31.34157 -1.0648,-15.3189 -2.0599,-23.41636 -3.4827,-28.33431 -6.6526,-22.99558 -7.6308,-27.79334 -8.7711,-43.02362 -0.637,-8.50162 -2.0613,-21.03582 -3.1661,-27.85375 -7.1368,-44.038705 -7.2092,-44.343405 -13.2949,-56.008725 -1.4603,-2.79909 -2.3435,-5.11631 -1.9626,-5.14938 0.381,-0.0326 0.2006,-0.35962 -0.4007,-0.72565 -3.0654,-1.8661 -7.1884,-10.13606 -8.6698,-17.38962 -0.8688,-4.25479 -2.4302,-10.80445 -3.4698,-14.554801 -1.2889,-4.64983 -1.5863,-7.1647 -0.9349,-7.90615 2.4149,-2.74886 -0.6664,-7.0951803 -4.8388,-6.8253503 -1.5318,0.0991 -2.0448,-0.41647 -1.9363,-1.9453799 0.083,-1.1627 -0.877,-2.86853 -2.176,-3.86761995 -1.2781,-0.98311 -1.9388,-1.21853 -1.4682,-0.52317 0.5454,0.80594995 0.3625,1.22341995 -0.5048,1.15153995 -2.849,-0.23613 -7.5979,1.79444 -7.0391,3.00979 0.8049,1.7504399 -6.954,8.9848502 -9.836,9.1712502 -2.6183,0.16932 -8.0193,3.43565 -7.9313,4.79648 0.03,0.46291 -0.3826,0.60913 -0.9167,0.32494 -1.4544,-0.77389 0.4865,3.86362 5.2302,12.496881 2.741,4.98842 4.339,9.23317 4.6566,12.36948 0.266,2.62617 0.7612,4.58227 1.1005,4.34686 0.6227,-0.43199 2.6077,4.29937 2.394,5.70626 -0.063,0.41745 0.3712,0.72756 0.9658,0.68911 0.5946,-0.0385 0.9313,0.49941 0.7484,1.19526 -0.1831,0.69586 0.3032,1.82396 1.0806,2.50691 0.7774,0.68296 1.4408,1.77142 1.4743,2.41883 0.035,0.69008 -0.3797,0.58359 -1.0034,-0.25721 -0.6686,-0.90102 -1.0407,-0.9832 -1.0011,-0.22104 0.033,0.66741 1.0206,1.64869 2.1908,2.18086 1.1702,0.53218 1.9688,1.51101 1.7746,2.17519 -0.1942,0.66419 0.2812,1.85101 1.0564,2.63739 0.7753,0.78638 1.7818,2.95755 2.2367,4.82482 0.4549,1.86727 1.4086,4.02611 2.1192,4.79742 1.056,1.14612 1.0084,1.26254 -0.2605,0.63713 -1.1442,-0.56395 -1.0703,-0.28048 0.281,1.07766 1.0085,1.0136 2.7267,5.37666 3.8181,9.69569 2.0215,7.99907 6.1981,38.162425 7.9027,57.073455 1.0337,11.46663 3.961,25.79815 5.2526,25.71462 0.45,-0.0291 0.7445,0.29006 0.6544,0.70924 -0.09,0.41918 0.4964,1.79143 1.3029,3.04945 1.2189,1.90139 1.2479,2.44642 0.1708,3.2304 -0.9899,0.7209 -0.8582,0.91842 0.5591,0.83849 1.2627,-0.0712 1.6964,0.40167 1.3599,1.48258 -0.2829,0.90879 -0.09,1.29972 0.4516,0.91467 0.52,-0.36985 0.9276,0.14405 0.9057,1.14199 -0.077,3.48729 0.5173,5.3991 1.4678,4.72321 0.5269,-0.37471 1.0574,0.12804 1.1788,1.11723 0.1211,0.98921 0.4519,3.58734 0.7343,5.77367 0.2823,2.18634 0.039,4.32525 -0.5404,4.75314 -0.7517,0.55498 -0.6756,1.11018 0.2656,1.9369 1.5895,1.39643 2.2161,9.69391 1.1553,15.29897 -0.7513,3.97028 -1.1057,6.76721 -1.1918,9.40555 -0.024,0.73611 -0.5772,1.03027 -1.257,0.66847 -0.8219,-0.43728 -0.9681,-0.11085 -0.4527,1.01016 0.4816,1.04727 0.201,1.914 -0.7633,2.35738 -0.8387,0.38565 -1.0867,0.94829 -0.551,1.25031 0.5902,0.33276 0.5889,3.14054 0,7.12591 -0.5375,3.61723 -1.0824,7.87171 -1.211,9.4544 -0.1285,1.5827 -0.7126,3.53697 -1.2978,4.34281 -0.5853,0.80586 -0.6948,1.44131 -0.2434,1.41211 0.4514,-0.0292 0.3167,0.52065 -0.2993,1.22187 -0.6161,0.70122 -1.0827,1.74602 -1.0371,2.32177 0.047,0.57565 0.5241,0.34189 1.063,-0.51969 0.815,-1.30282 0.9001,-1.25236 0.5051,0.29982 -0.2612,1.02648 -0.4029,2.97875 -0.3149,4.33838 0.097,1.49274 -0.2775,2.23936 -0.9442,1.88464 -0.7478,-0.39791 -0.8117,0.557 -0.1981,2.95995 0.5012,1.96248 0.5,3.57361 0,3.60612 -0.4998,0.0323 -0.6141,1.66989 -0.2542,3.63905 0.4277,2.33959 0.1989,3.91175 -0.6594,4.5367 -0.9817,0.71466 -0.9934,0.93958 -0.046,0.88979 0.8728,-0.0459 1.1131,0.77493 0.7718,2.63672 -0.4656,2.53987 -0.5136,3.74196 -0.4563,11.44661 0.014,1.83354 -0.4107,2.83329 -1.0566,2.48959 -0.7068,-0.37608 -0.7823,0.35181 -0.2185,2.10863 0.6177,1.92546 0.5182,2.50065 -0.3528,2.03721 -0.8921,-0.47466 -0.9627,0.46026 -0.2664,3.52854 0.5467,2.40902 0.5516,3.96914 0.012,3.68915 -0.5215,-0.27049 -0.7726,3.25184 -0.5673,7.96032 0.3625,8.31263 -0.6267,11.94555 -2.9845,10.96142 -0.6439,-0.26873 -0.3432,0.10467 0.6682,0.82987 2.46,1.7637 2.3737,2.54258 -0.3163,2.85627 -1.6849,0.19646 -1.7989,0.34583 -0.4613,0.60448 1.1987,0.23181 1.6834,1.05881 1.4902,2.54312 -0.1574,1.20979 -0.6479,5.04139 -1.09,8.51466 -0.442,3.47327 -1.1915,6.34011 -1.6653,6.37076 -0.4739,0.0307 -0.8018,0.98035 -0.7287,2.11045 0.073,1.13009 -0.2397,1.85648 -0.695,1.61419 -0.4554,-0.24228 -1.4502,0.0634 -2.2107,0.67942 -1.1352,0.91924 -1.082,1.00159 0.2959,0.45954 0.9234,-0.36322 1.972,-0.2481 2.3304,0.2558 0.3584,0.5039 0.1496,0.94866 -0.4642,0.98835 -0.6136,0.0397 -0.8091,0.50326 -0.4344,1.03018 0.3747,0.52692 0.2058,0.98878 -0.3755,1.02638 -0.5812,0.0376 -0.9987,0.96647 -0.9277,2.06417 0.071,1.09771 -0.3466,2.02659 -0.9278,2.06418 -0.5812,0.0376 -0.7599,0.4858 -0.3971,0.99602 0.3629,0.51021 -0.1357,3.02264 -1.108,5.58316 -0.9722,2.56053 -1.9489,6.01273 -2.1706,7.67154 -0.2216,1.65882 -0.8078,2.80065 -1.3025,2.53739 -0.4947,-0.26326 -0.5967,0.18001 -0.2265,0.98502 0.3702,0.80501 0.3467,2.07004 -0.052,2.81116 -0.3987,0.74111 -0.7824,2.01942 -0.8525,2.84068 -0.07,0.82125 -0.5936,1.68277 -1.1633,1.91447 -0.5696,0.23171 -0.7552,0.81558 -0.4125,1.29748 0.3427,0.48191 0.1209,0.90868 -0.4926,0.94836 -0.6136,0.0397 -0.8091,0.50327 -0.4344,1.03019 0.3746,0.52691 0.2413,0.98648 -0.2962,1.02124 -0.5377,0.0348 -1.184,1.41441 -1.4364,3.06588 -0.2523,1.65146 -1.4028,4.60777 -2.5566,6.56958 -1.1538,1.96181 -2.572,5.20107 -3.1515,7.19837 -0.5795,1.9973 -1.4305,3.43094 -1.8911,3.18586 -0.4605,-0.24507 -0.4918,0.30588 -0.069,1.22433 0.5622,1.22265 0.3997,1.47402 -0.6067,0.93854 -0.945,-0.50287 -1.1124,-0.36288 -0.5358,0.44805 0.4993,0.70199 0.013,2.05447 -1.2001,3.34105 -1.1214,1.18889 -1.7638,2.75976 -1.4277,3.49081 0.3361,0.73105 0.1866,1.63107 -0.3322,2.00003 -0.5188,0.36897 -1.5187,2.1391 -2.2217,3.93362 -0.7032,1.79452 -1.1196,2.4863 -0.9253,1.5373 0.2308,-1.12781 -0.088,-1.52086 -0.9332,-1.13401 -0.7497,0.34471 -1.1029,1.80948 -0.8466,3.51104 0.2418,1.60576 0.046,2.94506 -0.4362,2.97621 -0.4817,0.0312 -0.7586,0.38726 -0.6153,0.79136 0.1432,0.4041 -0.2068,1.72026 -0.7777,2.92481 -0.571,1.20454 -0.8129,2.38788 -0.5378,2.62965 0.2752,0.24176 -0.3477,1.31307 -1.3844,2.38077 -1.0365,1.0677 -1.8563,2.3803 -1.8216,2.9169 0.035,0.5366 -0.8496,1.8767 -1.9649,2.978 -1.1155,1.1013 -1.5103,1.9689 -0.8774,1.928 0.6327,-0.041 1.1941,0.5991 1.2474,1.4224 0.053,0.8233 -0.2978,1.5224 -0.7801,1.5536 -0.4823,0.031 -1.3477,1.44 -1.9233,3.1307 -0.5756,1.6906 -1.4409,3.0994 -1.9232,3.1306 -0.4823,0.031 -0.8256,0.8492 -0.763,1.8179 0.063,0.9686 -0.6534,3.4456 -1.5912,5.5043 -0.9378,2.0588 -1.4534,3.9644 -1.1458,4.2347 0.3077,0.2702 -0.2082,1.4061 -1.1464,2.5241 -2.4552,2.9259 -4.4542,6.5885 -4.1247,7.5568 0.1563,0.4587 -0.6281,0.7188 -1.743,0.578 -1.11479,-0.1409 -1.763993,0.1136 -1.442793,0.5654 0.990303,1.3926 -0.3854,4.2165 -1.8343,3.7653 -0.7531,-0.2344 -1.6454,0.092 -1.9828,0.7266 -0.3714,0.698 -0.1771,0.8425 0.4927,0.3662 0.6083,-0.4326 1.1216,-0.5463 1.1406,-0.2528 0.066,1.0198 -3.5276,7.3202 -3.6101,6.3294 -0.045,-0.5482 -0.6017,0.1642 -1.2359,1.5831 -0.6341,1.4188 -1.6308,2.5156 -2.2149,2.4372 -0.5841,-0.078 -0.9536,0.611 -0.8212,1.5321 0.1328,0.921 -0.3945,1.7265 -1.1712,1.7901 -0.7766,0.064 -1.5797,0.7528 -1.7845,1.5317 -0.2261,0.8596 0.053,1.1136 0.7099,0.6465 0.5952,-0.4233 1.1,-0.4953 1.1217,-0.16 0.022,0.3354 -1.2507,1.1553 -2.8275,1.822 -1.7087,0.7224 -2.6335,1.7199 -2.2892,2.4688 0.3293,0.7161 -0.8905,2.2562 -2.8356,3.5801 -1.8775,1.2779 -3.378,2.9001 -3.3346,3.6048 0.1057,1.7893 -13.3914,17.8334 -14.3203,17.0174 -0.4166,-0.3661 -0.4356,0.035 -0.042,0.8906 0.4553,0.9902 -0.1548,2.3369 -1.6778,3.7028 -1.3163,1.1806 -2.0487,2.4819 -1.6275,2.8918 0.4212,0.4098 0.2365,0.4866 -0.4105,0.1706 -1.3644,-0.6666 -3.5719,1.9056 -2.4678,2.8756 0.4076,0.3581 -0.2578,0.9826 -1.4788,1.3877 -1.3992,0.4643 -1.985,1.2477 -1.5843,2.1189 0.3518,0.7652 0.1776,1.1387 -0.3903,0.8365 -0.5643,-0.3002 -0.9816,0.1385 -0.9276,0.9748 0.054,0.8364 -0.7686,2.0594 -1.8284,2.7179 -1.0597,0.6584 -1.8825,1.8815 -1.8284,2.7178 0.054,0.8364 -0.3686,1.2722 -0.9394,0.9685 -0.5708,-0.3037 -1.004,-0.029 -0.9626,0.6114 0.041,0.6399 -0.5473,0.9697 -1.3082,0.7328 -0.9651,-0.3005 -1.2566,0.2922 -0.9637,1.9593 0.2309,1.3145 0.1038,2.4105 -0.2822,2.4354 -0.3862,0.025 -2.1981,1.6077 -4.0266,3.5172 -1.8284,1.9095 -4.1478,4.1055 -5.1541,4.8801 -1.0063,0.7746 -1.176,1.0574 -0.377,0.6286 0.8952,-0.4805 0.7386,0.074 -0.4076,1.444 -3.1699,3.789 -4.0686,5.2371 -3.5391,5.7023 0.2805,0.2465 -0.978,0.3804 -2.7967,0.2976 -2.3046,-0.1049 -2.8496,0.1006 -1.7979,0.678 0.8298,0.4556 1.9645,0.5698 2.5216,0.2537 0.557,-0.3161 0.2752,0.1147 -0.6263,0.9573 -0.9014,0.8426 -1.3024,1.8276 -0.891,2.189 0.4113,0.3614 -0.119,0.3872 -1.1784,0.057 -1.3403,-0.4172 -1.6838,-0.2587 -1.1292,0.5211 0.4972,0.6991 0.1124,1.1651 -1.0211,1.2384 -0.9999,0.065 -2.1965,1.1487 -2.6591,2.4089 -0.4625,1.2602 -1.9272,2.9266 -3.2549,3.7031 -1.3276,0.7764 -2.0422,1.3943 -1.588,1.3731 0.9883,-0.046 -4.0814,4.9341 -5.49,5.3932 -0.5398,0.176 -1.5331998,1.2272 -2.2076998,2.336 -0.6743,1.1089 -1.8453,1.8233 -2.6019,1.5878 -0.8769,-0.273 -1.1445,0.075 -0.7379,0.9591 0.3952,0.8595 -0.3196,1.901 -1.8782,2.7366 -1.6656,0.8929 -2.4652,2.1382 -2.3653,3.6835 0.083,1.2841 0.059,2.6615 -0.053,3.061 -0.112,0.3994 1.0143,1.3099 2.5029,2.0232 2.5495,1.2218 3.1613,1.0216 10.5563998,-3.4546 4.3174,-2.6133 8.3857,-4.4665 9.0405,-4.1181 0.6547,0.3484 0.8928,0.2148 0.5289,-0.2968 -0.6316,-0.8882 3.4238,-4.2856 5.505,-4.6118 0.5456,-0.085 0.9657,-0.5619 0.9336,-1.0588 -0.1244,-1.9232 17.851,-14.639 19.1925,-13.5767 0.4601,0.3643 0.5233,0.1869 0.1405,-0.3942 -0.3962,-0.6017 2.6706,-3.8082 7.1239,-7.4481 4.3009,-3.5152 10.7196,-9.6215 14.2639,-13.5695 3.5443,-3.948 6.8555,-6.9593 7.3583,-6.6918 0.5027,0.2675 0.7625,0.059 0.5773,-0.4635 -0.5245,-1.4792 21.624403,-25.7369 22.886393,-25.0654 0.6779,0.3607 0.7981,0.1445 0.3049,-0.549 -0.7844,-1.1031 11.0935,-16.5991 12.4623,-16.2584 0.3418,0.085 0.5845,-0.4166 0.5394,-1.1148 -0.1309,-2.0236 5.657,-11.1054 6.7177,-10.541 0.5288,0.2814 0.675,-0.1112 0.3251,-0.8723 -0.3735,-0.8123 2.4177,-5.7231 6.7582,-11.89 4.067,-5.7784 7.3746,-10.8128 7.3504,-11.1876 -0.073,-1.1324 6.0664,-9.9462 6.6011,-9.4764 0.2734,0.2401 0.4598,-0.1386 0.4143,-0.8416 -0.1388,-2.1475 3.0428,-6.9542 4.1968,-6.3401 0.6058,0.3223 0.759,0.1192 0.347,-0.4602 -0.4057,-0.5705 0.4219,-3.0611 1.8391,-5.5347 1.4172,-2.4736 3.3214,-6.0112 4.2316,-7.8613 0.9103,-1.8501 2.0074,-3.3866 2.4379,-3.4145 0.4305,-0.028 0.7374,-0.7507 0.6821,-1.6063 -0.06,-0.9219 0.3876,-1.2961 1.0975,-0.9183 0.69,0.3671 0.901,0.2196 0.4976,-0.3476 -0.3853,-0.54187 1.2774,-5.11575 3.695,-10.16419 2.4175,-5.04844 4.37,-9.5888 4.3388,-10.08968 -0.032,-0.50081 1.2031,-3.18418 2.7425,-5.96288 2.4246,-4.37622 3.0279,-4.89622 4.5086,-3.88661 1.5166,1.03404 1.5447,0.98117 0.2494,-0.46853 -1.2728,-1.42439 -0.8999,-2.8629 2.9062,-11.21094 2.9545,-6.47988 4.8727,-9.51999 5.9319,-9.401 0.861,0.0967 1.8177,-0.2982 2.126,-0.87759 0.3294,-0.61906 -0.063,-0.76706 -0.9498,-0.35898 -1.7699,0.81384 -1.9456,0.11781 -0.6757,-2.67416 0.5068,-1.11428 1.4371,-1.75153 2.0674,-1.41613 0.7057,0.3755 0.833,0.16953 0.3312,-0.53601 -0.4529,-0.63701 0.7511,-4.95676 2.7115,-9.72768 3.7579,-9.14556 5.0131,-15.83328 6.8366,-36.42443 1.0776,-12.16928 3.1594,-23.61985 6.2077,-34.14511 4.097,-14.14615 4.7631,-38.39322 1.5031,-54.71107 z"
     id="path3104" />
</svg>
