<?xml version="1.0" encoding="UTF-8" standalone="no"?>
<!-- Created with Inkscape (http://www.inkscape.org/) -->

<svg
   xmlns:dc="http://purl.org/dc/elements/1.1/"
   xmlns:cc="http://creativecommons.org/ns#"
   xmlns:rdf="http://www.w3.org/1999/02/22-rdf-syntax-ns#"
   xmlns:svg="http://www.w3.org/2000/svg"
   xmlns="http://www.w3.org/2000/svg"
   xmlns:sodipodi="http://sodipodi.sourceforge.net/DTD/sodipodi-0.dtd"
   xmlns:inkscape="http://www.inkscape.org/namespaces/inkscape"
   width="204.01826"
   height="608.50952"
   id="svg3142"
   version="1.1"
   inkscape:version="0.48.5 r10040"
   sodipodi:docname="special-rpm-2.svg">
  <defs
     id="defs3144" />
  <sodipodi:namedview
     id="base"
     pagecolor="#ffffff"
     bordercolor="#666666"
     borderopacity="1.0"
     inkscape:pageopacity="0.0"
     inkscape:pageshadow="2"
     inkscape:zoom="1.4"
     inkscape:cx="71.420619"
     inkscape:cy="78.692286"
     inkscape:document-units="px"
     showgrid="false"
     fit-margin-top="0"
     fit-margin-left="0"
     fit-margin-right="0"
     fit-margin-bottom="0"
     inkscape:window-width="1280"
     inkscape:window-height="744"
     inkscape:window-x="0"
     inkscape:window-y="22"
     inkscape:window-maximized="1"
     inkscape:current-layer="svg3142" />
  <metadata
     id="metadata3147">
    <rdf:RDF>
      <cc:Work
         rdf:about="">
        <dc:format>image/svg+xml</dc:format>
        <dc:type
           rdf:resource="http://purl.org/dc/dcmitype/StillImage" />
        <dc:title></dc:title>
      </cc:Work>
    </rdf:RDF>
  </metadata>
  <path
     inkscape:connector-curvature="0"
     style="fill:#000000"
     d="m 115.28239,451.6763 c -0.4823,0.031 -0.84262,0.17731 -1.41822,1.86801 -0.5756,1.6906 -1.4409,3.0994 -1.9232,3.1306 -0.4823,0.031 -0.8256,0.8492 -0.763,1.8179 0.063,0.9686 -0.6534,3.4456 -1.5912,5.5043 -0.9378,2.0588 -1.4534,3.9644 -1.1458,4.2347 0.3077,0.2702 -0.2082,1.4061 -1.1464,2.5241 -2.4552,2.9259 -4.4542,6.5885 -4.1247,7.5568 0.1563,0.4587 -0.6281,0.7188 -1.743,0.578 -1.11479,-0.1409 -1.763993,0.1136 -1.442793,0.5654 0.990303,1.3926 -0.3854,4.2165 -1.8343,3.7653 -0.7531,-0.2344 -1.6454,0.092 -1.9828,0.7266 -0.3714,0.698 -0.1771,0.8425 0.4927,0.3662 0.6083,-0.4326 1.1216,-0.5463 1.1406,-0.2528 0.066,1.0198 -3.5276,7.3202 -3.6101,6.3294 -0.045,-0.5482 -0.6017,0.1642 -1.2359,1.5831 -0.6341,1.4188 -1.6308,2.5156 -2.2149,2.4372 -0.5841,-0.078 -0.9536,0.611 -0.8212,1.5321 0.1328,0.921 -0.3945,1.7265 -1.1712,1.7901 -0.7766,0.064 -1.5797,0.7528 -1.7845,1.5317 -0.2261,0.8596 0.053,1.1136 0.7099,0.6465 0.5952,-0.4233 1.1,-0.4953 1.1217,-0.16 0.022,0.3354 -1.2507,1.1553 -2.8275,1.822 -1.7087,0.7224 -2.6335,1.7199 -2.2892,2.4688 0.3293,0.7161 -0.8905,2.2562 -2.8356,3.5801 -1.8775,1.2779 -3.378,2.9001 -3.3346,3.6048 0.1057,1.7893 -13.3914,17.8334 -14.3203,17.0174 -0.4166,-0.3661 -0.4356,0.035 -0.042,0.8906 0.4553,0.9902 -0.1548,2.3369 -1.6778,3.7028 -1.3163,1.1806 -2.0487,2.4819 -1.6275,2.8918 0.4212,0.4098 0.2365,0.4866 -0.4105,0.1706 -1.3644,-0.6666 -3.5719,1.9056 -2.4678,2.8756 0.4076,0.3581 -0.2578,0.9826 -1.4788,1.3877 -1.3992,0.4643 -1.985,1.2477 -1.5843,2.1189 0.3518,0.7652 0.1776,1.1387 -0.3903,0.8365 -0.5643,-0.3002 -0.9816,0.1385 -0.9276,0.9748 0.054,0.8364 -0.7686,2.0594 -1.8284,2.7179 -1.0597,0.6584 -1.8825,1.8815 -1.8284,2.7178 0.054,0.8364 -0.3686,1.2722 -0.9394,0.9685 -0.5708,-0.3037 -1.004,-0.029 -0.9626,0.6114 0.041,0.6399 -0.5473,0.9697 -1.3082,0.7328 -0.9651,-0.3005 -1.2566,0.2922 -0.9637,1.9593 0.2309,1.3145 0.1038,2.4105 -0.2822,2.4354 -0.3862,0.025 -2.1981,1.6077 -4.0266,3.5172 -1.8284,1.9095 -4.1478,4.1055 -5.1541,4.8801 -1.0063,0.7746 -1.176,1.0574 -0.377,0.6286 0.8952,-0.4805 0.7386,0.074 -0.4076,1.444 -3.1699,3.789 -4.0686,5.2371 -3.5391,5.7023 0.2805,0.2465 -0.978,0.3804 -2.7967,0.2976 -2.3046,-0.1049 -2.8496,0.1006 -1.7979,0.678 0.8298,0.4556 1.9645,0.5698 2.5216,0.2537 0.557,-0.3161 0.2752,0.1147 -0.6263,0.9573 -0.9014,0.8426 -1.3024,1.8276 -0.891,2.189 0.4113,0.3614 -0.119,0.3872 -1.1784,0.057 -1.3403,-0.4172 -1.6838,-0.2587 -1.1292,0.5211 0.4972,0.6991 0.1124,1.1651 -1.0211,1.2384 -0.9999,0.065 -2.1965,1.1487 -2.6591,2.4089 -0.4625,1.2602 -1.9272,2.9266 -3.2549,3.7031 -1.3276,0.7764 -2.0422,1.3943 -1.588,1.3731 0.9883,-0.046 -4.0814,4.9341 -5.49,5.3932 -0.5398,0.176 -1.5331998,1.2272 -2.2076998,2.336 -0.6743,1.1089 -1.8453,1.8233 -2.6019,1.5878 -0.8769,-0.273 -1.1445,0.075 -0.7379,0.9591 0.3952,0.8595 -0.3196,1.901 -1.8782,2.7366 -1.6656,0.8929 -2.4652,2.1382 -2.3653,3.6835 0.083,1.2841 0.059,2.6615 -0.053,3.061 -0.112,0.3994 1.0143,1.3099 2.5029,2.0232 2.5495,1.2218 3.1613,1.0216 10.5563998,-3.4546 4.3174,-2.6133 8.3857,-4.4665 9.0405,-4.1181 0.6547,0.3484 0.8928,0.2148 0.5289,-0.2968 -0.6316,-0.8882 3.4238,-4.2856 5.505,-4.6118 0.5456,-0.085 0.9657,-0.5619 0.9336,-1.0588 -0.1244,-1.9232 17.851,-14.639 19.1925,-13.5767 0.4601,0.3643 0.5233,0.1869 0.1405,-0.3942 -0.3962,-0.6017 2.6706,-3.8082 7.1239,-7.4481 4.3009,-3.5152 10.7196,-9.6215 14.2639,-13.5695 3.5443,-3.948 6.8555,-6.9593 7.3583,-6.6918 0.5027,0.2675 0.7625,0.059 0.5773,-0.4635 -0.5245,-1.4792 21.624403,-25.7369 22.886393,-25.0654 0.6779,0.3607 0.7981,0.1445 0.3049,-0.549 -0.7844,-1.1031 11.0935,-16.5991 12.4623,-16.2584 0.3418,0.085 0.5845,-0.4166 0.5394,-1.1148 -0.1309,-2.0236 5.657,-11.1054 6.7177,-10.541 0.5288,0.2814 0.675,-0.1112 0.3251,-0.8723 -0.3735,-0.8123 2.4177,-5.7231 6.7582,-11.89 4.067,-5.7784 7.3746,-10.8128 7.3504,-11.1876 -0.073,-1.1324 6.0664,-9.9462 6.6011,-9.4764 0.2734,0.2401 0.4598,-0.1386 0.4143,-0.8416 -0.1388,-2.1475 3.0428,-6.9542 4.1968,-6.3401 0.6058,0.3223 0.759,0.1192 0.347,-0.4602 -0.4057,-0.5705 -0.33571,-1.29333 1.08149,-3.76693 -11.48815,-1.28264 -15.69126,-0.9341 -33.63437,-2.14288 z"
     id="path3104"
     sodipodi:nodetypes="ccccccccccccccccccccccccsccccccscccsccscccccscccscccccsccccccccccccscccccccsccscccccsccccccc" />
</svg>
