<?xml version="1.0" encoding="UTF-8" standalone="no"?>
<!-- Created with Inkscape (http://www.inkscape.org/) -->

<svg
   xmlns:dc="http://purl.org/dc/elements/1.1/"
   xmlns:cc="http://creativecommons.org/ns#"
   xmlns:rdf="http://www.w3.org/1999/02/22-rdf-syntax-ns#"
   xmlns:svg="http://www.w3.org/2000/svg"
   xmlns="http://www.w3.org/2000/svg"
   xmlns:sodipodi="http://sodipodi.sourceforge.net/DTD/sodipodi-0.dtd"
   xmlns:inkscape="http://www.inkscape.org/namespaces/inkscape"
   width="147.47189"
   height="142.06845"
   id="svg3568"
   version="1.1"
   inkscape:version="0.48.5 r10040"
   sodipodi:docname="normal-needle-rpm.svg">
  <defs
     id="defs3570" />
  <sodipodi:namedview
     id="base"
     pagecolor="#ffffff"
     bordercolor="#666666"
     borderopacity="1.0"
     inkscape:pageopacity="0.0"
     inkscape:pageshadow="2"
     inkscape:zoom="0.35"
     inkscape:cx="-142.69263"
     inkscape:cy="-183.25149"
     inkscape:document-units="px"
     inkscape:current-layer="layer1"
     showgrid="false"
     inkscape:window-width="878"
     inkscape:window-height="743"
     inkscape:window-x="0"
     inkscape:window-y="22"
     inkscape:window-maximized="0"
     fit-margin-top="0"
     fit-margin-left="0"
     fit-margin-right="0"
     fit-margin-bottom="0" />
  <metadata
     id="metadata3573">
    <rdf:RDF>
      <cc:Work
         rdf:about="">
        <dc:format>image/svg+xml</dc:format>
        <dc:type
           rdf:resource="http://purl.org/dc/dcmitype/StillImage" />
        <dc:title />
      </cc:Work>
    </rdf:RDF>
  </metadata>
  <g
     inkscape:label="Layer 1"
     inkscape:groupmode="layer"
     id="layer1"
     transform="translate(-517.69263,-207.04225)">
    <path
       inkscape:connector-curvature="0"
       style="fill:#000000"
       d="m 519.68144,346.6242 c 2.5158,2.6212 2.8911,2.6964 11.5999,2.3232 4.95,-0.2122 9.3217,-0.4186 9.7148,-0.4589 0.3932,-0.04 1.2054,-0.9897 1.8049,-2.1099 0.8323,-1.5552 0.7193,-2.78 -0.4778,-5.1796 -0.8623,-1.7286 -1.3343,-2.9093 -1.0488,-2.6238 0.2855,0.2854 2.3447,-1.2177 4.5761,-3.3404 2.3059,-2.1936 4.5693,-3.5658 5.2439,-3.1791 0.6528,0.3742 0.882,0.3408 0.5094,-0.074 -0.7081,-0.7886 5.2919,-6.5661 6.819,-6.5661 0.4826,0 1.4668,-0.9438 2.1872,-2.0974 0.7205,-1.1535 1.5823,-1.8249 1.9153,-1.4919 0.333,0.333 1.4239,-0.6357 2.4241,-2.1527 1.0003,-1.5169 1.8217,-2.3977 1.8253,-1.9573 0,0.4404 1.4691,-0.5701 3.2566,-2.2454 1.7875,-1.6753 3.5186,-3.0481 3.847,-3.0507 0.6041,0 1.8676,-1.0055 9.7977,-7.7609 2.4171,-2.059 4.4696,-3.5187 4.5611,-3.2437 0.091,0.275 1.6479,-1.1875 3.4588,-3.25 1.8109,-2.0625 3.6817,-3.75 4.1572,-3.75 0.4756,0 4.2521,-3.4317 8.3922,-7.6259 6.7528,-6.841 7.7082,-7.4843 9.2818,-6.25 1.5994,1.2545 1.6301,1.2179 0.3485,-0.4141 -1.2698,-1.6171 -0.89,-2.2452 3.9298,-6.5 2.9345,-2.5905 5.8171,-4.56 6.4057,-4.3767 0.5886,0.1834 0.7409,0 0.3384,-0.3985 -0.4025,-0.4025 0.2725,-1.5969 1.5,-2.6542 1.2275,-1.0574 3.4846,-3.0327 5.0158,-4.3896 1.5312,-1.3568 3.2882,-2.1554 3.9045,-1.7745 0.6163,0.3809 0.8663,0.2812 0.5556,-0.2216 -0.8978,-1.4527 6.528,-9.47 8.9366,-9.6485 1.1994,-0.089 1.9558,-0.5255 1.6809,-0.9703 -0.2749,-0.4448 -1.0312,-0.4839 -1.6807,-0.087 -0.6495,0.397 0.1291,-0.8332 1.7301,-2.7337 1.6011,-1.9005 3.322,-3.3318 3.8243,-3.1807 0.5024,0.1511 0.6462,-0.1574 0.3198,-0.6857 -0.8945,-1.4473 6.6764,-9.1555 9.1774,-9.3439 1.1999,-0.09 1.975,-0.371 1.7224,-0.6236 -0.6706,-0.6707 2.6855,-4.1528 3.5109,-3.6427 0.9889,0.6112 0.056,-8.5689 -1.0876,-10.7065 -0.624,-1.166 -0.5944,-1.7724 0.087,-1.7724 0.5694,0 1.0352,-0.4981 1.0352,-1.107 0,-0.6088 -0.5867,-0.8818 -1.3038,-0.6067 -0.7257,0.2785 -2.3508,-1.0278 -3.6654,-2.9464 -3.3635,-4.9086 -5.523,-5.8477 -7.9245,-3.4461 -1.0668,1.0667 -2.1057,1.7735 -2.3087,1.5705 -0.203,-0.203 -0.369,0.4765 -0.369,1.5099 0,1.0334 0.3535,1.6604 0.7857,1.3934 0.4321,-0.2671 0.7857,0.3712 0.7857,1.4184 0,2.2191 -3.3114,5.5693 -4.4145,4.4662 -0.4137,-0.4137 -0.6022,-0.077 -0.4188,0.7478 0.1833,0.825 -0.2292,1.3875 -0.9167,1.25 -0.6875,-0.1375 -1.1375,0.1325 -1,0.6 0.877,2.9818 -22.7515,28.9603 -26.8935,29.5682 -1.0211,0.1498 -1.8565,0.7513 -1.8565,1.3366 0,1.5104 -5.0864,5.3255 -5.9494,4.4625 -0.3945,-0.3945 -0.5673,-0.209 -0.3839,0.4123 0.4401,1.4915 -5.0318,6.5718 -6.2606,5.8124 -0.5256,-0.3249 -0.832,-0.1735 -0.6809,0.3364 0.1512,0.5099 -1.5406,2.4559 -3.7595,4.3243 -5.9926,5.0463 -6.865,5.8346 -14.0684,12.7127 -4.3115,4.1168 -7.1478,6.1106 -8.1471,5.7271 -1.1949,-0.4585 -1.2853,-0.2897 -0.4099,0.7651 0.8687,1.0467 0.4886,1.9612 -1.6779,4.0368 -1.5406,1.476 -3.1795,2.3398 -3.6421,1.9196 -0.4625,-0.4202 -0.5567,-0.2653 -0.2092,0.3443 0.6332,1.1108 -7.6194,9.5234 -12.3111,12.5497 -3.0099,1.9414 -13.1002,10.5628 -18.1401,15.4991 -2.8812,2.8221 -4.0052,3.361 -5.392,2.5849 -2.8293,-1.5834 -5.4216,-0.2531 -7.5192,3.8587 -1.0786,2.114 -3.3323,5.4055 -5.0083,7.3144 -4.6472,5.2928 -5.2019,8.4996 -2.0403,11.7937 z"
       id="path3490" />
  </g>
</svg>
