<?xml version="1.0" encoding="UTF-8" standalone="no"?>
<!-- Created with Inkscape (http://www.inkscape.org/) -->

<svg
   xmlns:dc="http://purl.org/dc/elements/1.1/"
   xmlns:cc="http://creativecommons.org/ns#"
   xmlns:rdf="http://www.w3.org/1999/02/22-rdf-syntax-ns#"
   xmlns:svg="http://www.w3.org/2000/svg"
   xmlns="http://www.w3.org/2000/svg"
   xmlns:sodipodi="http://sodipodi.sourceforge.net/DTD/sodipodi-0.dtd"
   xmlns:inkscape="http://www.inkscape.org/namespaces/inkscape"
   width="744.09448819"
   height="1052.3622047"
   id="svg3568"
   version="1.1"
   inkscape:version="0.48.5 r10040"
   sodipodi:docname="normal-steering_wheel.svg">
  <defs
     id="defs3570" />
  <sodipodi:namedview
     id="base"
     pagecolor="#ffffff"
     bordercolor="#666666"
     borderopacity="1.0"
     inkscape:pageopacity="0.0"
     inkscape:pageshadow="2"
     inkscape:zoom="0.35"
     inkscape:cx="375"
     inkscape:cy="520"
     inkscape:document-units="px"
     inkscape:current-layer="layer1"
     showgrid="false"
     inkscape:window-width="878"
     inkscape:window-height="883"
     inkscape:window-x="0"
     inkscape:window-y="15"
     inkscape:window-maximized="0" />
  <metadata
     id="metadata3573">
    <rdf:RDF>
      <cc:Work
         rdf:about="">
        <dc:format>image/svg+xml</dc:format>
        <dc:type
           rdf:resource="http://purl.org/dc/dcmitype/StillImage" />
        <dc:title></dc:title>
      </cc:Work>
    </rdf:RDF>
  </metadata>
  <g
     inkscape:label="Layer 1"
     inkscape:groupmode="layer"
     id="layer1">
    <path
       inkscape:connector-curvature="0"
       style="fill:#000000"
       d="m 220.77569,537.70383 c 7.5378,-7.04049 9.1608,-9.41427 9.1608,-13.39866 0,-2.06692 0.3719,-2.53 1.6409,-2.04305 2.0582,0.78981 5.6423,-1.48873 11.1237,-7.07193 2.3456,-2.38907 4.4749,-4.34377 4.7318,-4.34377 0.9047,0 7.4132,-6.75708 6.9524,-7.21789 -0.2567,-0.25669 0.8527,-1.84733 2.4652,-3.53474 1.6126,-1.68742 2.7122,-3.28783 2.4436,-3.55648 -0.2687,-0.26864 1.3377,-1.29414 3.5696,-2.27888 2.232,-0.98474 4.3039,-2.56465 4.6042,-3.51092 0.3003,-0.94626 1.29,-2.32362 2.1993,-3.06078 1.3959,-1.13169 1.5215,-1.1217 0.8067,0.0642 -0.5745,0.95338 -0.4756,1.17532 0.3081,0.69098 0.635,-0.39244 1.1545,-1.38852 1.1545,-2.21352 0,-0.825 0.3826,-1.26352 0.8503,-0.97448 0.4677,0.28904 3.9552,-2.14446 7.75,-5.40778 3.7948,-3.26331 7.2859,-5.94824 7.7579,-5.9665 0.472,-0.0183 3.7425,-2.3283 7.2677,-5.1334 4.3749,-3.48122 6.9497,-4.8929 8.1113,-4.44715 0.936,0.35917 1.3995,0.35069 1.0299,-0.0188 -0.6821,-0.68214 0.1907,-1.73412 3.6788,-4.43381 1.7227,-1.33333 1.8531,-1.33333 1.1737,0 -0.4203,0.825 0.2808,0.3604 1.5581,-1.03245 1.2772,-1.39284 3.6723,-3.19212 5.3223,-3.9984 1.65,-0.80628 3.3306,-1.91668 3.7347,-2.46756 0.4041,-0.55087 0.7416,-0.6034 0.75,-0.11673 0.01,0.48667 0.955,-0.30982 2.1036,-1.76998 1.1486,-1.46016 3.5111,-3.38541 5.25,-4.27834 1.7389,-0.89292 4.4846,-2.90893 6.1015,-4.48002 1.6169,-1.57109 3.5071,-2.85652 4.2003,-2.85652 0.6933,0 1.6221,-0.64606 2.064,-1.43569 1.5463,-2.76315 9.5333,-7.34865 12.4483,-7.14684 1.7785,0.12313 2.8476,-0.29365 2.8476,-1.11016 0,-0.71902 0.3375,-1.28623 0.75,-1.26047 1.2683,0.0792 7.771,9.92203 7.4167,11.22628 -0.1834,0.67478 -0.025,0.9181 0.3528,0.54069 0.3774,-0.3774 1.7263,0.5226 2.9976,2 2.591,3.01129 1.6102,5.71424 -1.7544,4.83439 -1.4464,-0.37824 -1.6305,-0.19377 -0.8024,0.80401 1.3275,1.5995 -2.3,4.25703 -6.5962,4.83236 -1.6941,0.22687 -2.8573,0.99047 -2.8598,1.87745 0,0.82228 -1.4531,3.14721 -3.2237,5.16652 -3.0784,3.5106 -5.191,4.9535 -3.6851,2.51695 0.4456,-0.72104 0.2739,-0.88282 -0.4573,-0.4309 -0.644,0.39798 -0.9332,1.1081 -0.6428,1.57804 0.2905,0.46994 -0.7287,1.74936 -2.2648,2.84314 -2.1424,1.52555 -3.2251,1.7468 -4.6489,0.95002 -1.4429,-0.80748 -1.6777,-0.75011 -1.0548,0.25769 0.5715,0.92479 0.3334,1.11688 -0.8308,0.67013 -0.8976,-0.34444 -1.941,-0.12639 -2.3186,0.48457 -0.4561,0.73807 -0.2152,0.82678 0.718,0.26437 1.1933,-0.71918 1.1995,-0.5937 0.041,0.83448 -0.7498,0.92452 -1.8319,1.39137 -2.4045,1.03745 -0.5727,-0.35392 -0.7564,-0.1827 -0.4084,0.3805 0.9931,1.60673 -14.3813,13.12506 -16.6481,12.4727 -0.4534,-0.13048 -0.5877,0.14568 -0.2985,0.61369 1.0341,1.67318 -12.1413,13.48845 -14.1791,12.71541 -0.7161,-0.27163 -1.0389,-0.0682 -0.7173,0.45209 0.7249,1.17294 -4.9293,4.22013 -6.0143,3.24125 -0.433,-0.39057 -0.4883,-0.18781 -0.123,0.45056 0.3895,0.68065 -1.0952,2.42326 -3.5897,4.21349 -2.3396,1.67905 -4.7038,3.42644 -5.2538,3.88309 -5.4424,4.51871 -12.7387,9.21322 -13.545,8.71491 -0.5525,-0.34145 -0.8809,-0.22866 -0.7298,0.25066 0.1512,0.47932 -0.9627,2.34729 -2.4752,4.15105 -1.5125,1.80377 -2.75,2.9503 -2.75,2.54786 0,-0.40244 -0.8716,0.0571 -1.937,1.02123 -1.0653,0.96413 -2.4265,1.45042 -3.0248,1.08066 -0.5982,-0.36976 -0.9641,-0.29265 -0.813,0.17135 0.4994,1.53308 -4.0634,5.58107 -5.6183,4.98442 -0.9315,-0.35744 -1.3264,-0.11191 -1.0362,0.64424 0.2579,0.67198 -0.7776,1.96445 -2.3009,2.87215 -1.5234,0.9077 -3.6896,2.5161 -4.8137,3.57423 -1.1241,1.05813 -4.2741,3.49022 -7,5.40465 -2.7259,1.91443 -5.4647,4.49269 -6.0864,5.72946 -0.6217,1.23678 -2.8222,3.39838 -4.8902,4.80357 -2.0679,1.40519 -3.4247,2.01258 -3.015,1.34977 0.5209,-0.84293 0.1031,-0.80725 -1.3904,0.11871 -1.806,1.11977 -2.2822,1.09261 -3.0893,-0.17618 -0.5248,-0.825 -0.9611,-1.06237 -0.9695,-0.52749 -0.01,0.53487 -0.7211,-0.0351 -1.5837,-1.26673 -0.8752,-1.24947 -2.0907,-1.93997 -2.75,-1.56218 -0.6499,0.37238 -0.847,0.30777 -0.438,-0.14358 0.409,-0.45135 -0.1535,-1.44901 -1.25,-2.21703 -3.6467,-2.55425 -2.4571,-5.60472 4.8456,-12.42558 z"
       id="path3466" />
  </g>
</svg>
