<?xml version="1.0" encoding="UTF-8" standalone="no"?>
<!-- Created with Inkscape (http://www.inkscape.org/) -->

<svg
   xmlns:dc="http://purl.org/dc/elements/1.1/"
   xmlns:cc="http://creativecommons.org/ns#"
   xmlns:rdf="http://www.w3.org/1999/02/22-rdf-syntax-ns#"
   xmlns:svg="http://www.w3.org/2000/svg"
   xmlns="http://www.w3.org/2000/svg"
   xmlns:sodipodi="http://sodipodi.sourceforge.net/DTD/sodipodi-0.dtd"
   xmlns:inkscape="http://www.inkscape.org/namespaces/inkscape"
   width="744.09448819"
   height="1052.3622047"
   id="svg3568"
   version="1.1"
   inkscape:version="0.48.5 r10040"
   sodipodi:docname="normal-needle-rpm.svg">
  <defs
     id="defs3570" />
  <sodipodi:namedview
     id="base"
     pagecolor="#ffffff"
     bordercolor="#666666"
     borderopacity="1.0"
     inkscape:pageopacity="0.0"
     inkscape:pageshadow="2"
     inkscape:zoom="0.35"
     inkscape:cx="375"
     inkscape:cy="520"
     inkscape:document-units="px"
     inkscape:current-layer="layer1"
     showgrid="false"
     inkscape:window-width="878"
     inkscape:window-height="883"
     inkscape:window-x="0"
     inkscape:window-y="15"
     inkscape:window-maximized="0" />
  <metadata
     id="metadata3573">
    <rdf:RDF>
      <cc:Work
         rdf:about="">
        <dc:format>image/svg+xml</dc:format>
        <dc:type
           rdf:resource="http://purl.org/dc/dcmitype/StillImage" />
        <dc:title></dc:title>
      </cc:Work>
    </rdf:RDF>
  </metadata>
  <g
     inkscape:label="Layer 1"
     inkscape:groupmode="layer"
     id="layer1">
    <path
       inkscape:connector-curvature="0"
       style="fill:#000000"
       d="m 450.23953,411.64489 c 2.3746,2.6485 3.1034,2.7901 14.4354,2.8029 6.2019,0.01 9.4892,0.3715 9.0955,1.0085 -0.3504,0.5671 -0.1112,0.6853 0.5543,0.274 0.6439,-0.398 0.9357,-1.1041 0.6483,-1.5691 -0.2874,-0.465 -0.05,-1.0031 0.5281,-1.1957 1.305,-0.435 1.519,-3.3272 0.5568,-7.5266 -0.6596,-2.8788 -0.5233,-3.1654 1.3352,-2.8074 1.1384,0.2192 2.0698,-0.026 2.0698,-0.544 0,-0.5184 0.675,-0.9426 1.5,-0.9426 0.825,0 1.5,-0.4197 1.5,-0.9326 0,-1.0765 3.8973,-2.5754 5.7634,-2.2165 0.6948,0.1336 1.5305,-0.4532 1.857,-1.304 0.3264,-0.8508 1.697,-1.5469 3.0456,-1.5469 1.38,0 2.1818,-0.4372 1.834,-1 -0.3399,-0.55 0.083,-1 0.941,-1 0.8574,0 1.559,-0.4766 1.559,-1.059 0,-0.5825 0.45,-0.7809 1,-0.441 0.55,0.3399 1,0.1415 1,-0.441 0,-0.5824 0.7071,-1.059 1.5714,-1.059 0.8643,0 2.2464,-0.675 3.0714,-1.5 0.825,-0.825 2.3945,-1.5 3.4876,-1.5 1.0932,0 1.7649,-0.3603 1.4928,-0.8006 -0.2722,-0.4404 1.5013,-1.3901 3.941,-2.1104 2.4397,-0.7204 4.4358,-1.681 4.4358,-2.1347 0,-0.4536 1.551,-1.3857 3.4467,-2.0712 1.8958,-0.6855 3.1719,-1.6911 2.836,-2.2347 -0.3379,-0.5467 0.023,-0.7449 0.8085,-0.4436 1.5956,0.6122 4.1671,-1.6131 3.0987,-2.6816 -0.3795,-0.3794 -0.2399,-0.5809 0.3101,-0.4478 1.4458,0.35 4.5447,-1.0863 8.0944,-3.7518 1.7019,-1.278 3.6409,-2.3236 4.309,-2.3236 0.668,0 0.9397,-0.4449 0.6037,-0.9886 -0.3504,-0.5668 0.051,-0.7345 0.9409,-0.393 0.8536,0.3276 1.552,0.097 1.552,-0.5114 0,-0.6089 0.6891,-1.107 1.5314,-1.107 0.8422,0 1.7795,-0.6466 2.0827,-1.4369 0.3033,-0.7902 1.135,-1.2129 1.8482,-0.9392 0.7133,0.2737 2.2033,-0.6547 3.3112,-2.0631 1.1079,-1.4085 2.7636,-2.5608 3.6794,-2.5608 1.066,0 1.3949,-0.4498 0.9141,-1.25 -0.4376,-0.72852 0.035,-0.62422 1.133,0.25 1.0361,0.825 1.594,1.01518 1.2396,0.42262 -0.3775,-0.63134 2.1132,-2.49435 6.0163,-4.5 3.6634,-1.88244 7.2741,-3.98512 8.0238,-4.67262 0.7497,-0.6875 2.006,-1.25 2.7917,-1.25 0.7857,0 1.4286,-0.34015 1.4286,-0.75589 0,-0.41574 1.4625,-1.34927 3.25,-2.07452 5.0695,-2.05685 6.9498,-2.99828 11.25,-5.63251 2.2,-1.34768 4.814,-2.46986 5.809,-2.49372 1.1098,-0.0266 1.5325,-0.49077 1.0936,-1.20089 -0.4901,-0.79309 -0.036,-0.97999 1.441,-0.59362 1.186,0.31014 2.1564,0.1646 2.1564,-0.32343 0,-0.48803 1.125,-1.16968 2.5,-1.51479 1.375,-0.3451 2.5,-1.02867 2.5,-1.51905 0,-0.49037 0.5335,-0.89159 1.1855,-0.89159 0.6521,0 2.1403,-0.89692 3.3072,-1.99316 1.1669,-1.09624 6.4901,-4.16458 11.8293,-6.81854 5.3392,-2.65396 9.3771,-5.15582 8.9733,-5.55969 -0.4039,-0.40387 -0.019,-0.45965 0.8562,-0.12395 0.8749,0.3357 2.2111,0.022 2.9696,-0.69715 0.7584,-0.71913 2.601,-1.93783 4.0948,-2.70822 1.4937,-0.7704 2.5034,-1.74446 2.2437,-2.16459 -0.7567,-1.22445 1.8773,-1.74836 3.8047,-0.75675 0.9703,0.49923 1.6864,0.55093 1.5912,0.11487 -0.3691,-1.69115 1.4376,-4.29435 3.0015,-4.32462 0.9036,-0.0175 2.4968,-0.67808 3.5403,-1.46797 1.0435,-0.78989 2.3506,-1.15605 2.9045,-0.81369 0.554,0.34236 0.7396,0.18952 0.4126,-0.33965 -0.5605,-0.90691 3.5852,-4.70145 5.432,-4.97189 0.4695,-0.0688 1.3036,-0.18125 1.8536,-0.25 0.55,-0.0688 1,-0.85246 1,-1.74158 0,-1.18402 0.6672,-1.48902 2.4936,-1.13988 1.4464,0.27648 2.9836,-0.11366 3.6603,-0.92893 0.6416,-0.7731 1.8331,-1.14985 2.6478,-0.83723 1.277,0.49006 1.2894,0.33204 0.09,-1.14645 -1.0035,-1.23662 -1.0317,-1.4985 -0.1014,-0.93907 0.7562,0.45467 3.3611,-0.30707 6.2933,-1.8403 2.7518,-1.43885 5.4449,-2.34312 5.9847,-2.00949 0.5398,0.33362 0.8578,0.0106 0.7067,-0.71774 -0.152,-0.73245 0.5025,-1.26306 1.4645,-1.18723 0.9565,0.0754 1.5263,-0.20731 1.2662,-0.62825 -0.2602,-0.42094 0.9446,-1.04887 2.6772,-1.39539 1.7327,-0.34653 4.7274,-1.83297 6.6549,-3.30319 1.9276,-1.47022 3.1385,-2.08053 2.6908,-1.35623 -0.7879,1.2749 4.5309,-2.16849 7.2661,-4.70404 0.7416,-0.6875 1.9361,-1.25 2.6545,-1.25 0.7184,0 1.8833,-0.69548 2.5888,-1.54551 0.7054,-0.85003 1.8212,-1.33884 2.4795,-1.08624 0.6582,0.2526 2.4986,-0.39575 4.0898,-1.44077 1.6382,-1.07593 3.7063,-1.64266 4.7681,-1.30662 1.2243,0.3874 1.6377,0.20907 1.191,-0.51373 -0.3913,-0.63318 2e-4,-1.10713 0.9146,-1.10713 0.8794,0 3.381,-0.90915 5.5591,-2.02032 2.8223,-1.43987 3.9688,-1.65535 3.9905,-0.75 0.018,0.75215 0.4367,0.57343 1.0265,-0.43815 1.7093,-2.9319 4.6292,-0.34209 5.3086,4.70847 0.074,0.55 0.6595,1 1.3012,1 0.6416,0 1.5041,0.3375 1.9166,0.75 0.4125,0.4125 1.71,0.75 2.8834,0.75 1.1733,0 2.7,0.5625 3.3926,1.25 1.0101,1.00273 1.115,0.87137 0.53,-0.66404 -0.4733,-1.24242 -0.3579,-1.68462 0.3288,-1.26021 1.1284,0.69739 2.0122,-3.36163 1.4965,-6.87325 -0.3352,-2.28314 -6.8819,-9.84696 -9.2146,-10.6463 -1.2876,-0.44121 -1.249,-0.79716 0.2722,-2.51342 1.5608,-1.76087 1.6205,-2.45268 0.5,-5.79853 -0.6997,-2.08951 -2.0836,-4.29302 -3.0754,-4.89668 -1.5032,-0.91492 -2.3791,-0.47353 -5.2635,2.65243 -3.2697,3.54357 -7.3116,5.25098 -5.9182,2.5 0.3483,-0.6875 0.037,-0.56563 -0.6909,0.27082 -1.329,1.52631 -5.7394,4.06451 -17.8242,10.25791 -3.575,1.83216 -7.6609,4.09555 -9.0798,5.02974 -1.4189,0.9342 -2.8814,1.39697 -3.25,1.02837 -0.3686,-0.36859 -0.6702,-0.0702 -0.6702,0.66316 0,0.73333 -0.2786,1.05476 -0.6191,0.71429 -0.3404,-0.34048 -1.2767,0.0387 -2.0806,0.84252 -0.8038,0.80386 -1.8753,1.20588 -2.3809,0.89336 -0.5057,-0.31251 -0.9194,-0.1032 -0.9194,0.46513 0,1.39326 -5.543,4.18852 -6.5336,3.29482 -0.4329,-0.39057 -0.4834,-0.18002 -0.1122,0.46788 0.558,0.97402 -1.8106,2.42247 -4.3542,2.66269 -0.275,0.026 -1.3842,0.87098 -2.4649,1.87779 -1.0807,1.00682 -2.5666,1.59969 -3.3019,1.3175 -0.7354,-0.28219 -1.099,-0.12788 -0.8081,0.3429 0.5088,0.82316 -15.8178,9.56207 -17.9816,9.62478 -0.581,0.0168 -3.4404,1.74338 -6.3543,3.83675 -2.9138,2.09337 -4.9993,3.32316 -4.6345,2.73286 1.0119,-1.63724 0.099,-1.28819 -2.4794,0.94817 -1.7929,1.55497 -2.517,1.72804 -3.1377,0.75 -0.5972,-0.94094 -0.811,-0.84124 -0.8223,0.38354 -0.014,1.5341 -6.8949,6.34183 -10.0747,7.03942 -0.7661,0.16808 -2.0025,0.87224 -2.7474,1.56479 -0.745,0.69256 -1.7682,1.0035 -2.2738,0.69098 -0.5057,-0.31251 -0.9194,-0.1032 -0.9194,0.46513 0,1.32891 -5.5351,4.2163 -6.4084,3.34297 -0.3641,-0.36408 -1.8175,0.58423 -3.2298,2.10734 -1.4634,1.57816 -3.1911,2.53015 -4.0168,2.2133 -0.9245,-0.35476 -1.1897,-0.13669 -0.7329,0.60248 0.4825,0.78072 0.1564,0.94376 -1,0.5 -1.0211,-0.39181 -1.4681,-0.25738 -1.1039,0.33194 0.5748,0.92996 -4.1255,3.49969 -5.7582,3.14815 -0.4125,-0.0888 -0.75,0.24785 -0.75,0.74813 0,1.3583 -14.5615,9.09039 -17.1196,9.09039 -1.2176,0 -1.9154,0.29838 -1.5507,0.66308 0.7726,0.7726 -2.5772,2.91273 -14.3297,9.15507 -4.675,2.48312 -10.2043,5.58107 -12.2872,6.88434 -2.083,1.30327 -4.29,2.05883 -4.9045,1.67904 -0.6145,-0.3798 -0.8591,-0.27265 -0.5434,0.2381 0.3157,0.51075 -1.2439,1.97486 -3.4657,3.25357 -2.2475,1.29345 -3.693,1.7264 -3.2582,0.97587 0.4298,-0.74198 -0.3828,-0.28941 -1.8057,1.00571 -1.5282,1.39082 -3.0902,2.04395 -3.8158,1.59549 -0.8438,-0.52152 -0.9722,-0.34455 -0.41,0.56517 0.5911,0.95646 0.3651,1.15044 -0.8134,0.69818 -0.8977,-0.34444 -1.941,-0.12639 -2.3186,0.48457 -0.4157,0.67266 -0.2311,0.82938 0.468,0.39731 0.635,-0.39244 1.1545,-0.46955 1.1545,-0.17135 0,0.73532 -10.3074,6.0273 -11.25,5.7759 -0.4125,-0.11002 -0.75,0.17773 -0.75,0.63944 0,0.8333 -3.6854,2.84402 -5.3882,2.93972 -0.4885,0.028 -1.1635,0.4805 -1.5,1.0067 -0.3365,0.5262 -3.0868,2.2292 -6.1118,3.7845 -3.025,1.5553 -5.725,3.0999 -6,3.4326 -0.275,0.3326 -3.425,2.1026 -7,3.9333 -3.575,1.8307 -7.8188,4.2575 -9.4306,5.3928 -1.7837,1.2564 -2.5969,1.4981 -2.0781,0.6176 0.5875,-0.997 0.2545,-0.9243 -1.0713,0.2337 -1.8597,1.6245 -6.3727,3.7161 -7.4435,3.4498 -0.2879,-0.072 -1.6221,0.8933 -2.9649,2.1443 -1.3428,1.251 -3.0431,2.0437 -3.7784,1.7615 -0.8274,-0.3175 -1.0641,-0.071 -0.6211,0.6454 0.4825,0.7807 0.1564,0.9437 -1,0.5 -1.0193,-0.3911 -1.4679,-0.2571 -1.105,0.3301 0.5498,0.8897 -0.772,1.4204 -2.7571,1.1069 -0.4125,-0.065 -0.75,0.3582 -0.75,0.9406 0,0.5825 -0.45,0.7809 -1,0.441 -0.55,-0.3399 -1,-0.163 -1,0.3932 0,0.5562 -1.1978,-0.099 -2.6618,-1.4555 -2.3521,-2.1799 -2.9046,-2.3111 -4.75,-1.128 -1.1485,0.7363 -3.2264,3.6922 -4.6176,6.5685 -1.3911,2.8764 -2.8774,4.8817 -3.3028,4.4563 -0.4254,-0.4255 -0.4766,3e-4 -0.1137,0.946 0.3629,0.9457 0.2581,1.7195 -0.2328,1.7195 -0.491,0 -0.9602,0.7875 -1.0426,1.75 -0.082,0.9625 -0.4076,2.875 -0.7226,4.25 -0.3755,1.6394 0.045,3.1885 1.2205,4.5 z"
       id="path3452" />
  </g>
</svg>
