<?xml version="1.0" encoding="UTF-8" standalone="no"?>
<!-- Created with Inkscape (http://www.inkscape.org/) -->

<svg
   xmlns:dc="http://purl.org/dc/elements/1.1/"
   xmlns:cc="http://creativecommons.org/ns#"
   xmlns:rdf="http://www.w3.org/1999/02/22-rdf-syntax-ns#"
   xmlns:svg="http://www.w3.org/2000/svg"
   xmlns="http://www.w3.org/2000/svg"
   xmlns:sodipodi="http://sodipodi.sourceforge.net/DTD/sodipodi-0.dtd"
   xmlns:inkscape="http://www.inkscape.org/namespaces/inkscape"
   width="46.269772"
   height="77.798851"
   id="svg3568"
   version="1.1"
   inkscape:version="0.48.5 r10040"
   sodipodi:docname="normal-steering_wheel.svg">
  <defs
     id="defs3570" />
  <sodipodi:namedview
     id="base"
     pagecolor="#ffffff"
     bordercolor="#666666"
     borderopacity="1.0"
     inkscape:pageopacity="0.0"
     inkscape:pageshadow="2"
     inkscape:zoom="0.35"
     inkscape:cx="-110.43654"
     inkscape:cy="-83.957718"
     inkscape:document-units="px"
     inkscape:current-layer="layer1"
     showgrid="false"
     inkscape:window-width="878"
     inkscape:window-height="743"
     inkscape:window-x="0"
     inkscape:window-y="22"
     inkscape:window-maximized="0"
     fit-margin-top="0"
     fit-margin-left="0"
     fit-margin-right="0"
     fit-margin-bottom="0" />
  <metadata
     id="metadata3573">
    <rdf:RDF>
      <cc:Work
         rdf:about="">
        <dc:format>image/svg+xml</dc:format>
        <dc:type
           rdf:resource="http://purl.org/dc/dcmitype/StillImage" />
        <dc:title />
      </cc:Work>
    </rdf:RDF>
  </metadata>
  <g
     inkscape:label="Layer 1"
     inkscape:groupmode="layer"
     id="layer1"
     transform="translate(-485.43654,-370.60561)">
    <path
       inkscape:connector-curvature="0"
       style="fill:#000000"
       d="m 485.94727,417.71679 c 0.4532,3.025 0.9573,10.97046 1.12,17.65658 0.1628,6.68611 0.521,12.10946 0.796,12.05187 0.275,-0.0576 1.5661,0.25679 2.8692,0.69862 1.5144,0.51352 3.2783,0.31675 4.8892,-0.5454 l 2.5202,-1.34873 -0.6062,-13.00646 c -0.3334,-7.15357 -1.0159,-14.38634 -1.5168,-16.07284 -1.3618,-4.58531 -1.2636,-22.8087 0.1733,-32.18364 0.6955,-4.5375 0.8794,-8.25 0.4088,-8.25 -0.4707,0 -0.6195,-0.38218 -0.3308,-0.84929 0.2886,-0.4671 -0.4723,-1.3263 -1.691,-1.90932 -3.2322,-1.54622 -6.2658,-2.458 -5.4441,-1.63625 0.391,0.39096 0.2824,1.22704 -0.2412,1.85795 -2.3787,2.86626 -4.4516,33.49291 -2.9466,43.53691 z"
       id="path3472" />
    <path
       inkscape:connector-curvature="0"
       style="fill:#000000"
       d="m 509.55797,431.05134 c 0.2322,-1.191 1.1174,-2.43222 1.9671,-2.75827 1.2975,-0.49791 1.4759,0.19986 1.1141,4.35791 -0.2681,3.08152 -0.041,4.87808 0.6012,4.75828 0.5676,-0.10586 1.0524,0.46626 1.0774,1.27137 0.067,2.16225 5.7377,1.94933 7.397,-0.27774 1.0131,-1.35976 1.3268,-5.7895 1.2529,-17.69279 -0.063,-10.07474 0.2836,-16.11509 0.9471,-16.52512 0.7119,-0.43999 0.6699,-1.09893 -0.1315,-2.06463 -0.9689,-1.16745 -0.6679,-1.15389 1.7014,0.0766 1.7176,0.89206 3.0139,1.09419 3.214,0.50118 0.1845,-0.5466 0.7159,-0.75868 1.1809,-0.47128 0.465,0.2874 1.1711,-0.004 1.5691,-0.64828 0.4827,-0.78098 0.2872,-0.90113 -0.587,-0.36083 -1.0285,0.63568 -1.1786,-0.003 -0.6972,-2.9694 0.3373,-2.07866 0.325,-3.49113 -0.027,-3.13882 -0.3523,0.3523 -1.1959,-0.68031 -1.8747,-2.2947 -0.9312,-2.21455 -0.9836,-4.8108 -0.2135,-10.57387 0.9054,-6.77553 0.8221,-7.85812 -0.7375,-9.5814 -4.6925,-5.18519 -8.4237,-0.43114 -10.1121,12.88421 -0.6606,5.20933 -1.6267,9.74185 -2.147,10.07226 -1.3441,0.85362 -2.2041,7.89845 -2.4949,20.43708 -0.2098,9.04458 -0.536,10.99561 -1.9728,11.79969 -0.9468,0.52985 -1.6601,1.9535 -1.5852,3.16367 l 0.1362,2.20031 0.4223,-2.16545 z"
       id="path3470" />
  </g>
</svg>
