<?xml version="1.0" encoding="UTF-8" standalone="no"?>
<!-- Created with Inkscape (http://www.inkscape.org/) -->

<svg
   xmlns:dc="http://purl.org/dc/elements/1.1/"
   xmlns:cc="http://creativecommons.org/ns#"
   xmlns:rdf="http://www.w3.org/1999/02/22-rdf-syntax-ns#"
   xmlns:svg="http://www.w3.org/2000/svg"
   xmlns="http://www.w3.org/2000/svg"
   xmlns:sodipodi="http://sodipodi.sourceforge.net/DTD/sodipodi-0.dtd"
   xmlns:inkscape="http://www.inkscape.org/namespaces/inkscape"
   width="75.413902"
   height="48.19014"
   id="svg3568"
   version="1.1"
   inkscape:version="0.48.5 r10040"
   sodipodi:docname="normal-blinker_right.svg">
  <defs
     id="defs3570" />
  <sodipodi:namedview
     id="base"
     pagecolor="#ffffff"
     bordercolor="#666666"
     borderopacity="1.0"
     inkscape:pageopacity="0.0"
     inkscape:pageshadow="2"
     inkscape:zoom="0.35"
     inkscape:cx="295.56409"
     inkscape:cy="6.9522114"
     inkscape:document-units="px"
     inkscape:current-layer="layer1"
     showgrid="false"
     inkscape:window-width="878"
     inkscape:window-height="743"
     inkscape:window-x="0"
     inkscape:window-y="22"
     inkscape:window-maximized="0"
     fit-margin-top="0"
     fit-margin-left="0"
     fit-margin-right="0"
     fit-margin-bottom="0" />
  <metadata
     id="metadata3573">
    <rdf:RDF>
      <cc:Work
         rdf:about="">
        <dc:format>image/svg+xml</dc:format>
        <dc:type
           rdf:resource="http://purl.org/dc/dcmitype/StillImage" />
        <dc:title />
      </cc:Work>
    </rdf:RDF>
  </metadata>
  <g
     inkscape:label="Layer 1"
     inkscape:groupmode="layer"
     id="layer1"
     transform="translate(-79.435909,-491.12425)">
    <path
       inkscape:connector-curvature="0"
       style="fill:#000000"
       d="m 80.242137,526.68944 c 0.374,1.0109 1.1938,2.1556 1.8218,2.5438 1.5364,0.9495 22.290003,1.0547 23.801403,0.1206 0.6583,-0.4069 1.1969,-0.2773 1.1969,0.2879 0,0.5652 0.7488,0.7403 1.664,0.3891 1.2175,-0.4672 1.4659,-0.2575 0.9259,0.7814 -0.406,0.7809 -0.03,0.5464 0.8359,-0.5212 1.0396,-1.2819 1.5742,-1.48 1.5742,-0.5834 0,0.7468 0.2961,1.0617 0.658,0.6998 0.981,-0.981 3.4231,1.3845 2.6765,2.5925 -0.3914,0.6332 -0.1535,0.7384 0.6071,0.2683 0.8646,-0.5344 1.1349,-0.1962 0.8757,1.0955 -0.4943,2.4627 3.2192,5.3635 6.2751,4.9018 3.8544,-0.5823 6.9076,-1.7044 6.9076,-2.5387 0,-0.782 6.4522,-2.4869 8.75,-2.312 1.1651,0.089 1.6809,-1.0656 1.3436,-3.007 -0.079,-0.4534 0.318,-0.5394 0.8816,-0.191 0.5637,0.3483 1.0248,0.1866 1.0248,-0.3595 0,-0.546 1.125,-0.7888 2.5,-0.5394 1.375,0.2493 2.5,0.01 2.5,-0.5349 0,-0.5435 0.7488,-0.7008 1.664,-0.3496 1.0687,0.4101 1.4213,0.2457 0.9855,-0.4594 -0.3793,-0.6137 0.2104,-1.38 1.337,-1.7376 4.7249,-1.4996 5.1356,-8.3823 0.7219,-12.0962 -1.5612,-1.3137 -2.5577,-2.8429 -2.2145,-3.3983 0.3433,-0.5554 0.1562,-1.0098 -0.4158,-1.0098 -0.572,0 -1.3223,-1.125 -1.6675,-2.5 -0.3451,-1.375 -0.9662,-2.5 -1.3803,-2.5 -0.4141,0 -0.5367,-1.1315 -0.2723,-2.5144 0.3764,-1.969 0.1431,-2.3849 -1.0755,-1.9172 -0.9622,0.3692 -1.3148,1.2336 -0.9237,2.2644 0.3479,0.9169 -0.5525,0.3941 -2.001,-1.1618 -1.4485,-1.556 -2.912,-4.0968 -3.2524,-5.6463 -0.8825,-4.0181 -3.6941,-6.2664 -6.8468,-5.4752 -3.2796,0.8232 -4.0572,1.8683 -5.7329,7.7051 -1.3558,4.7223 -1.3739,4.7375 -2.6773,2.25 -0.7218,-1.3775 -1.8604,-2.5421 -2.5303,-2.5879 -0.67,-0.046 -2.2097,-0.1941 -3.4217,-0.3295 -1.2274,-0.1371 -1.9366,0.1859 -1.6009,0.7292 0.3682,0.5958 -0.4042,0.7226 -1.9851,0.3258 -1.4233,-0.3573 -2.8656,-0.2001 -3.2051,0.3491 -0.643,1.0405 -7.4998,0.9585 -7.5033,-0.09 0,-1.4214 -9.432604,-0.033 -10.597804,1.5602 -1.1229,1.5357 -1.2806,1.5028 -1.8823,-0.3929 -0.3612,-1.1379 -1.0764,-2.1252 -1.589299,-2.194 -0.5129,-0.069 -1.4951,-0.1881 -2.1826,-0.2651 -2.8249,-0.3168 -5.6601,4.2101 -6.6072,10.5496 -1.0398,6.9596 -1.0232,14.9316 0.037,17.7978 z"
       id="path3438" />
  </g>
</svg>
