<?xml version="1.0" encoding="UTF-8" standalone="no"?>
<!-- Created with Inkscape (http://www.inkscape.org/) -->

<svg
   xmlns:dc="http://purl.org/dc/elements/1.1/"
   xmlns:cc="http://creativecommons.org/ns#"
   xmlns:rdf="http://www.w3.org/1999/02/22-rdf-syntax-ns#"
   xmlns:svg="http://www.w3.org/2000/svg"
   xmlns="http://www.w3.org/2000/svg"
   xmlns:sodipodi="http://sodipodi.sourceforge.net/DTD/sodipodi-0.dtd"
   xmlns:inkscape="http://www.inkscape.org/namespaces/inkscape"
   width="744.09448819"
   height="1052.3622047"
   id="svg3568"
   version="1.1"
   inkscape:version="0.48.5 r10040"
   sodipodi:docname="normal-needle-speed.svg">
  <defs
     id="defs3570" />
  <sodipodi:namedview
     id="base"
     pagecolor="#ffffff"
     bordercolor="#666666"
     borderopacity="1.0"
     inkscape:pageopacity="0.0"
     inkscape:pageshadow="2"
     inkscape:zoom="0.35"
     inkscape:cx="375"
     inkscape:cy="520"
     inkscape:document-units="px"
     inkscape:current-layer="layer1"
     showgrid="false"
     inkscape:window-width="878"
     inkscape:window-height="883"
     inkscape:window-x="0"
     inkscape:window-y="15"
     inkscape:window-maximized="0" />
  <metadata
     id="metadata3573">
    <rdf:RDF>
      <cc:Work
         rdf:about="">
        <dc:format>image/svg+xml</dc:format>
        <dc:type
           rdf:resource="http://purl.org/dc/dcmitype/StillImage" />
        <dc:title></dc:title>
      </cc:Work>
    </rdf:RDF>
  </metadata>
  <g
     inkscape:label="Layer 1"
     inkscape:groupmode="layer"
     id="layer1">
    <path
       inkscape:connector-curvature="0"
       style="fill:#000000"
       d="m 394.48591,708.10878 c 0.5368,0.5367 2.4059,0.9759 4.1536,0.9759 1.7476,0 3.7547,0.6955 4.4602,1.5455 0.7054,0.85 1.9089,1.3052 2.6744,1.0115 0.7654,-0.2938 1.1167,-0.089 0.7807,0.4545 -0.336,0.5437 -0.1344,0.9885 0.4481,0.9885 0.5824,0 1.059,-0.7016 1.059,-1.559 0,-0.8575 0.375,-1.3273 0.8333,-1.044 0.4584,0.2833 0.9513,-0.028 1.0953,-0.691 0.5643,-2.5974 1.6064,-49.15145 1.191,-53.206 -0.3748,-3.65952 0.4751,-20.03524 1.0917,-21.03291 0.5632,-0.91121 1.6723,-17.39882 1.9486,-28.96709 0.066,-2.75 0.5514,-5.8418 1.0795,-6.87068 0.7084,-1.38013 0.6456,-1.67627 -0.2394,-1.12932 -0.9259,0.57224 -0.9237,0.22599 0.01,-1.51785 0.8226,-1.5372 1.0801,-6.02818 0.8055,-14.05253 -0.222,-6.48633 -0.1587,-11.64177 0.1407,-11.45654 0.7717,0.47758 1.1657,-20.01403 0.7635,-39.71793 -0.1561,-7.64635 -0.57,-10.74633 -1.4355,-10.75 -0.9288,-0.004 -1.1182,-4.85275 -0.8015,-20.51734 0.2281,-11.2817 0.7324,-21.02623 1.1207,-21.65451 0.4497,-0.72756 0.2604,-0.86692 -0.5213,-0.38382 -0.949,0.58656 -1.1558,-1.83913 -0.9121,-10.70099 0.2269,-8.25049 -0.044,-11.89232 -0.9676,-13.00514 -1.0138,-1.22157 -1.0564,-3.36736 -0.2032,-10.23389 0.6455,-5.19405 0.8701,-17.63316 0.5585,-30.92965 -0.4803,-20.49488 -0.3792,-22.39383 1.2869,-24.18219 0.9944,-1.06742 1.6654,-2.38106 1.491,-2.91919 -0.1743,-0.53814 0.016,-8.55906 0.4239,-17.82426 0.4075,-9.26521 0.4039,-17.05399 -0.01,-17.3084 -0.4119,-0.2544 -0.7245,-7.64744 -0.6946,-16.42897 0.041,-12.08196 0.3449,-15.79974 1.2489,-15.28129 0.6887,0.39493 0.8417,0.29954 0.3614,-0.22518 -0.4584,-0.50068 -1.1334,-0.94702 -1.5,-0.99186 -0.3667,-0.0448 -1.91,-0.4326 -3.4297,-0.86167 -1.6929,-0.47801 -3.2777,-0.35297 -4.092,0.32286 -0.731,0.60664 -1.5126,0.91974 -1.737,0.69577 -0.2244,-0.22398 -0.4723,0.67017 -0.5509,1.98699 -0.078,1.31682 -1.3804,3.86501 -2.893,5.66265 l -2.7502,3.26843 0.6035,13.35321 c 0.332,7.34426 1.0714,13.91687 1.6432,14.6058 1.0125,1.22003 0.652,10.01573 -0.7193,17.54749 -0.3505,1.925 -0.7603,10.025 -0.9108,18 -0.8815,46.72281 -1.2174,56.39302 -2.2528,64.85694 -1.0852,8.88361 -0.8307,13.14306 0.7868,13.14306 1.6705,0 1.9985,12.23403 0.8581,32 -0.4284,7.425 -0.9997,17.325 -1.2696,22 -0.7972,13.80724 -2.3766,27.98769 -3.3198,29.8062 -2.7032,5.21219 -2.0415,28.55863 0.9759,34.43023 1.2735,2.478 1.1092,6.21643 -0.642,14.61049 -0.843,4.04081 -1.4809,9.21581 -1.4176,11.5 0.063,2.2842 0.084,9.9381 0.046,17.00869 -0.038,7.07058 0.4383,14.87132 1.0586,17.33497 0.8378,3.32727 0.8371,5.80783 0,9.6444 -0.6219,2.84076 -1.2222,8.85014 -1.334,13.35418 -0.1118,4.50403 -0.4969,8.00768 -0.8558,7.78588 -1.0603,-0.65534 -0.6029,26.48176 0.4644,27.54906 z"
       id="path3478" />
  </g>
</svg>
