<?xml version="1.0" encoding="UTF-8" standalone="no"?>
<!-- Created with Inkscape (http://www.inkscape.org/) -->

<svg
   xmlns:dc="http://purl.org/dc/elements/1.1/"
   xmlns:cc="http://creativecommons.org/ns#"
   xmlns:rdf="http://www.w3.org/1999/02/22-rdf-syntax-ns#"
   xmlns:svg="http://www.w3.org/2000/svg"
   xmlns="http://www.w3.org/2000/svg"
   xmlns:sodipodi="http://sodipodi.sourceforge.net/DTD/sodipodi-0.dtd"
   xmlns:inkscape="http://www.inkscape.org/namespaces/inkscape"
   width="204.01826"
   height="608.50952"
   id="svg3142"
   version="1.1"
   inkscape:version="0.48.5 r10040"
   sodipodi:docname="special-rpm-4.svg">
  <defs
     id="defs3144" />
  <sodipodi:namedview
     id="base"
     pagecolor="#ffffff"
     bordercolor="#666666"
     borderopacity="1.0"
     inkscape:pageopacity="0.0"
     inkscape:pageshadow="2"
     inkscape:zoom="0.9899495"
     inkscape:cx="381.71348"
     inkscape:cy="262.40588"
     inkscape:document-units="px"
     showgrid="false"
     fit-margin-top="0"
     fit-margin-left="0"
     fit-margin-right="0"
     fit-margin-bottom="0"
     inkscape:window-width="1280"
     inkscape:window-height="744"
     inkscape:window-x="0"
     inkscape:window-y="22"
     inkscape:window-maximized="1"
     inkscape:current-layer="svg3142" />
  <metadata
     id="metadata3147">
    <rdf:RDF>
      <cc:Work
         rdf:about="">
        <dc:format>image/svg+xml</dc:format>
        <dc:type
           rdf:resource="http://purl.org/dc/dcmitype/StillImage" />
        <dc:title></dc:title>
      </cc:Work>
    </rdf:RDF>
  </metadata>
  <path
     inkscape:connector-curvature="0"
     style="fill:#000000"
     d="m 3.7213572,341.11493 c -0.24203,0.016 -0.74664,-0.4027 -1.12135,-0.9296 -0.3747,-0.5269 -0.20571,-0.9888 0.37553,-1.0264 0.58125,-0.038 1.08585,0.3808 1.12135,0.9296 0.0355,0.5489 -0.13349,1.0107 -0.37553,1.0264 z"
     id="path3034" />
  <path
     inkscape:connector-curvature="0"
     style="fill:#000000"
     d="m 45.679377,285.79173 c -0.57079,-0.3037 -1.00705,-0.077 -0.96946,0.5046 0.0376,0.5812 0.51741,1.0277 1.06627,0.9922 0.54885,-0.036 0.9851,-0.2625 0.96945,-0.5046 -0.0156,-0.242 -0.49547,-0.6885 -1.06626,-0.9922 z"
     id="path3030" />
  <path
     inkscape:connector-curvature="0"
     style="fill:#ff6600"
     d="m 203.14517,245.84882 c -1.0871,-5.44119 -2.6472,-19.5449 -3.4672,-31.34157 -1.0648,-15.3189 -2.0599,-23.41636 -3.4827,-28.33431 -6.6526,-22.99558 -7.37826,-24.13154 -8.51856,-39.36182 -17.51794,0.57762 -29.1418,0.51431 -32.15991,0.41387 1.0337,11.46663 4.08727,23.77784 5.37887,23.69431 0.45,-0.0291 0.7445,0.29006 0.6544,0.70924 -0.09,0.41918 0.4964,1.79143 1.3029,3.04945 1.2189,1.90139 1.2479,2.44642 0.1708,3.2304 -0.9899,0.7209 -0.8582,0.91842 0.5591,0.83849 1.2627,-0.0712 1.6964,0.40167 1.3599,1.48258 -0.2829,0.90879 -0.09,1.29972 0.4516,0.91467 0.52,-0.36985 0.9276,0.14405 0.9057,1.14199 -0.077,3.48729 0.5173,5.3991 1.4678,4.72321 0.5269,-0.37471 1.0574,0.12804 1.1788,1.11723 0.1211,0.98921 0.4519,3.58734 0.7343,5.77367 0.2823,2.18634 0.039,4.32525 -0.5404,4.75314 -0.7517,0.55498 -0.6756,1.11018 0.2656,1.9369 1.5895,1.39643 2.2161,9.69391 1.1553,15.29897 -0.7513,3.97028 -1.1057,6.76721 -1.1918,9.40555 -0.024,0.73611 -0.5772,1.03027 -1.257,0.66847 -0.8219,-0.43728 -0.9681,-0.11085 -0.4527,1.01016 0.4816,1.04727 0.201,1.914 -0.7633,2.35738 -0.8387,0.38565 -1.0867,0.94829 -0.551,1.25031 0.5902,0.33276 0.5889,3.14054 0,7.12591 -0.5375,3.61723 -1.0824,7.87171 -1.211,9.4544 -0.1285,1.5827 -0.7126,3.53697 -1.2978,4.34281 -0.5853,0.80586 -0.6948,1.44131 -0.2434,1.41211 0.4514,-0.0292 0.3167,0.52065 -0.2993,1.22187 -0.6161,0.70122 -1.0827,1.74602 -1.0371,2.32177 0.047,0.57565 0.5241,0.34189 1.063,-0.51969 0.815,-1.30282 0.9001,-1.25236 0.5051,0.29982 -0.2612,1.02648 -0.4029,2.97875 -0.3149,4.33838 0.097,1.49274 -0.2775,2.23936 -0.9442,1.88464 -0.7478,-0.39791 -0.8117,0.557 -0.1981,2.95995 0.5012,1.96248 0.5,3.57361 0,3.60612 -0.4998,0.0323 -0.6141,1.66989 -0.2542,3.63905 0.4277,2.33959 0.1989,3.91175 -0.6594,4.5367 -0.9817,0.71466 -0.9934,0.93958 -0.046,0.88979 0.8728,-0.0459 1.1131,0.77493 0.7718,2.63672 -0.4656,2.53987 -0.5136,3.74196 -0.4563,11.44661 0.014,1.83354 -0.4107,2.83329 -1.0566,2.48959 -0.7068,-0.37608 -0.7823,0.35181 -0.2185,2.10863 0.6177,1.92546 0.77074,2.50065 -0.3528,2.03721 0,0 31.30817,1.84432 41.5524,1.74599 4.097,-14.14615 4.7631,-38.39322 1.5031,-54.71107 z"
     id="path3104"
     sodipodi:nodetypes="cssccscccscccccccccccccccccscccccccccccsccccccc" />
</svg>
