<?xml version="1.0" encoding="UTF-8" standalone="no"?>
<!-- Created with Inkscape (http://www.inkscape.org/) -->

<svg
   xmlns:dc="http://purl.org/dc/elements/1.1/"
   xmlns:cc="http://creativecommons.org/ns#"
   xmlns:rdf="http://www.w3.org/1999/02/22-rdf-syntax-ns#"
   xmlns:svg="http://www.w3.org/2000/svg"
   xmlns="http://www.w3.org/2000/svg"
   xmlns:sodipodi="http://sodipodi.sourceforge.net/DTD/sodipodi-0.dtd"
   xmlns:inkscape="http://www.inkscape.org/namespaces/inkscape"
   width="181.66614"
   height="587.40063"
   id="svg3142"
   version="1.1"
   inkscape:version="0.48.5 r10040"
   sodipodi:docname="special-temperature-1.svg">
  <defs
     id="defs3144">
    <clipPath
       clipPathUnits="userSpaceOnUse"
       id="clipPath3132">
      <rect
         style="fill:#0000ff;fill-rule:evenodd;stroke:#000000;stroke-width:1px;stroke-linecap:butt;stroke-linejoin:miter;stroke-opacity:1"
         id="rect3134"
         width="185.86807"
         height="163.64471"
         x="-2.0203052"
         y="1.5121627" />
    </clipPath>
  </defs>
  <sodipodi:namedview
     id="base"
     pagecolor="#ffffff"
     bordercolor="#666666"
     borderopacity="1.0"
     inkscape:pageopacity="0.0"
     inkscape:pageshadow="2"
     inkscape:zoom="0.64"
     inkscape:cx="-256.50644"
     inkscape:cy="272.47688"
     inkscape:document-units="px"
     showgrid="false"
     fit-margin-top="0"
     fit-margin-left="0"
     fit-margin-right="0"
     fit-margin-bottom="0"
     inkscape:window-width="1280"
     inkscape:window-height="744"
     inkscape:window-x="0"
     inkscape:window-y="22"
     inkscape:window-maximized="1"
     inkscape:current-layer="svg3142" />
  <metadata
     id="metadata3147">
    <rdf:RDF>
      <cc:Work
         rdf:about="">
        <dc:format>image/svg+xml</dc:format>
        <dc:type
           rdf:resource="http://purl.org/dc/dcmitype/StillImage" />
        <dc:title />
      </cc:Work>
    </rdf:RDF>
  </metadata>
  <path
     inkscape:connector-curvature="0"
     style="fill:#d40000"
     d="m 36.509521,165.22935 c 1.690909,-3.14831 1.685418,-8.34885 2.440048,-10.59103 2.75919,-8.19812 6.29876,-21.64042 7.91344,-30.05302 4.15112,-21.62744 4.60798,-23.2215 10.24181,-35.735467 1.15006,-2.55454 2.08122,-5.20767 2.06925,-5.89583 -0.0119,-0.68817 0.66145,-1.29539 1.4965,-1.3494 0.83505,-0.054 1.8565,-1.13468 2.26991,-2.4015 0.4134,-1.26682 1.42801,-4.45202 2.25468,-7.07823 0.82667,-2.6262 1.76339,-4.63639 2.0816,-4.46707 0.3182,0.16932 0.57874,-0.44821 0.57896,-1.37227 4.8e-4,-1.95152 6.35611,-20.98545 8.07083,-24.17062 1.48642,-2.76111 5.77801,-15.23877 6.07739,-17.6699 0.12565,-1.02024 0.25516,-2.08219 0.28781,-2.35987 0.0326,-0.27769 0.45371,0.0357 0.93568,0.69633 0.6055,0.83001 1.31707,0.0989 2.30258,-2.36567 0.784437,-1.9618 1.005987,-3.79052 0.49232,-4.06384 -0.51367,-0.27332 -0.78564,-2.03222 -0.60439,-3.90867 0.28496,-2.95028 -0.073,-3.63152 -2.64642,-5.03675 -1.63679,-0.89376 -5.04445,-2.97242 -7.57259,-4.61924 -4.62992,-3.01589996 -8.11762,-3.60652996 -9.82439,-1.66373 -0.58918,0.67065 -2.10729,0.79419 -4.18674,0.34071 -1.79431,-0.39129 -3.30602,-0.51463996 -3.35936,-0.27409 -0.0534,0.24055 -0.13203,0.77784 -0.17486,1.19397 -0.0428,0.41613 -0.99597,2.23841 -2.11807,4.04951 -1.1221,1.81109 -2.00981,3.76259 -1.97268,4.33666 0.0371,0.57407 -0.4706,1.43917 -1.12828,1.92245 -0.65769,0.48329 -1.18276,1.3288 -1.16684,1.87892 0.0302,1.04263 -3.89602,10.90125 -4.71077,11.82868 -0.25668,0.29217 -0.47529,1.09546 -0.48581,1.78507 -0.045,2.95373 -0.24544,3.35297 -1.37995,2.7493 -0.70608,-0.3757 -0.90037,-0.21879 -0.47308,0.38207 0.95829,1.34755 -0.0244,4.39857 -1.21299,3.76613 -0.51098,-0.27189 -0.87507,0.34046 -0.80909,1.36079 0.066,1.02033 -0.30987,2.34444 -0.83525,2.94247 -0.52537,0.59802 -1.07328,1.96373 -1.21757,3.03491 -0.50164,3.72407 -4.46719,12.69688 -5.31434,12.02467 -0.46886,-0.37204 -0.49933,-0.14472 -0.0677,0.50516 0.72901,1.09768 0.27225,3.30166 -2.89859,13.98645 -0.66705,2.24774 -1.77304,3.98485 -2.45777,3.86025 -0.94016,-0.17109 -0.90479,0.13327 0.14454,1.24326 0.7785,0.82351 0.94389,1.49863 0.37613,1.53535 -0.55734,0.036 -1.23569,0.77974 -1.50747,1.65267 -0.33568,1.07817 -0.11319,1.32345 0.69381,0.76486 0.92491,-0.6402 0.94791,-0.48254 0.10387,0.71196 -0.59624,0.84383 -1.64668,4.59956 -2.3343,8.34606 -0.75497,4.11343 -1.67631,6.58509 -2.32585,6.23948 -0.61146,-0.32535 -0.74584,-0.10861 -0.31141,0.5023 0.42031,0.59104 -0.0311,4.41017 -1.0032,8.486927 -0.97206,4.07678 -1.78163,7.86418 -1.79902,8.41646 -0.11534,3.66107 -1.30123,8.50321 -1.99246,8.13541 -0.45497,-0.24209 -0.55591,0.37758 -0.22429,1.37702 0.3316,0.99945 0.0215,2.48568 -0.68909,3.30274 -0.7106,0.81706 -1.7479,3.65701 -2.30512,6.311 -0.55721,2.654 -1.30758,4.84449 -1.6675,4.86777 -0.35991,0.0233 -0.67232,0.83262 -0.69425,1.79855 -0.17111,7.53613 -9.8481389,28.69595 -6.6784626,28.80043 6.7360846,-0.44568 22.2845806,0.23733 29.3187946,-0.0605 z"
     id="path3050"
     clip-path="url(#clipPath3132)"
     sodipodi:nodetypes="csssccsscssccccssssssccscscccssscssscssscssssssccscsscscc" />
</svg>
