<?xml version="1.0" encoding="UTF-8" standalone="no"?>
<!-- Created with Inkscape (http://www.inkscape.org/) -->

<svg
   xmlns:dc="http://purl.org/dc/elements/1.1/"
   xmlns:cc="http://creativecommons.org/ns#"
   xmlns:rdf="http://www.w3.org/1999/02/22-rdf-syntax-ns#"
   xmlns:svg="http://www.w3.org/2000/svg"
   xmlns="http://www.w3.org/2000/svg"
   xmlns:sodipodi="http://sodipodi.sourceforge.net/DTD/sodipodi-0.dtd"
   xmlns:inkscape="http://www.inkscape.org/namespaces/inkscape"
   width="204.32941"
   height="88.143364"
   id="svg3142"
   version="1.1"
   inkscape:version="0.48.3.1 r9886"
   sodipodi:docname="special-blinker_links.svg">
  <defs
     id="defs3144" />
  <sodipodi:namedview
     id="base"
     pagecolor="#ffffff"
     bordercolor="#666666"
     borderopacity="1.0"
     inkscape:pageopacity="0.0"
     inkscape:pageshadow="2"
     inkscape:zoom="0.49497475"
     inkscape:cx="269.42501"
     inkscape:cy="-5.0608866"
     inkscape:document-units="px"
     showgrid="false"
     fit-margin-top="0"
     fit-margin-left="0"
     fit-margin-right="0"
     fit-margin-bottom="0"
     inkscape:window-width="497"
     inkscape:window-height="420"
     inkscape:window-x="1177"
     inkscape:window-y="427"
     inkscape:window-maximized="0"
     inkscape:current-layer="svg3142" />
  <metadata
     id="metadata3147">
    <rdf:RDF>
      <cc:Work
         rdf:about="">
        <dc:format>image/svg+xml</dc:format>
        <dc:type
           rdf:resource="http://purl.org/dc/dcmitype/StillImage" />
        <dc:title></dc:title>
      </cc:Work>
    </rdf:RDF>
  </metadata>
  <path
     inkscape:connector-curvature="0"
     style="fill:#000000"
     d="m 29.892121,63.130155 c -0.24203,0.016 -0.74664,-0.402699 -1.12135,-0.929599 -0.3747,-0.5269 -0.20571,-0.9888 0.37553,-1.0264 0.58125,-0.038 1.08585,0.3808 1.12135,0.9296 0.0355,0.5489 -0.13349,1.0107 -0.37553,1.026399 z"
     id="path3034" />
  <path
     inkscape:connector-curvature="0"
     style="fill:#000000"
     d="m 71.850141,7.8069555 c -0.57079,-0.3037 -1.00705,-0.077 -0.96946,0.5046 0.0376,0.5812 0.51741,1.0277 1.06627,0.9922 0.54885,-0.036 0.9851,-0.2625 0.96945,-0.5046 -0.0156,-0.242 -0.49547,-0.6885 -1.06626,-0.9922 z"
     id="path3030" />
  <path
     inkscape:connector-curvature="0"
     style="fill:#000000"
     d="m 203.05427,44.3986 c -0.6831,-1.0582 -3.9541,-4.4541 -7.2688,-7.5467 -6.6609,-6.214501 -11.3158,-12.2692 -10.5455,-13.7168 0.275,-0.5168 -0.2771,-0.8275 -1.2268,-0.6905 -0.9497,0.1369 -1.6508,-0.3196 -1.5579,-1.0145 0.093,-0.695 -0.4891,-1.221 -1.293,-1.169 -1.7505,0.1132 -3.9712,-3.1214 -3.0423,-4.4314 0.361,-0.5092 0.2813,-0.5792 -0.1771,-0.1556 -1.2478,1.1531 -4.8498,-0.8066 -4.1402,-2.2525 0.3352,-0.6829 0.2689,-0.8912 -0.1474,-0.4627 -0.8058,0.8293 -8.4009,-3.6309005 -16.0716,-9.438 L 152.93287,0 l -2.1896,2.3409 c -1.2044,1.2875 -2.1494,2.9625995 -2.1003,3.7225995 0.049,0.7601 -0.2954,1.1771 -0.7658,0.9268 -0.4704,-0.2503 -0.8048,0.3084 -0.7432,1.2415 0.4963,7.5191995 0.5699,7.4165005 -5.1493,7.2149005 -2.9001,-0.1023 -17.6081,0.136399 -32.6843,0.5304 -23.091805,0.6034 -27.837705,0.471499 -30.116805,-0.8369 -1.488,-0.8543 -3.671,-1.3695 -4.8511,-1.145 -1.1801,0.2245 -3.9294,0.05 -6.1095,-0.3889 -2.1802,-0.4384 -9.3631,-1.1109 -15.9622,-1.4944 -6.599197,-0.3835 -16.098597,-1.344 -21.110097,-2.1344005 -15.0991,-2.3815 -14.3361,-2.3034 -12.6096,-1.291 1.3211,0.7747 1.2713,0.9373 -0.3225,1.0534 -1.0366,0.075 -2.475,-0.5693 -3.1964,-1.4329 -1.0397,-1.2445 -1.4613,-1.2891 -2.032899,-0.2147 -0.451,0.8475 -0.3444,1.0874 0.284499,0.6402 1.1476,-0.8162 2.4823,1.3721005 3.3458,5.4857005 0.3835,1.8262 0.2019,2.6107 -0.5157,2.2289 -0.609,-0.3241 -1.0652,0.063 -1.0137,0.8597 0.052,0.797 -0.5147,1.7288 -1.2583,2.0708 -0.994099,0.457 -1.369599,-0.2201 -1.417999,-2.5568 -0.055,-2.6601 -0.3879,-3.1019 -2.0397,-2.7086 -1.0856003,0.2584 -2.0992003,0.8957 -2.2526003,1.4161 -0.1533,0.520499 -0.8513,1.598 -1.5511,2.3945 -0.6997,0.7965 -1.0165,1.6729 -0.704,1.9474 0.5739,0.5042 -0.9144,19.1781 -1.7987,22.5692 -0.2628,1.0075 -1.2678,3.9122 -2.2335,6.4548 -2.225301,5.8592 -2.470701,14.0494 -0.4899,16.3585 1.4961,1.744 3.0591,1.819 27.7068993,1.3304 9.999,-0.198301 15.304,0.369699 15.3866,1.647199 0.034,0.524001 0.3929,0.8449 0.7977,0.713201 0.4048,-0.1318 3.150297,0.141599 6.101097,0.6075 2.9508,0.4658 6.9147,0.746799 8.8087,0.6243 1.8939,-0.1225 3.4717,0.2123 3.5061,0.7439 0.034,0.5316 0.7013,0.6729 1.4821,0.3138 0.7808,-0.359 3.0867,-0.2196 5.1242,0.309799 2.0376,0.5294 6.8231,0.7131 10.6342,0.4083 6.8389,-0.546899 20.400305,0.504901 28.479505,2.2088 2.2823,0.4813 5.9406,0.6787 8.1297,0.4386 2.1891,-0.2401 7.0341,0.2405 10.7667,1.0682 3.7326,0.8277 7.0768,1.1893 7.4316,0.8037 0.3548,-0.385599 0.4616,1.1454 0.237,3.4023 -0.4302,4.3319 1.742,7.9327 4.9869,8.2666 1.8623,0.1916 13.2075,-6.4385 16.3859,-9.5758 2.1433,-2.1156 2.2293,-2.1323 1.0929,-0.2124 -0.6785,1.1462 0.2124,0.2247 1.9798,-2.0476 1.783,-2.2925 3.7231,-3.8604 4.3584,-3.5224 0.6297,0.3351 1.4359,0.062 1.7915,-0.6058 0.4311,-0.81 0.2286,-0.9178 -0.6075,-0.3232 -0.7506,0.5337 -1.0366,0.4831 -0.7124,-0.1261 0.2979,-0.5599 2.4203,-1.9397 4.7164,-3.0663 6.3481,-3.1145 9.4883,-4.9098 15.2669,-8.7278 2.9071,-1.9208 7.8898,-4.7631 11.0726,-6.3162 5.0243,-2.4517 8.1638,-5.0985 8.059,-6.7942 -0.017,-0.2745 -0.5899,-1.3648 -1.2731,-2.4229 z"
     id="path3140" />
</svg>
