<?xml version="1.0" encoding="UTF-8" standalone="no"?>
<!-- Created with Inkscape (http://www.inkscape.org/) -->

<svg
   xmlns:dc="http://purl.org/dc/elements/1.1/"
   xmlns:cc="http://creativecommons.org/ns#"
   xmlns:rdf="http://www.w3.org/1999/02/22-rdf-syntax-ns#"
   xmlns:svg="http://www.w3.org/2000/svg"
   xmlns="http://www.w3.org/2000/svg"
   xmlns:sodipodi="http://sodipodi.sourceforge.net/DTD/sodipodi-0.dtd"
   xmlns:inkscape="http://www.inkscape.org/namespaces/inkscape"
   width="239.46808"
   height="213.66946"
   id="svg3142"
   version="1.1"
   inkscape:version="0.48.5 r10040"
   sodipodi:docname="special-speed.svg">
  <defs
     id="defs3144" />
  <sodipodi:namedview
     id="base"
     pagecolor="#ffffff"
     bordercolor="#666666"
     borderopacity="1.0"
     inkscape:pageopacity="0.0"
     inkscape:pageshadow="2"
     inkscape:zoom="0.49497475"
     inkscape:cx="359.49894"
     inkscape:cy="83.535878"
     inkscape:document-units="px"
     showgrid="false"
     fit-margin-top="0"
     fit-margin-left="0"
     fit-margin-right="0"
     fit-margin-bottom="0"
     inkscape:window-width="1280"
     inkscape:window-height="744"
     inkscape:window-x="0"
     inkscape:window-y="22"
     inkscape:window-maximized="1"
     inkscape:current-layer="svg3142" />
  <metadata
     id="metadata3147">
    <rdf:RDF>
      <cc:Work
         rdf:about="">
        <dc:format>image/svg+xml</dc:format>
        <dc:type
           rdf:resource="http://purl.org/dc/dcmitype/StillImage" />
        <dc:title />
      </cc:Work>
    </rdf:RDF>
  </metadata>
  <path
     inkscape:connector-curvature="0"
     style="fill:#000000"
     d="m 1.3207719,100.0595 c -0.24203,0.016 -0.74663999,-0.402702 -1.12134999,-0.929602 -0.3747,-0.5269 -0.20571,-0.9888 0.37553,-1.0264 0.58124999,-0.038 1.08584999,0.3808 1.12134999,0.9296 0.0355,0.5489 -0.13349,1.010702 -0.37553,1.026402 z"
     id="path3034" />
  <path
     inkscape:connector-curvature="0"
     style="fill:#000000"
     d="m 43.278791,44.736298 c -0.57079,-0.3037 -1.00705,-0.077 -0.96946,0.5046 0.0376,0.5812 0.51741,1.0277 1.06627,0.9922 0.54885,-0.036 0.9851,-0.2625 0.96945,-0.5046 -0.0156,-0.242 -0.49547,-0.6885 -1.06626,-0.9922 z"
     id="path3030" />
  <path
     id="path3052"
     style="fill:#000000"
     d="m 235.22501,13.619468 c -0.7588,-1.04434 -1.315,-1.11167 -2.0713,-0.25075 -0.7563,0.8609 -0.471,1.28586 1.0627,1.58273 1.1532,0.2232 2.0853,0.33604 2.0713,0.25076 -0.013,-0.0853 -0.4922,-0.79752 -1.0627,-1.58274 z m 0.2801,3.55041 c -1.6717,-1.32711 -2.1919,-1.40658 -2.1862,-0.33404 0,0.7741 -0.04,2.49115 -0.098,3.8157 -0.085,1.95682 0.082,2.11738 0.8905,0.85654 0.5476,-0.85344 1.5787,-1.78684 2.2913,-2.07423 0.949,-0.38268 0.7086,-0.98854 -0.898,-2.26397 z M 55.263016,177.30003 c -0.6382,0.721 -0.8928,1.5461 -0.5657,1.8334 0.3272,0.2874 0.8493,-0.3025 1.1604,-1.3109 0.4496,-1.4573 0.3276,-1.5645 -0.5947,-0.5225 z m 13.685,-16.6512 c -0.2158,0.014 -0.6146,0.7395 -0.8864,1.6125 -0.2833,0.9101 -0.09,1.2998 0.4529,0.9136 0.9104,-0.6474 1.2417,-2.5784 0.4335,-2.5261 z m 1.7522,4.4388 c -0.5314,-0.2827 -1.1772,-0.1172 -1.4353,0.3677 -0.258,0.485 0.1847,0.8395 0.9838,0.7878 1.6827,-0.1088 1.8093,-0.433 0.4515,-1.1555 z m 24.2259,-18.2107 c -1.3064,-0.9488 -2.2995,-0.9175 -4.6467,0.1462 -1.642,0.7441 -3.4561,1.1025 -4.0314,0.7963 -0.6417,-0.3414 -0.6973,-0.066 -0.1437,0.7123 0.6762,0.951 0.4197,1.1186 -1.024,0.6691 -1.0595,-0.3298 -1.5964,-0.3099 -1.1932,0.044 0.4032,0.3542 -0.1309,2.04 -1.1868,3.7461 -1.0559,1.7062 -1.861,4.7402 -1.789,6.7424 0.1163,3.2385 0.429,3.6554 2.8326,3.7766 1.9906,0.1004 3.0976,-0.5624 4.2056,-2.5181 0.8271,-1.4599 1.9313,-2.4269 2.4538,-2.1489 0.5225,0.2781 0.8027,0.1433 0.6226,-0.2994 -0.18,-0.4426 0.108,-1.0451 0.6402,-1.3388 1.7223,-0.9504 5.1158,-6.1186 5.0173,-7.6412 -0.053,-0.8141 -0.8434,-2.0232 -1.7572,-2.6868 z m 20.886104,-23.0517 c -1.9407,-1.3106 -5.0866,-2.0736 -4.3649,-1.0588 0.3434,0.483 -0.2223,1.2084 -1.2572,1.6121 -1.0349,0.4036 -2.5427,1.9008 -3.3507,3.327 -0.808,1.4262 -1.8833,2.3727 -2.3896,2.1033 -0.5063,-0.2694 -1.2114,0.057 -1.567,0.7253 -0.4422,0.831 -0.2208,0.9194 0.7004,0.2797 1.1444,-0.7947 1.1587,-0.6699 0.095,0.8301 -0.6885,0.971 -1.7382,1.5067 -2.3325,1.1905 -0.6275,-0.3339 -0.7508,-0.1113 -0.294,0.5311 0.4326,0.6083 0.4722,1.69 0.088,2.4038 -1.202404,2.2338 -1.0152,4.2463 0.5944,6.3899 1.7648,2.3504 5.38,1.7929 6.1975,-0.9557 0.2693,-0.9054 2.496,-4.2334 4.9484,-7.3956 4.5336,-5.8459 5.2826,-8.3956 2.9323,-9.9827 z m 17.88079,-17.91935 c -3.7181,-0.89426 -6.5979,-0.73345 -6.104,0.34084 0.2913,0.63353 -0.1271,1.77276 -0.9298,2.53161 -1.1915,1.1264 -1.7964,1.14899 -3.2945,0.12307 -1.67249,-1.14543 -1.70029,-1.10639 -0.3145,0.44116 1.2481,1.39381 1.3012,1.92865 0.2967,2.98708 -0.97369,1.02587 -1.09609,0.97392 -0.59909,-0.25424 0.34349,-0.84894 -0.1879,-0.49555 -1.1809,0.78533 -0.9931,1.28087 -2.1295,2.0442 -2.5255,1.6964 -0.396,-0.34793 -0.4856,1.2553 -0.1991,3.5628 0.4425,3.5641 0.8461,4.1742 2.6833,4.0554 1.1893,-0.077 3.76269,-1.5896 5.71859,-3.3615 1.9559,-1.7719 4.0827,-2.9645 4.7263,-2.6502 0.6436,0.3143 0.825,0.2356 0.4032,-0.1749 -0.4219,-0.4105 0.044,-1.9265 1.0347,-3.36898 2.0416,-2.97178 2.1808,-6.25779 0.2846,-6.71387 z m 20.5935,-22.747012 c -1.6568,-0.019 -3.5998,0.52081 -4.3178,1.19957 -0.718,0.67876 -1.3246,0.93897 -1.3479,0.57824 -0.023,-0.36072 -1.392,1.13787 -3.0414,3.33022 -1.6495,2.19236 -3.4562,4.54118 -4.015,5.21963 -3.1983,3.88343 -3.3952,12.581082 -0.2803,12.379632 1.7816,-0.11522 3.5027,-1.88415 8.0649,-8.288742 2.161,-3.03382 4.4245,-5.2525 5.0298,-4.93038 0.6251,0.33259 0.7789,0.13318 0.356,-0.46151 -0.4096,-0.57595 -0.01,-1.52554 0.8965,-2.11023 0.9026,-0.58467 1.6471,-2.37228 1.6544,-3.97247 0.012,-2.56597 -0.3424,-2.91349 -2.9992,-2.94396 z m 4.4747,-21.51283 c -0.2072,0.0134 -0.9422,0.85008 -1.6334,1.85929 -1.1389,1.66303 -1.1013,1.69604 0.4012,0.35241 1.5779,-1.41115 2.0535,-2.26482 1.2322,-2.2117 z m 10.5592,16.89647 c -0.5314,-0.28274 -1.1773,-0.11726 -1.4353,0.36771 -0.2581,0.48497 0.1846,0.83948 0.9838,0.7878 1.6826,-0.10883 1.8093,-0.43302 0.4515,-1.15551 z m 4.8578,-13.68475 c -1.8125,-1.59234 -3.6697,-1.25807 -6.6947,1.20502 -1.4489,1.17972 -3.0133,1.84458 -3.4766,1.47745 -0.4632,-0.36712 -0.5165,-0.1742 -0.1183,0.4287 0.3982,0.60289 -0.3636,1.91377 -1.6929,2.91308 -1.9956,1.50023 -2.3318,2.50168 -1.9291,5.74585 0.4153,3.34468 0.8222,3.90734 2.7361,3.78356 1.2365,-0.08 3.3908,-1.35037 4.7872,-2.8231 1.3964,-1.47273 3.2526,-2.60739 4.1249,-2.52147 0.8724,0.0859 1.5613,-0.3833 1.531,-1.04272 -0.03,-0.65942 0.47,-1.79657 1.1117,-2.52701 1.4802,-1.68495 1.2805,-5.18121 -0.3793,-6.63936 z m 17.7908,-39.43038 c -1.0363,0.067 -2.4137,2.06228 -1.7854,2.58628 0.204,0.17013 0.9093,-0.35642 1.5673,-1.17012 0.6581,-0.81369 0.7562,-1.45096 0.2181,-1.41616 z m 4.316,22.28826 c -0.6433,0.45753 -0.975,0.0661 -0.8504,-1.00361 0.1253,-1.07661 -0.5126,-1.81887 -1.6523,-1.92268 -1.0211,-0.093 -2.1026,-0.38534 -2.4034,-0.64963 -0.3008,-0.26429 -1.236,0.32604 -2.0781,1.31182 -4.3645,5.10925 -5.8959,7.7049 -6.392,10.83389 -0.5309,3.34849 -0.4544,3.44499 2.7369,3.45349 1.8056,0.005 3.542,-0.47815 3.8587,-1.07324 0.3166,-0.5951 1.0826,-0.81226 1.7021,-0.48261 0.6286,0.33445 0.813,0.15849 0.4171,-0.39813 -0.8829,-1.24163 1.4863,-3.62686 2.669,-2.68699 0.4754,0.37782 0.5601,0.22385 0.1881,-0.34218 -0.372,-0.56604 0.1191,-2.55037 1.0913,-4.40963 0.9722,-1.85927 1.2931,-3.04298 0.713,-2.6305 z m 15.4465,-25.06903 c -0.5387,0.38313 -2.3827,3.23766 -4.0976,6.34341 -1.7149,3.10574 -3.5331,5.67365 -4.0404,5.70646 -0.5074,0.0328 -0.6445,1.28177 -0.3048,2.77546 0.3396,1.49369 0.714,3.24819 0.8319,3.89887 0.1179,0.65071 0.6327,1.06835 1.1441,0.9281 0.5114,-0.14023 1.1645,1.39845 1.4514,3.4193 0.4857,3.42097 -0.088,4.40687 -8.3286,14.30017 -4.8677,5.84425 -9.3319,10.36963 -9.9206,10.05643 -0.6001,-0.31931 -0.7397,-0.10471 -0.3178,0.48851 0.9107,1.28068 -2.0761,3.24925 -4.2035,2.77048 -1.0872,-0.24468 -1.1609,-0.11819 -0.2564,0.44042 0.9071,0.56021 -0.2185,2.58358 -3.9473,7.09567 -2.8689,3.47159 -5.6065,6.22448 -6.0835,6.11755 -0.4771,-0.10693 -0.74,0.13554 -0.5843,0.53883 0.5317,1.37651 -4.1667,7.59036 -5.4395,7.19411 -0.8203,-0.25542 -1.0138,0.15987 -0.5472,1.17468 0.4307,0.93684 0.2963,1.34338 -0.3336,1.00825 -0.5804,-0.30885 -2.2446,0.85216 -3.6982,2.58002 -1.4536,1.727852 -3.2059,3.177972 -3.8941,3.222482 -0.6882,0.0445 -1.5382,0.62009 -1.8889,1.27907 -0.4282,0.80476 -0.1944,0.90327 0.7119,0.30003 0.7421,-0.49398 0.1262,0.59883 -1.3687,2.42845 -1.495,1.82962 -2.936,3.1352 -3.2022,2.90129 -0.2663,-0.23392 -1.2836,0.73846 -2.2608,2.16083 -0.9771,1.42238 -2.4176,2.6276 -3.201,2.67827 -0.7835,0.0507 -1.2783,0.60948 -1.0996,1.24178 0.1787,0.6323 -0.6488,1.7407 -1.8389,2.4631 -1.1902,0.7224 -1.848,1.5909 -1.4619,1.9301 0.3861,0.3392 0.247,0.6462 -0.3091,0.6821 -0.5562,0.036 -2.5487,1.7649 -4.428,3.8419 -1.8792,2.0771 -3.4536,3.419 -3.4986,2.9821 -0.045,-0.437 -0.4888,0.021 -0.9861,1.0176 -0.4973,0.9967 -1.8065,1.8705 -2.9093,1.9418 -1.1029,0.071 -1.7795,0.4533 -1.5037,0.8488 0.2759,0.3955 -0.088,1.3387 -0.8074,2.0959 -0.7199,0.7572 -1.326,1.1114 -1.347,0.7871 -0.021,-0.3244 -1.0611,0.6679 -2.3113,2.205 -1.3518,1.6621 -2.78019,2.5249 -3.52439,2.1289 -0.7943,-0.4226 -0.9641,-0.2618 -0.4648,0.4402 0.4326,0.6083 0.4237,1.1372 -0.02,1.1752 -0.4435,0.038 -2.8334,2.2329 -5.311,4.8775 -2.4777,2.6446 -4.9574,4.5676 -5.5105,4.2733 -0.5532,-0.2943 -0.8531,-0.092 -0.6666,0.4502 0.4153,1.2071 -7.1149,9.2311 -10.757904,11.4633 -1.4579,0.8933 -2.6224,2.0617 -2.5878,2.5965 0.035,0.5347 -0.6107,1.0158 -1.434,1.0691 -0.8233,0.053 -1.4661,0.5723 -1.4285,1.1536 0.038,0.5812 0.6078,0.6833 1.2672,0.2267 0.7934,-0.5492 0.7663,-0.2203 -0.08,0.9723 -0.7033,0.9914 -1.5361,1.5764 -1.8506,1.3002 -0.3145,-0.2763 -1.7441,0.7759 -3.177,2.3381 -2.2764,2.482 -2.8414,2.6845 -4.4752,1.6044 -1.5959,-1.055 -1.6738,-1.043 -0.5319,0.082 0.7358,0.725 1.3611,1.6775 1.3895,2.1165 0.028,0.4391 -0.5092,0.8424 -1.1947,0.8963 -0.6854,0.054 -2.2317,1.2812 -3.4361,2.7274 -2.2827,2.7411 -4.562,3.703 -3.4568,1.4589 0.3505,-0.7116 0.2754,-0.9192 -0.1667,-0.4613 -0.4421,0.4579 -0.8666,1.6046 -0.9434,2.5481 -0.077,0.9435 -0.5643,1.8883 -1.0835,2.0995 -1.4825,0.603 -5.7364,5.3353 -5.211,5.7969 0.2597,0.2281 -0.4777,1.3378 -1.6387,2.4658 -1.3778,1.3387 -1.805,1.4928 -1.2301,0.4438 0.4958,-0.9047 0.2073,-0.7765 -0.66,0.2932 -0.8607,1.0616 -2.94,1.991 -4.7108,2.1055 -2.6058,0.1685 -3.3366,0.7508 -4.1063,3.2718 -0.5731,1.8769 -1.6488,3.1129 -2.7724,3.1856 -1.0097,0.065 -1.6494,-0.2315 -1.4215,-0.6596 0.2279,-0.4281 -2.6843,-0.5474 -6.4716,-0.265 -3.7873,0.2823 -6.909,0.1572 -6.9372,-0.2781 -0.028,-0.4354 -1.1816,-0.276 -2.5632,0.3542 -2.4492,1.117 -2.4994,1.0632 -2.007,-2.1497 0.2778,-1.8125 0.8206,-6.361 1.2063,-10.1078 0.6882,-6.6867 0.7363,-6.7762 2.6119,-4.8523 l 1.9107,1.9599 3.2677,-2.844 c 1.7973,-1.5643 3.2835,-2.6008 3.3027,-2.3034 0.019,0.2973 1.1975,-0.8448 2.6184,-2.5381 2.001,-2.3847 2.9851,-2.8869 4.3653,-2.2276 1.2147,0.5802 1.7591,0.499 1.7104,-0.2552 -0.039,-0.6085 0.388,-0.8619 0.9498,-0.563 0.5617,0.2989 -0.4281,2.1933 -2.1996,4.2098 -1.7715,2.0164 -2.6723,3.6664 -2.0017,3.6665 0.9155,3e-4 0.9151,0.1464 0,0.5868 -0.6715,0.3226 -0.9406,0.9808 -0.5979,1.4627 0.3427,0.4819 -0.316,0.9369 -1.4637,1.0111 -1.2355,0.08 -2.3589,1.0474 -2.7537,2.3714 -0.7722,2.5906 1.1301,7.4527 3.1637,8.0858 0.8512,0.265 1.0732,0.01 0.584,-0.6823 -0.5188,-0.7296 -0.2352,-0.9374 0.8279,-0.6064 0.926,0.2883 1.8103,-0.1171 2.0693,-0.9487 0.2486,-0.7987 1.0397,-1.3463 1.7578,-1.2168 0.7182,0.1295 1.0055,0.082 0.6385,-0.1062 -1.4283,-0.7314 0.1662,-4.0432 2.8161,-5.8489 2.8794,-1.9621 10.2811,-12.3237 11.3346,-15.8673 0.329,-1.1068 0.3084,-1.6825 -0.046,-1.2793 -0.3542,0.4032 -2.0736,-0.1517 -3.8209,-1.2331 -1.7474,-1.0814 -2.8101,-1.4503 -2.3617,-0.8197 0.4962,0.6978 0.2217,1.1848 -0.7016,1.2445 -0.8343,0.054 -2.3928,1.1694 -3.4632,2.4787 -2.2806,2.7894 -7.5405,4.1672 -5.6308,1.4749 4.4936,-6.335 9.4808,-11.8095 10.3414,-11.3516 0.5644,0.3003 0.7069,0.097 0.3168,-0.4515 -0.3902,-0.5486 -0.1179,-1.5566 0.6049,-2.2399 0.7229,-0.6834 1.5319,-0.8995 1.7979,-0.4804 0.2659,0.4192 0.3283,0.2487 0.1386,-0.3789 -0.411,-1.3599 12.3193,-15.7777 13.6902,-15.5049 0.5226,0.1039 0.8147,-0.1638 0.649,-0.595 -0.1657,-0.4313 1.3907,-2.4484 3.4587,-4.4826 2.068,-2.0342 4.5681,-4.5243 5.5559,-5.5337 0.9878,-1.0093 2.2644,-1.5858 2.8369,-1.2812 0.5912,0.3145 0.699,0.073 0.2497,-0.5589 -0.4575,-0.6433 -0.047,-1.4538 0.9735,-1.9209 0.9707,-0.4444 2.5675,-1.6562 3.548404,-2.693 0.981,-1.0367 2.252,-1.6356 2.8245,-1.331 0.5726,0.3046 0.7043,0.081 0.2929,-0.4981 -0.8875,-1.248 15.7732,-17.83179 17.8447,-17.76251 0.7701,0.0257 1.1494,-0.30582 0.8429,-0.73683 -0.7705,-1.08345 4.07399,-6.810922 5.49009,-6.490732 0.6318,0.14287 0.7891,-0.056 0.3495,-0.44233 -1.0282,-0.90327 1.932,-4.68064 3.1572,-4.02873 0.5087,0.27065 0.7728,0.0576 0.587,-0.47343 -0.4958,-1.41727 15.8715,-21.35555 17.0263,-20.74106 0.5396,0.28714 0.8206,-0.044 0.6244,-0.73642 -0.1962,-0.69216 0.3149,-1.33252 1.1358,-1.42303 0.8928,-0.0984 1.3138,-0.90319 1.0479,-2.00304 -0.3266,-1.3503 0,-1.70093 1.2192,-1.32045 0.9904,0.30833 1.3852,0.12613 0.9754,-0.45012 -0.3786,-0.53248 2.131,-4.29371 5.577,-8.35829 5.339,-6.29742 6.5124,-7.22202 7.9356,-6.25317 1.455,0.99048 1.4909,0.93581 0.2788,-0.4243 -1.1849,-1.32973 -1.0183,-1.89581 1.1236,-3.81685 1.3832,-1.24056 2.9385,-2.03012 3.4564,-1.75458 0.5178,0.27554 0.7796,-0.0857 0.5818,-0.80285 -0.1978,-0.71711 0.243,-1.21891 0.9797,-1.1151 0.7366,0.1038 1.0697,-0.19039 0.7401,-0.65377 -0.75,-1.05472 3.3965,-5.59787 4.8267,-5.28832 0.5796,0.12547 1.0969,-0.22561 1.1495,-0.78016 0.1607,-1.69329 3.9129,-5.737 4.8572,-5.23454 0.4878,0.25956 0.8451,-0.17494 0.794,-0.96557 -0.099,-1.53306 10.9383,-13.41142 12.5594,-13.51626 0.5299,-0.0343 1.9287,-1.09417 3.1084,-2.35532 1.8581,-1.98648 2.2397,-2.0866 2.8548,-0.74895 0.3905,0.84923 1.2863,1.27904 1.9907,0.95513 0.7045,-0.32389 1.5949,-0.14723 1.9788,0.39259 0.3838,0.53983 1.2468,0.72912 1.9177,0.42064 1.5016,-0.69046 2.5139,4.98678 1.072,6.01213 z m 2.9646,14.83914 c -0.5269,0.37471 -0.9452,0.87932 -0.9295,1.12135 0.016,0.24204 0.4775,0.41102 1.0264,0.37553 0.5488,-0.0355 0.9671,-0.54011 0.9295,-1.12135 -0.038,-0.58125 -0.4994,-0.75023 -1.0264,-0.37553 z m 2.3678,-1.69863 c -0.6177,2.11469 -2.2224,4.27298 -3.9994,5.37932 -1.6323,1.01622 -2.8019,2.0128 -2.5991,2.21463 0.2029,0.20185 -0.3278,1.18064 -1.1793,2.17509 -1.4565,1.70106 -1.5648,1.69003 -1.8287,-0.18604 -0.1543,-1.09679 0.3801,-2.29799 1.1877,-2.66931 0.8076,-0.37133 3.5585,-3.79436 6.1133,-7.60672 2.5547,-3.81236 4.3507,-6.01065 3.9911,-4.8851 -0.3597,1.12556 -1.1182,3.63571 -1.6856,5.57813 z m 21.4042,-3.34607 c -1.8258,-2.83483 -3.8715,-7.27939 -3.7283,-8.1006 0.08,-0.45951 -0.2613,-0.54602 -0.7588,-0.19224 -1.3176,0.93694 -4.4647,-2.16029 -3.9323,-3.87003 0.2491,-0.8004 0.043,-1.16395 -0.4573,-0.80791 -0.5007,0.35604 -1.9328,-1.07266 -3.1824,-3.1749 -1.2497,-2.10224 -4.629,-5.56224 -7.5095,-7.68889 -2.8806,-2.12665 -5.1723,-4.31952 -5.0928,-4.87305 0.08,-0.55352 -0.6895,-1.09099 -1.7091,-1.19438 -1.0195,-0.10339 -2.6771,-0.84166 -3.6835,-1.64058998 -1.6702,-1.3259 -2.0085,-1.26319 -3.8782,0.71904998 -1.1266,1.1944 -2.6124,2.13537 -3.3019,2.09104 -2.4729,-0.15903 -3.8402,0.33984 -3.241,1.18246 0.585,0.82273 -2.022,2.70821 -3.4733,2.51197 -0.3852,-0.052 -2.0212,1.67315 -3.6355,3.83386 -1.6143,2.16072 -2.6375,3.29754 -2.2739,2.52627 0.3637,-0.77127 -2.8052,2.70962 -7.042,7.73532 -4.2368,5.02569 -7.8911,8.97259 -8.1207,8.77088 -0.2296,-0.2017 -1.5771,0.89341 -2.9944,2.43361 -4.9813,5.41309 -16.3557,16.72229 -17.2063,17.10766 -0.4731,0.21431 -0.8189,1.02583 -0.7687,1.80336 0.05,0.77755 -0.3841,1.44448 -0.9653,1.48207 -0.5813,0.0376 -0.77,-0.47083 -0.4193,-1.12981 0.3981,-0.7483 0.2164,-0.89866 -0.4842,-0.40049 -0.6169,0.43871 -0.826,1.21342 -0.4646,1.72156 0.3613,0.50815 -2.6236,4.79164 -6.6332,9.51886 -4.0096,4.72724 -8.861,10.45461 -10.7808,12.72748 -1.9198,2.27287 -3.4646,4.53395 -3.4329,5.02461 0.032,0.49066 -0.8284,1.23773 -1.9113,1.66017 -1.1006,0.42928 -1.6392,1.23201 -1.2211,1.81993 0.4849,0.68188 0.1308,0.85968 -1.0069,0.50548 -1.0399,-0.32376 -1.4812,-0.16151 -1.0831,0.39826 0.8397,1.18082 -6.66709,10.44313 -8.56319,10.56576 -0.7664,0.0496 -1.1078,0.49173 -0.7588,0.9826 0.8194,1.15217 -3.1937,4.393752 -4.5476,3.673362 -0.5659,-0.301142 -0.7022,-0.088 -0.3027,0.47373 0.8461,1.18988 -8.283,9.82362 -10.067904,9.5215 -0.6623,-0.11209 -0.8551,-0.0373 -0.4286,0.16635 1.456304,0.69513 0.911904,2.41452 -0.6141,1.93943 -0.837,-0.26058 -1.3936,-0.15139 -1.2369,0.24265 0.5591,1.40637 -3.7416,5.66649 -5.0289,4.98149 -0.7714,-0.4104 -0.996,-0.2838 -0.5669,0.3196 0.881,1.239 -5.3298,6.8054 -6.5947,5.9105 -0.5044,-0.3569 -0.5813,-0.2833 -0.1708,0.1636 0.8489,0.9242 -3.3635,5.6522 -9.1765,10.2997 -2.1641,1.7303 -4.1638,3.8815 -4.4437,4.7804 -0.2798,0.8989 -0.9907,1.3779 -1.5796,1.0646 -0.589,-0.3134 -0.9225,-0.1913 -0.7411,0.2713 0.4284,1.0929 -8.4392,11.3563 -9.8931,11.4504 -0.6113,0.04 -1.0688,0.7322 -1.0166,1.5392 0.052,0.8071 -0.991,2.108 -2.3182,2.8909 -1.3273,0.783 -2.0439,1.4063 -1.5925,1.3852 1.223,-0.057 -1.8035,3.1377 -3.0487,3.2182 -0.588,0.038 -1.0401,0.5183 -1.0046,1.0671 0.099,1.5262 -3.1744,4.8873 -4.4362,4.5555 -0.6144,-0.1616 -1.4171,0.27 -1.7838,0.9591 -0.4234,0.7959 -0.2631,0.966 0.4394,0.4664 0.6083,-0.4326 1.1368,-0.311 1.1744,0.2703 0.038,0.5812 -0.3807,1.0858 -0.9296,1.1213 -1.9927,0.1289 -2.4991,0.4652 -3.7182,2.4698 -1.1751,1.9321 -1.3489,1.8353 -3.2828,-1.8298 -2.5681,-4.8669 -5.72946,-5.8655 -8.21509,-2.5949 -0.98627,1.2978 -1.76248,3.5286 -1.7249,4.9575 0.23353,8.8789 -0.8438,20.477 -2.89805,31.1993 -0.68159,3.5576 0.49726,7.4053 2.61392,8.5316 0.67136,0.3572 6.98572,0.3658 14.03182,0.019 7.3216,-0.3603 13.4011,-0.2086 14.1879,0.3541 0.7572,0.5414 3.3994,0.883 5.8716,0.759 2.4721,-0.124 6.3893,-0.3149 8.7047,-0.4242 2.3155,-0.1093 4.4764,0.1758 4.8019,0.6337 0.6731,0.9464 4.4182,-0.029 6.1938,-1.6133 1.6546,-1.4763 1.1562,-6.3176 -0.7964,-7.7357 -0.8938,-0.6491 -1.4256,-1.8207 -1.1819,-2.6035 0.2437,-0.7828 0.047,-1.1414 -0.4377,-0.7969 -0.4845,0.3445 -1.1801,0.2057 -1.5457,-0.3084 -0.3657,-0.5142 0.9098,-2.9715 2.8344,-5.4607 4.2361,-5.4788 5.0251,-6.1662 6.2997,-5.488 0.5435,0.2892 0.6377,0.033 0.2092,-0.5696 -0.4726,-0.6646 0.8575,-2.2895 3.3816,-4.1313 2.2883,-1.6698 6.1809,-5.1958 8.6502,-7.8357 2.469304,-2.6399 5.084404,-5.1888 5.811304,-5.6644 0.7269,-0.4755 3.7489,-3.456 6.7157,-6.6234 2.9667,-3.1674 5.8329,-5.5254 6.3692,-5.24 0.5364,0.2854 0.656,0.07 0.2658,-0.4786 -0.9023,-1.2689 1.6651,-3.7668 3.0916,-3.0078 0.5892,0.3136 0.8465,0 0.5716,-0.7022 -0.563,-1.4332 5.38359,-7.4984 7.48489,-7.6343 0.75,-0.049 1.2578,-0.3678 1.1285,-0.7095 -0.4094,-1.0823 6.604,-7.5428 7.9675,-7.3395 0.718,0.1071 1.292,-0.3291 1.2757,-0.9693 -0.016,-0.6403 1.719,-2.7817 3.8564,-4.7588 6.3612,-5.8843 17.203,-16.7385 27.0315,-27.06243 5.0741,-5.32986 9.6005,-9.714902 10.0588,-9.744542 0.4582,-0.0296 1.1809,-0.48688 1.606,-1.01609 0.4562,-0.56809 0.23,-0.59894 -0.5525,-0.0753 -0.9095,0.6087 -1.2008,0.44218 -0.9285,-0.53085 0.2182,-0.77977 1.1023,-1.40671 1.9648,-1.3932 0.8773,0.0137 1.3201,-0.51492 1.0051,-1.2 -0.3097,-0.67349 4.8746,-7.37862 11.5206,-14.90027 6.646,-7.52166 14.2952,-16.97535 16.9982,-21.00821 7.2053,-10.75027 9.0091,-12.88078 11.6133,-13.71637 1.2904,-0.41404 2.316,-1.21982 2.2791,-1.79061 -0.037,-0.57079 0.4115,-0.78315 0.9964,-0.47191 0.5849,0.31124 0.9043,0.0205 0.7098,-0.64613 -0.3095,-1.06051 1.5335,-2.49997 6.8922,-5.38286 0.7989,-0.42982 2.246,-0.71564 3.2157,-0.63515 0.9697,0.0805 1.732,0.0755 1.694,-0.011 -0.038,-0.0865 -0.4874,-0.80675 -0.9986,-1.60041 z"
     inkscape:connector-curvature="0" />
</svg>
