<?xml version="1.0" encoding="UTF-8" standalone="no"?>
<!-- Created with Inkscape (http://www.inkscape.org/) -->

<svg
   xmlns:dc="http://purl.org/dc/elements/1.1/"
   xmlns:cc="http://creativecommons.org/ns#"
   xmlns:rdf="http://www.w3.org/1999/02/22-rdf-syntax-ns#"
   xmlns:svg="http://www.w3.org/2000/svg"
   xmlns="http://www.w3.org/2000/svg"
   xmlns:sodipodi="http://sodipodi.sourceforge.net/DTD/sodipodi-0.dtd"
   xmlns:inkscape="http://www.inkscape.org/namespaces/inkscape"
   width="181.66614"
   height="587.40063"
   id="svg3142"
   version="1.1"
   inkscape:version="0.48.5 r10040"
   sodipodi:docname="special-temperature-3.svg">
  <defs
     id="defs3144">
    <clipPath
       clipPathUnits="userSpaceOnUse"
       id="clipPath3155">
      <rect
         style="fill:#0000ff;fill-rule:evenodd;stroke:#000000;stroke-width:1.23829472px;stroke-linecap:butt;stroke-linejoin:miter;stroke-opacity:1"
         id="rect3157"
         width="185.86807"
         height="250.92851"
         x="-8.0539735e-08"
         y="336.88281" />
    </clipPath>
  </defs>
  <sodipodi:namedview
     id="base"
     pagecolor="#ffffff"
     bordercolor="#666666"
     borderopacity="1.0"
     inkscape:pageopacity="0.0"
     inkscape:pageshadow="2"
     inkscape:zoom="1.979899"
     inkscape:cx="135.52474"
     inkscape:cy="288.5532"
     inkscape:document-units="px"
     showgrid="false"
     fit-margin-top="0"
     fit-margin-left="0"
     fit-margin-right="0"
     fit-margin-bottom="0"
     inkscape:window-width="1280"
     inkscape:window-height="744"
     inkscape:window-x="0"
     inkscape:window-y="22"
     inkscape:window-maximized="1"
     inkscape:current-layer="svg3142" />
  <metadata
     id="metadata3147">
    <rdf:RDF>
      <cc:Work
         rdf:about="">
        <dc:format>image/svg+xml</dc:format>
        <dc:type
           rdf:resource="http://purl.org/dc/dcmitype/StillImage" />
        <dc:title></dc:title>
      </cc:Work>
    </rdf:RDF>
  </metadata>
  <path
     inkscape:connector-curvature="0"
     style="fill:#000000"
     d="m 180.94458,578.50291 c -1.54746,-3.138 -2.55774,-6.1862 -2.24506,-6.7738 0.31836,-0.5983 0.103,-0.7374 -0.4895,-0.316 -1.23487,0.8781 -3.64551,-2.5015 -2.6663,-3.7381 0.36422,-0.4599 0.16539,-0.5079 -0.44186,-0.1067 -1.26581,0.8365 -19.80459,-17.4768 -18.82304,-18.5941 0.34481,-0.3925 -0.12608,-0.3674 -1.04641,0.056 -0.99276,0.4565 -1.70396,0.2962 -1.74861,-0.3941 -0.0414,-0.64 -0.50636,-0.857 -1.03328,-0.4823 -0.52691,0.3747 -0.9833,0.2904 -1.0142,-0.1874 -0.0309,-0.4777 -1.00041,-1.7592 -2.15446,-2.8478 -2.96095,-2.7928 -10.11914,-14.6421 -9.52261,-15.7632 0.27298,-0.5131 -0.0936,-0.6616 -0.8145,-0.3301 -1.27013,0.5841 -5.93685,-6.6354 -5.51141,-8.5262 0.10374,-0.461 -0.2062,-0.5575 -0.68875,-0.2143 -0.48255,0.3431 -2.31346,-2.2282 -4.06869,-5.7142 -1.75523,-3.4859 -4.10441,-7.2628 -5.2204,-8.3931 -1.11599,-1.1303 -1.86308,-2.9127 -1.66018,-3.9609 0.20288,-1.0482 0.12783,-1.6314 -0.1668,-1.2961 -0.29461,0.3354 -3.96156,-4.6285 -8.14879,-11.0308 -4.18723,-6.4023 -8.09897,-12.1545 -8.69277,-12.7826 -0.59379,-0.6281 -0.77048,-1.5311 -0.39265,-2.0065 0.37782,-0.4755 0.16187,-0.5161 -0.4799,-0.09 -0.76056,0.5046 -2.20506,-1.0034 -4.148474,-4.331 -1.63988,-2.8079 -3.94044,-6.0244 -5.11234,-7.1479 -1.23446,-1.1835 -1.84536,-2.5791 -1.45233,-3.3177 0.39461,-0.7416 0.28174,-0.9929 -0.26977,-0.6007 -0.93675,0.6661 -5.25038,-5.7051 -4.9576,-7.3223 0.0832,-0.4597 -0.25656,-0.5458 -0.75509,-0.1913 -1.291847,0.9187 -7.190907,-9.804 -7.154217,-13.0041 0.0169,-1.4702 -1.0394,-5.2328 -2.34725,-8.3614 -1.30785,-3.1287 -2.1868,-5.906 -1.95324,-6.1718 0.23357,-0.2659 -0.23589,-1.0637 -1.04324,-1.773 -0.80735,-0.70925 -2.3539,-3.82487 -3.43677,-6.92357 -1.08288,-3.09872 -3.83423,-9.34637 -6.11411,-13.8837 -2.27988,-4.53732 -4.25999,-9.21928 -4.40026,-10.40437 -0.14027,-1.18508 -0.42367,-1.96272 -0.6298,-1.72809 -0.61091,0.6954 -3.37367,-4.31971 -6.96599,-12.64499 -4.72079,-10.94057 -7.7406,-23.77073 -8.47981,-36.02783 -19.281594,-0.44816 -31.416639,-2.75891 -31.416639,-2.75891 0.30867,1.90906 -1.051821,-0.50247 0.06326,3.28345 1.11509,3.78593 1.84331,8.02277 1.61829,9.41519 -0.2491,1.54131 -0.11097,2.01865 0.35308,1.22023 0.72655,-1.25007 5.64802,12.21091 5.55103,15.18292 -0.0225,0.69039 0.41058,1.22606 0.96246,1.19037 0.55189,-0.0357 0.82653,0.84904 0.61031,1.96609 -0.21621,1.11704 -0.0547,1.79032 0.35892,1.49618 0.79975,-0.56873 2.29571,4.0663 2.54212,7.87642 0.0814,1.25778 0.65932,2.42139 1.28438,2.58577 1.86611,0.49077 5.31631,9.00754 4.41413,10.89626 -0.57596,1.20577 -0.43864,1.49701 0.50192,1.06452 0.82698,-0.38026 1.87521,0.73434 2.90119,3.08488 0.88351,2.02414 1.50963,3.86157 1.39139,4.08317 -0.11825,0.2216 0.28706,0.67004 0.90068,0.99655 1.60618,0.85464 8.34657,19.45686 7.3157,20.18996 -0.47509,0.3378 -0.79375,1.1468 -0.70815,1.7977 0.11339,0.8623 0.26966,0.8386 0.57591,-0.087 0.556,-1.6813 2.11615,-0.2359 5.29924,4.9093 1.31139,2.1198 4.95972,7.8927 8.10738,12.8287 3.14766,4.936 5.45482,9.4786 5.12701,10.0947 -0.32779,0.6161 -0.16733,0.8153 0.35659,0.4427 0.91743,-0.6524 5.80114,7.35 5.95708,9.7611 0.0419,0.6478 0.54691,1.1474 1.12225,1.1102 1.30507,-0.084 4.36497,5.8818 3.6784,7.1721 -0.27772,0.522 -0.0699,0.6396 0.46185,0.2615 1.30268,-0.9264 5.92636,3.5025 5.16005,4.9427 -0.33372,0.6272 -0.17252,0.9884 0.35823,0.8026 1.45643,-0.5098 8.717707,6.9846 8.247797,8.5126 -0.22516,0.7321 -0.0518,1.0768 0.38533,0.766 0.90517,-0.6437 5.44149,4.3786 5.55614,6.1513 0.0415,0.6418 1.77604,2.8209 3.85454,4.8424 2.07849,2.0215 3.502254,4.1957 3.163914,4.8316 -0.37316,0.7013 -0.18004,0.8466 0.49088,0.3695 1.04354,-0.7421 1.68,0.5645 1.37457,2.8217 -0.0752,0.556 0.1523,0.6819 0.50563,0.2797 0.91912,-1.0462 5.83061,3.8643 5.14806,5.1471 -0.31368,0.5895 -0.10365,0.7373 0.46902,0.3301 0.58356,-0.415 1.40076,0.2313 1.86872,1.4779 0.45741,1.2185 1.86045,3.2363 3.11788,4.4839 1.31399,1.3038 1.62914,1.9922 0.74108,1.6188 -0.84983,-0.3573 -0.41356,0.1563 0.9695,1.1413 1.60855,1.1457 2.25763,2.2741 1.80135,3.1316 -0.46898,0.8814 -0.33446,1.0711 0.39275,0.554 0.92157,-0.6554 1.75901,0.6834 1.01092,1.6161 -0.12751,0.159 0.86048,1.3193 2.19552,2.5786 1.33504,1.2592 2.23578,2.9048 2.00163,3.6569 -0.26342,0.8461 -0.003,1.0665 0.68415,0.5781 0.74795,-0.5319 0.9317,-0.217 0.5635,0.9656 -0.30116,0.9673 -0.15228,1.4747 0.33172,1.1305 0.48294,-0.3434 1.2237,0.2617 1.64614,1.3447 0.42243,1.0829 1.14293,1.9448 1.60111,1.9151 0.45818,-0.03 1.3898,1.263 2.07029,2.8724 0.68048,1.6094 1.63377,2.9006 2.11843,2.8693 0.48466,-0.031 1.59739,1.1231 2.47274,2.5654 0.87535,1.4423 2.4291,3.371 3.45279,4.2861 1.02369,0.915 1.90653,2.3638 1.96187,3.2195 0.0553,0.8556 0.51763,1.2592 1.02731,0.8967 0.50968,-0.3624 1.55768,0.2196 2.32888,1.2934 0.7712,1.0738 1.84118,1.924 2.37775,1.8893 0.53657,-0.035 1.9563,0.934 3.15496,2.1527 1.19867,1.2188 3.62884,2.8475 5.40039,3.6194 3.32912,1.4507 11.02645,8.9763 12.67822,12.3954 0.51638,1.0689 0.92286,3.1247 0.90328,4.5684 -0.0461,3.4002 2.66216,5.7229 6.39163,5.4817 1.62667,-0.1052 4.09075,0.4508 5.47575,1.2354 2.58507,1.4646 4.61048,0.9206 4.39943,-1.1816 -0.0654,-0.6522 -1.38514,-3.7532 -2.9326,-6.8911 z"
     id="path3050"
     clip-path="url(#clipPath3155)"
     sodipodi:nodetypes="cccccscsscccccccsccssccssccccccccssscsccscsccsscsssscscccssccscccsccccsccccccscccccccscscccscscccscccssscccc" />
</svg>
