<?xml version="1.0" encoding="UTF-8" standalone="no"?>
<!-- Created with Inkscape (http://www.inkscape.org/) -->

<svg
   xmlns:dc="http://purl.org/dc/elements/1.1/"
   xmlns:cc="http://creativecommons.org/ns#"
   xmlns:rdf="http://www.w3.org/1999/02/22-rdf-syntax-ns#"
   xmlns:svg="http://www.w3.org/2000/svg"
   xmlns="http://www.w3.org/2000/svg"
   xmlns:sodipodi="http://sodipodi.sourceforge.net/DTD/sodipodi-0.dtd"
   xmlns:inkscape="http://www.inkscape.org/namespaces/inkscape"
   width="181.56566"
   height="94.547844"
   id="svg3142"
   version="1.1"
   inkscape:version="0.48.3.1 r9886"
   sodipodi:docname="New document 5">
  <defs
     id="defs3144" />
  <sodipodi:namedview
     id="base"
     pagecolor="#ffffff"
     bordercolor="#666666"
     borderopacity="1.0"
     inkscape:pageopacity="0.0"
     inkscape:pageshadow="2"
     inkscape:zoom="0.49497475"
     inkscape:cx="266.25525"
     inkscape:cy="-4.6858568"
     inkscape:document-units="px"
     showgrid="false"
     fit-margin-top="0"
     fit-margin-left="0"
     fit-margin-right="0"
     fit-margin-bottom="0"
     inkscape:window-width="497"
     inkscape:window-height="420"
     inkscape:window-x="1177"
     inkscape:window-y="427"
     inkscape:window-maximized="0"
     inkscape:current-layer="svg3142" />
  <metadata
     id="metadata3147">
    <rdf:RDF>
      <cc:Work
         rdf:about="">
        <dc:format>image/svg+xml</dc:format>
        <dc:type
           rdf:resource="http://purl.org/dc/dcmitype/StillImage" />
        <dc:title></dc:title>
      </cc:Work>
    </rdf:RDF>
  </metadata>
  <path
     inkscape:connector-curvature="0"
     style="fill:#000000"
     d="m 178.93864,18.150205 c -1.50355,1.2985 -2.11597,0.9813 -1.94992,-1.0102 0.033,-0.3952 -0.92094,-0.2819 -2.11975,0.2519 -1.19881,0.5338 -2.14668,1.4804 -2.10638,2.1036 0.11837,1.8303 -1.76612,1.5619 -2.61531,-0.3726 -0.42915,-0.9775 -0.64861,-2.0489 -0.48771,-2.3808 0.1609,-0.3319 -0.25268,-0.6248 -0.91906,-0.6509 -4.28867,-0.1678 -10.1829,-1.5148 -10.87259,-2.4847 -0.44869,-0.6309 -1.0999,-1.0903 -1.44713,-1.0207 -1.931,0.3866 -2.6889,0.1577 -2.24427,-0.6779 0.27539,-0.5176 -0.38283,-0.6479 -1.46272,-0.2896 -1.07989,0.3583 -1.99102,0.2249 -2.02474,-0.2965 -0.0337,-0.5214 -0.62501,-0.9484 -1.31398,-0.9489 -0.68896,-4e-4 -3.86671,-0.4129997 -7.06166,-0.9166997 -4.76039,-0.7505 -7.55219,-0.5645 -15.46576,1.0301997 -14.75808,2.9741 -32.169617,4.5665 -33.279537,3.0437 -0.71297,-0.9782 -0.89298,-0.9738 -0.84076,0.02 0.0506,0.9643 -3.15266,1.4422 -13.47724,2.011 -11.33781,0.6245 -13.46909,0.5064 -13.08556,-0.7255 0.29268,-0.9401 0.0265,-1.2147 -0.73699,-0.7603 -0.65732,0.3911 -0.0506,-0.4895 1.34831,-1.9571 3.84632,-4.0351997 4.06219,-7.2960997 0.67973,-10.2675997 -1.92544,-1.6916 -3.32402,-2.2 -4.45971,-1.6214 -0.91002,0.4637 -2.40544,0.923 -3.32316,1.0208 -0.91772,0.098 -1.4277,0.5166 -1.13329,0.9306 0.29441,0.414 -0.38933,0.8126 -1.51943,0.8857 -1.1301,0.073 -2.02764,0.5516 -1.99453,1.0635 0.0331,0.5119 -0.78625,1.2608 -1.82078,1.6644 -1.03453,0.4035 -3.44568,1.9501 -5.35812,3.4368 -1.91243,1.4867997 -3.87978,2.4889997 -4.37189,2.2270997 -0.4921,-0.2618 -1.18568,0.071 -1.54127,0.739 -0.40379,0.7589 -0.23126,0.9198 0.45952,0.4286 2.35675,-1.676 1.01887,0.2075 -1.46541,2.063 -2.08038,1.5538 -2.37979,1.6158 -1.43525,0.2973 0.91989,-1.2842 0.90727,-1.8185 -0.055,-2.3305 -0.6867,-0.3654 -0.96787,-0.2696 -0.62481,0.2128 1.02096,1.4357 -1.70029,4.8227 -3.43964,4.2812 -0.9862,-0.3071 -1.54742,0.06 -1.48837,0.9726 0.0521,0.8061 -0.29305,1.4907 -0.76706,1.5213 -0.47401,0.031 -1.94908,1.2934 -3.27794,2.806 -1.41862,1.6148 -2.93124,2.4761 -3.66386,2.0863 -0.84792,-0.4512 -0.95862,-0.2573 -0.34544,0.6049 0.67627,0.951 0.41973,1.1186 -1.02396,0.6692 -1.05946,-0.3299 -1.59289,-0.3069 -1.1854,0.051 0.40748,0.358 -1.41741,1.9774 -4.05533,3.5986 -2.63792,1.6213 -5.65003,3.7802 -6.69358,4.7976 -1.04355,1.0173 -2.16131,1.8667 -2.4839,1.8876 -1.4250502,0.092 -9.72295018,10.8579 -10.14553018,13.1628 -0.91311,4.9806 0.67062,7.2041 6.15369998,8.6399 2.92855,0.7668 5.1369902,1.9377 5.1896202,2.7516 0.0504,0.7791 0.42498,1.3417 0.83242,1.25 2.18302,-0.4908 4.30032,-0.039 3.84322,0.8199 -0.28783,0.5409 0.37544,0.7494 1.47396,0.4632 1.2901,-0.336 2.03161,0.01 2.0942,0.9782 0.0533,0.8242 0.52803,1.1919 1.05494,0.8172 0.52692,-0.3747 1.01744,0.1306 1.09006,1.123 0.11194,1.5297 0.26447,1.567 1.00258,0.2448 0.76247,-1.3658 1.34327,-0.8677 1.22868,1.0538 -0.0208,0.3491 0.97393,1.4121 2.21054,2.3623 1.23661,0.9501 1.88386,1.1874 1.43832,0.5273 -1.04304,-1.5454 -0.42528,-1.5499 3.99768,-0.029 2.0236,0.6958 3.37256,1.7274 3.05046,2.3328 -0.31761,0.5969 -0.21504,0.9414 0.22792,0.7656 0.44295,-0.1758 1.96628,0.3909 3.38517,1.2594 1.41888,0.8684 2.14335,1.6114 1.60991,1.6511 -0.53344,0.039 1.51305,1.2902 4.54772,2.779 3.57656,1.7547 5.36275,3.2042 5.07745,4.1206 -0.25475,0.8183 0.052,1.1971 0.72818,0.8996 0.64258,-0.2828 3.08661,1.2566 5.43118,3.4209 2.34457,2.1644 3.50098,3.4317 2.56979,2.8164 -1.37973,-0.9118 -1.91845,-0.7775 -2.91099,0.7259 -1.01868,1.543 -1.01109,1.6359 0.0465,0.5682 0.99775,-1.0074 1.97135,-0.8063 4.61736,0.954 5.90103,3.9257 10.64508,1.6991 10.22483,-4.799 -0.16588,-2.5649 0.21467,-3.4682 1.52028,-3.6085 0.95786,-0.1029 2.81894,-0.4581 4.13574,-0.7894 1.3168,-0.3313 2.79331,-0.055 3.28114,0.6138 0.70537,0.9672 0.87347,0.9589 0.82105,-0.04 -0.0441,-0.8422 1.49855,-1.3315 4.67928,-1.4842 6.43407,-0.3089 19.408367,0.7509 21.784977,1.7794 1.063,0.4601 4.3447,0.6515 7.29266,0.4255 2.94796,-0.2261 5.38051,-0.091 5.40567,0.2998 0.0252,0.3909 4.1753,0.065 9.22254,-0.7234 5.04724,-0.7888 18.76327,-2.1852 30.48005,-3.1031 16.71361,-1.3094 21.47083,-1.9757 22.08114,-3.0926 0.42783,-0.783 0.532,-5.9171 0.23149,-11.4092 -0.30048,-5.492 -0.56673,-14.9446 -0.59158,-21.0056 -0.0249,-6.061 -0.49634,-14.5097 -1.04775,-18.7748 -0.58267,-4.5069 -0.61568,-8.2617 -0.0788,-8.9653 0.50809,-0.6659 0.17639,-0.5652 -0.7371,0.2237 z"
     id="path3036" />
  <path
     inkscape:connector-curvature="0"
     style="fill:#000000"
     d="m 26.722363,69.159605 c -0.24203,0.016 -0.74664,-0.4027 -1.12135,-0.9296 -0.3747,-0.5269 -0.20571,-0.9888 0.37553,-1.0264 0.58125,-0.038 1.08585,0.3808 1.12135,0.9296 0.0355,0.5489 -0.13349,1.0107 -0.37553,1.0264 z"
     id="path3034" />
  <path
     inkscape:connector-curvature="0"
     style="fill:#000000"
     d="m 68.680383,13.836405 c -0.57079,-0.3037 -1.00705,-0.077 -0.96946,0.5046 0.0376,0.5812 0.51741,1.0277 1.06627,0.9922 0.54885,-0.036 0.9851,-0.2625 0.96945,-0.5046 -0.0156,-0.242 -0.49547,-0.6885 -1.06626,-0.9922 z"
     id="path3030" />
</svg>
