<?xml version="1.0" encoding="UTF-8" standalone="no"?>
<!-- Created with Inkscape (http://www.inkscape.org/) -->

<svg
   xmlns:dc="http://purl.org/dc/elements/1.1/"
   xmlns:cc="http://creativecommons.org/ns#"
   xmlns:rdf="http://www.w3.org/1999/02/22-rdf-syntax-ns#"
   xmlns:svg="http://www.w3.org/2000/svg"
   xmlns="http://www.w3.org/2000/svg"
   xmlns:sodipodi="http://sodipodi.sourceforge.net/DTD/sodipodi-0.dtd"
   xmlns:inkscape="http://www.inkscape.org/namespaces/inkscape"
   width="181.66614"
   height="587.40063"
   id="svg3142"
   version="1.1"
   inkscape:version="0.48.3.1 r9886"
   sodipodi:docname="special-blinker_rechts.svg">
  <defs
     id="defs3144" />
  <sodipodi:namedview
     id="base"
     pagecolor="#ffffff"
     bordercolor="#666666"
     borderopacity="1.0"
     inkscape:pageopacity="0.0"
     inkscape:pageshadow="2"
     inkscape:zoom="0.49497475"
     inkscape:cx="204.69459"
     inkscape:cy="232.0709"
     inkscape:document-units="px"
     showgrid="false"
     fit-margin-top="0"
     fit-margin-left="0"
     fit-margin-right="0"
     fit-margin-bottom="0"
     inkscape:window-width="497"
     inkscape:window-height="420"
     inkscape:window-x="1177"
     inkscape:window-y="427"
     inkscape:window-maximized="0"
     inkscape:current-layer="svg3142" />
  <metadata
     id="metadata3147">
    <rdf:RDF>
      <cc:Work
         rdf:about="">
        <dc:format>image/svg+xml</dc:format>
        <dc:type
           rdf:resource="http://purl.org/dc/dcmitype/StillImage" />
        <dc:title></dc:title>
      </cc:Work>
    </rdf:RDF>
  </metadata>
  <path
     inkscape:connector-curvature="0"
     style="fill:#000000"
     d="m -34.838302,325.25566 c -0.24203,0.016 -0.74664,-0.4027 -1.12135,-0.9296 -0.3747,-0.5269 -0.20571,-0.9888 0.37553,-1.0264 0.58125,-0.038 1.08585,0.3808 1.12135,0.9296 0.0355,0.5489 -0.13349,1.0107 -0.37553,1.0264 z"
     id="path3034" />
  <path
     inkscape:connector-curvature="0"
     style="fill:#000000"
     d="m 7.1197177,269.93246 c -0.57079,-0.3037 -1.00705,-0.077 -0.96946,0.5046 0.0376,0.5812 0.51741,1.0277 1.06627,0.9922 0.54885,-0.036 0.9851,-0.2625 0.96945,-0.5046 -0.0156,-0.242 -0.49547,-0.6885 -1.06626,-0.9922 z"
     id="path3030" />
  <path
     inkscape:connector-curvature="0"
     style="fill:#000000"
     d="m 178.71785,578.50291 c -1.54746,-3.138 -2.55774,-6.1862 -2.24506,-6.7738 0.31836,-0.5983 0.103,-0.7374 -0.4895,-0.316 -1.23487,0.8781 -3.64551,-2.5015 -2.6663,-3.7381 0.36422,-0.4599 0.16539,-0.5079 -0.44186,-0.1067 -1.26581,0.8365 -19.80459,-17.4768 -18.82304,-18.5941 0.34481,-0.3925 -0.12608,-0.3674 -1.04641,0.056 -0.99276,0.4565 -1.70396,0.2962 -1.74861,-0.3941 -0.0414,-0.64 -0.50636,-0.857 -1.03328,-0.4823 -0.52691,0.3747 -0.9833,0.2904 -1.0142,-0.1874 -0.0309,-0.4777 -1.00041,-1.7592 -2.15446,-2.8478 -2.96095,-2.7928 -10.11914,-14.6421 -9.52261,-15.7632 0.27298,-0.5131 -0.0936,-0.6616 -0.8145,-0.3301 -1.27013,0.5841 -5.93685,-6.6354 -5.51141,-8.5262 0.10374,-0.461 -0.2062,-0.5575 -0.68875,-0.2143 -0.48255,0.3431 -2.31346,-2.2282 -4.06869,-5.7142 -1.75523,-3.4859 -4.10441,-7.2628 -5.2204,-8.3931 -1.11599,-1.1303 -1.86308,-2.9127 -1.66018,-3.9609 0.20288,-1.0482 0.12783,-1.6314 -0.1668,-1.2961 -0.29461,0.3354 -3.96156,-4.6285 -8.14879,-11.0308 -4.18723,-6.4023 -8.09897,-12.1545 -8.69277,-12.7826 -0.59379,-0.6281 -0.77048,-1.5311 -0.39265,-2.0065 0.37782,-0.4755 0.16187,-0.5161 -0.4799,-0.09 -0.76056,0.5046 -2.205063,-1.0034 -4.148473,-4.331 -1.63988,-2.8079 -3.94044,-6.0244 -5.11234,-7.1479 -1.23446,-1.1835 -1.84536,-2.5791 -1.45233,-3.3177 0.39461,-0.7416 0.28174,-0.9929 -0.26977,-0.6007 -0.93675,0.6661 -5.25038,-5.7051 -4.9576,-7.3223 0.0832,-0.4597 -0.25656,-0.5458 -0.75509,-0.1913 -1.29185,0.9187 -7.19091,-9.804 -7.15422,-13.0041 0.0169,-1.4702 -1.0394,-5.2328 -2.34725,-8.3614 -1.30785,-3.1287 -2.1868,-5.906 -1.95324,-6.1718 0.23357,-0.2659 -0.23589,-1.0637 -1.04324,-1.773 -0.80735,-0.70925 -2.3539,-3.82487 -3.43677,-6.92357 -1.08288,-3.09872 -3.83423,-9.34637 -6.11411,-13.8837 -2.27988,-4.53732 -4.25999,-9.21928 -4.40026,-10.40437 -0.14027,-1.18508 -0.42367,-1.96272 -0.6298,-1.72809 -0.61091,0.6954 -3.37367,-4.31971 -6.96599,-12.64499 -4.72079,-10.94057 -7.74059,-23.77073 -8.4798,-36.02783 -0.71403,-11.84019 -4.21956,-31.15457 -6.47157,-35.65668 -0.70572,-1.41084 -2.79092,-13.26964 -5.74931,-32.69711 -1.01478,-6.66394 -1.27428,-13.84314 -0.88537,-24.49393 0.30259,-8.2868 0.3656,-16.79143 0.14003,-18.89917 -0.2256,-2.10774 -0.006,-7.7587 0.48829,-12.5577 0.49414,-4.79898 0.75098,-10.74512 0.57077,-13.21364 -0.18018,-2.46852 0.23618,-6.99039 0.92532,-10.0486 0.68914,-3.05824 1.05448,-8.6296 0.81188,-12.38083 -0.48183,-7.45027 1.26738,-20.85476 2.73381,-20.94959 0.50487,-0.0326 0.7833,-0.39805 0.61874,-0.81198 -0.16456,-0.41394 0.31823,-2.58713 1.07286,-4.82931 2.75919,-8.19812 6.29876,-21.64042 7.91344,-30.05302 4.15111,-21.62744 4.60797,-23.2215 10.2418,-35.735467 1.15006,-2.55454 2.08122,-5.20767 2.06925,-5.89583 -0.0119,-0.68817 0.66145,-1.29539 1.4965,-1.3494 0.83505,-0.054 1.8565,-1.13468 2.26991,-2.4015 0.4134,-1.26682 1.42801,-4.45202 2.25468,-7.07823 0.82667,-2.6262 1.76339,-4.63639 2.0816,-4.46707 0.3182,0.16932 0.57874,-0.44821 0.57896,-1.37227 4.8e-4,-1.95152 6.35611,-20.98545 8.07083,-24.17062 1.48642,-2.76111 5.77801,-15.23877 6.07739,-17.6699 0.12565,-1.02024 0.25516,-2.08219 0.28781,-2.35987 0.0326,-0.27769 0.45371,0.0357 0.93568,0.69633 0.6055,0.83001 1.31707,0.0989 2.30258,-2.36567 0.78444,-1.9618 1.00599,-3.79052 0.49232,-4.06384 -0.51367,-0.27332 -0.78564,-2.03222 -0.60439,-3.90867 0.28496,-2.95028 -0.073,-3.63152 -2.64642,-5.03675 -1.63679,-0.89376 -5.04445,-2.97242 -7.57259,-4.61924 -4.62992,-3.01589996 -8.11762,-3.60652996 -9.82439,-1.66373 -0.58918,0.67065 -2.10729,0.79419 -4.18674,0.34071 -1.79431,-0.39129 -3.30602,-0.51463996 -3.35936,-0.27409 -0.0534,0.24055 -0.13203,0.77784 -0.17486,1.19397 -0.0428,0.41613 -0.99597,2.23841 -2.11807,4.04951 -1.1221,1.81109 -2.00981,3.76259 -1.97268,4.33666 0.0371,0.57407 -0.4706,1.43917 -1.12828,1.92245 -0.65769,0.48329 -1.18276,1.3288 -1.16684,1.87892 0.0302,1.04263 -3.89601,10.90125 -4.71076,11.82868 -0.25668,0.29217 -0.47529,1.09546 -0.48581,1.78507 -0.045,2.95373 -0.24544,3.35297 -1.37995,2.7493 -0.70608,-0.3757 -0.90037,-0.21879 -0.47308,0.38207 0.95829,1.34755 -0.0244,4.39857 -1.21299,3.76613 -0.51098,-0.27189 -0.87507,0.34046 -0.80909,1.36079 0.066,1.02033 -0.30987,2.34444 -0.83525,2.94247 -0.52537,0.59802 -1.07328,1.96373 -1.21757,3.03491 -0.50164,3.72407 -4.46719,12.69688 -5.31434,12.02467 -0.46886,-0.37204 -0.49933,-0.14472 -0.0677,0.50516 0.72901,1.09768 0.27225,3.30166 -2.89859,13.98645 -0.66705,2.24774 -1.77304,3.98485 -2.45777,3.86025 -0.94016,-0.17109 -0.90479,0.13327 0.14454,1.24326 0.7785,0.82351 0.94389,1.49863 0.37613,1.53535 -0.55734,0.036 -1.23569,0.77974 -1.50747,1.65267 -0.33568,1.07817 -0.11319,1.32345 0.69381,0.76486 0.92491,-0.6402 0.94791,-0.48254 0.10387,0.71196 -0.59624,0.84383 -1.64668,4.59956 -2.3343,8.34606 -0.75497,4.11343 -1.67631,6.58509 -2.32585,6.23948 -0.61146,-0.32535 -0.74584,-0.10861 -0.31141,0.5023 0.42031,0.59104 -0.0311,4.41017 -1.0032,8.486927 -0.97206,4.07678 -1.78163,7.86418 -1.79902,8.41646 -0.11534,3.66107 -1.30123,8.50321 -1.99246,8.13541 -0.45497,-0.24209 -0.55591,0.37758 -0.22429,1.37702 0.3316,0.99945 0.0215,2.48568 -0.68909,3.30274 -0.7106,0.81706 -1.7479,3.65701 -2.30512,6.311 -0.55721,2.654 -1.30758,4.84449 -1.6675,4.86777 -0.35991,0.0233 -0.67232,0.83262 -0.69425,1.79855 -0.17111,7.53613 -4.8676713,27.62174 -6.4831513,27.72622 -0.42065,0.0272 -0.95578,1.4788 -1.18917,3.22576 -0.2334,1.74696 -1.16708,3.87001 -2.07485,4.71789 -0.90776896,0.84789 -1.04787896,1.17854 -0.31136,0.73479 1.06462,-0.64143 1.25803,-0.10431 0.94348,2.62041 -0.21761,1.88499 -0.24415,6.7995 -0.0589,10.92114 0.18519,4.12164 0.15311,7.86319 -0.0713,8.31455 -0.22439,0.45136 -0.35042,4.90697 -0.28005,9.90134 0.0704,4.99438 -0.34366,10.80341 -0.92007,12.90896 -0.57640896,2.10556 -0.80168896,9.19344 -0.50061896,15.75087 0.30106,6.55742 0.25067,13.72374 -0.11198,15.92514 -0.84482,5.12826 -0.80393,5.76349 0.32006,4.96448 0.51666896,-0.36742 0.93890896,0.57072 0.96025896,2.13346 0.0548,4.01397 5.9916,70.87493 6.66056,75.0124 0.30867,1.90906 1.47356,6.5686 2.5886413,10.35452 1.11509,3.78593 1.84331,8.02277 1.61829,9.41519 -0.2491,1.54131 -0.11097,2.01865 0.35308,1.22023 0.72655,-1.25007 5.64802,12.21091 5.55103,15.18292 -0.0225,0.69039 0.41058,1.22606 0.96246,1.19037 0.55189,-0.0357 0.82653,0.84904 0.61031,1.96609 -0.21621,1.11704 -0.0547,1.79032 0.35892,1.49618 0.79975,-0.56873 2.29571,4.0663 2.54212,7.87642 0.0814,1.25778 0.65932,2.42139 1.28438,2.58577 1.86611,0.49077 5.31631,9.00754 4.41413,10.89626 -0.57596,1.20577 -0.43864,1.49701 0.50192,1.06452 0.82698,-0.38026 1.87521,0.73434 2.90119,3.08488 0.88351,2.02414 1.50963,3.86157 1.39139,4.08317 -0.11825,0.2216 0.28706,0.67004 0.90068,0.99655 1.60618,0.85464 8.34657,19.45686 7.3157,20.18996 -0.47509,0.3378 -0.79375,1.1468 -0.70815,1.7977 0.11339,0.8623 0.26966,0.8386 0.57591,-0.087 0.556,-1.6813 2.11615,-0.2359 5.29923,4.9093 1.31139,2.1198 4.95972,7.8927 8.10738,12.8287 3.14766,4.936 5.45482,9.4786 5.12701,10.0947 -0.32779,0.6161 -0.16733,0.8153 0.35659,0.4427 0.91743,-0.6524 5.80114,7.35 5.95708,9.7611 0.0419,0.6478 0.54691,1.1474 1.12225,1.1102 1.30507,-0.084 4.36497,5.8818 3.6784,7.1721 -0.27772,0.522 -0.0699,0.6396 0.46185,0.2615 1.30268,-0.9264 5.92636,3.5025 5.16005,4.9427 -0.33372,0.6272 -0.17252,0.9884 0.35823,0.8026 1.45643,-0.5098 8.71771,6.9846 8.2478,8.5126 -0.22516,0.7321 -0.0518,1.0768 0.38533,0.766 0.90517,-0.6437 5.44149,4.3786 5.55614,6.1513 0.0415,0.6418 1.77604,2.8209 3.85454,4.8424 2.07849,2.0215 3.50225,4.1957 3.16391,4.8316 -0.37316,0.7013 -0.18004,0.8466 0.49088,0.3695 1.043543,-0.7421 1.680003,0.5645 1.374573,2.8217 -0.0752,0.556 0.1523,0.6819 0.50563,0.2797 0.91912,-1.0462 5.83061,3.8643 5.14806,5.1471 -0.31368,0.5895 -0.10365,0.7373 0.46902,0.3301 0.58356,-0.415 1.40076,0.2313 1.86872,1.4779 0.45741,1.2185 1.86045,3.2363 3.11788,4.4839 1.31399,1.3038 1.62914,1.9922 0.74108,1.6188 -0.84983,-0.3573 -0.41356,0.1563 0.9695,1.1413 1.60855,1.1457 2.25763,2.2741 1.80135,3.1316 -0.46898,0.8814 -0.33446,1.0711 0.39275,0.554 0.92157,-0.6554 1.75901,0.6834 1.01092,1.6161 -0.12751,0.159 0.86048,1.3193 2.19552,2.5786 1.33504,1.2592 2.23578,2.9048 2.00163,3.6569 -0.26342,0.8461 -0.003,1.0665 0.68415,0.5781 0.74795,-0.5319 0.9317,-0.217 0.5635,0.9656 -0.30116,0.9673 -0.15228,1.4747 0.33172,1.1305 0.48294,-0.3434 1.2237,0.2617 1.64614,1.3447 0.42243,1.0829 1.14293,1.9448 1.60111,1.9151 0.45818,-0.03 1.3898,1.263 2.07029,2.8724 0.68048,1.6094 1.63377,2.9006 2.11843,2.8693 0.48466,-0.031 1.59739,1.1231 2.47274,2.5654 0.87535,1.4423 2.4291,3.371 3.45279,4.2861 1.02369,0.915 1.90653,2.3638 1.96187,3.2195 0.0553,0.8556 0.51763,1.2592 1.02731,0.8967 0.50968,-0.3624 1.55768,0.2196 2.32888,1.2934 0.7712,1.0738 1.84118,1.924 2.37775,1.8893 0.53657,-0.035 1.9563,0.934 3.15496,2.1527 1.19867,1.2188 3.62884,2.8475 5.40039,3.6194 3.32912,1.4507 11.02645,8.9763 12.67822,12.3954 0.51638,1.0689 0.92286,3.1247 0.90328,4.5684 -0.0461,3.4002 2.66216,5.7229 6.39163,5.4817 1.62667,-0.1052 4.09075,0.4508 5.47575,1.2354 2.58507,1.4646 4.61048,0.9206 4.39943,-1.1816 -0.0654,-0.6522 -1.38514,-3.7532 -2.9326,-6.8911 z"
     id="path3050" />
</svg>
