<?xml version="1.0" encoding="UTF-8" standalone="no"?>
<!-- Created with Inkscape (http://www.inkscape.org/) -->

<svg
   xmlns:dc="http://purl.org/dc/elements/1.1/"
   xmlns:cc="http://creativecommons.org/ns#"
   xmlns:rdf="http://www.w3.org/1999/02/22-rdf-syntax-ns#"
   xmlns:svg="http://www.w3.org/2000/svg"
   xmlns="http://www.w3.org/2000/svg"
   xmlns:sodipodi="http://sodipodi.sourceforge.net/DTD/sodipodi-0.dtd"
   xmlns:inkscape="http://www.inkscape.org/namespaces/inkscape"
   width="204.01826"
   height="608.50952"
   id="svg3142"
   version="1.1"
   inkscape:version="0.48.5 r10040"
   sodipodi:docname="special-rpm-3.svg">
  <defs
     id="defs3144" />
  <sodipodi:namedview
     id="base"
     pagecolor="#ffffff"
     bordercolor="#666666"
     borderopacity="1.0"
     inkscape:pageopacity="0.0"
     inkscape:pageshadow="2"
     inkscape:zoom="1.979899"
     inkscape:cx="221.61514"
     inkscape:cy="212.93796"
     inkscape:document-units="px"
     showgrid="false"
     fit-margin-top="0"
     fit-margin-left="0"
     fit-margin-right="0"
     fit-margin-bottom="0"
     inkscape:window-width="1280"
     inkscape:window-height="744"
     inkscape:window-x="0"
     inkscape:window-y="22"
     inkscape:window-maximized="1"
     inkscape:current-layer="svg3142" />
  <metadata
     id="metadata3147">
    <rdf:RDF>
      <cc:Work
         rdf:about="">
        <dc:format>image/svg+xml</dc:format>
        <dc:type
           rdf:resource="http://purl.org/dc/dcmitype/StillImage" />
        <dc:title></dc:title>
      </cc:Work>
    </rdf:RDF>
  </metadata>
  <path
     inkscape:connector-curvature="0"
     style="fill:#000000"
     d="m 3.7213572,341.11493 c -0.24203,0.016 -0.74664,-0.4027 -1.12135,-0.9296 -0.3747,-0.5269 -0.20571,-0.9888 0.37553,-1.0264 0.58125,-0.038 1.08585,0.3808 1.12135,0.9296 0.0355,0.5489 -0.13349,1.0107 -0.37553,1.0264 z"
     id="path3034"
     sodipodi:nodetypes="ccccc" />
  <path
     inkscape:connector-curvature="0"
     style="fill:#000000"
     d="m 45.679377,285.79173 c -0.57079,-0.3037 -1.00705,-0.077 -0.96946,0.5046 0.0376,0.5812 0.51741,1.0277 1.06627,0.9922 0.54885,-0.036 0.9851,-0.2625 0.96945,-0.5046 -0.0156,-0.242 -0.49547,-0.6885 -1.06626,-0.9922 z"
     id="path3030"
     sodipodi:nodetypes="scccs" />
  <path
     inkscape:connector-curvature="0"
     style="fill:#000000"
     d="m 159.82957,302.34204 c 0.5467,2.40902 0.5516,3.96914 0.012,3.68915 -0.5215,-0.27049 -0.7726,3.25184 -0.5673,7.96032 0.3625,8.31263 -0.6267,11.94555 -2.9845,10.96142 -0.6439,-0.26873 -0.3432,0.10467 0.6682,0.82987 2.46,1.7637 2.3737,2.54258 -0.3163,2.85627 -1.6849,0.19646 -1.7989,0.34583 -0.4613,0.60448 1.1987,0.23181 1.6834,1.05881 1.4902,2.54312 -0.1574,1.20979 -0.6479,5.04139 -1.09,8.51466 -0.442,3.47327 -1.1915,6.34011 -1.6653,6.37076 -0.4739,0.0307 -0.8018,0.98035 -0.7287,2.11045 0.073,1.13009 -0.2397,1.85648 -0.695,1.61419 -0.4554,-0.24228 -1.4502,0.0634 -2.2107,0.67942 -1.1352,0.91924 -1.082,1.00159 0.2959,0.45954 0.9234,-0.36322 1.972,-0.2481 2.3304,0.2558 0.3584,0.5039 0.1496,0.94866 -0.4642,0.98835 -0.6136,0.0397 -0.8091,0.50326 -0.4344,1.03018 0.3747,0.52692 0.2058,0.98878 -0.3755,1.02638 -0.5812,0.0376 -0.9987,0.96647 -0.9277,2.06417 0.071,1.09771 -0.3466,2.02659 -0.9278,2.06418 -0.5812,0.0376 -0.7599,0.4858 -0.3971,0.99602 0.3629,0.51021 -0.1357,3.02264 -1.108,5.58316 -0.9722,2.56053 -1.9489,6.01273 -2.1706,7.67154 -0.2216,1.65882 -0.8078,2.80065 -1.3025,2.53739 -0.4947,-0.26326 -0.5967,0.18001 -0.2265,0.98502 0.3702,0.80501 0.3467,2.07004 -0.052,2.81116 -0.3987,0.74111 -0.7824,2.01942 -0.8525,2.84068 -0.07,0.82125 -0.5936,1.68277 -1.1633,1.91447 -0.5696,0.23171 -0.7552,0.81558 -0.4125,1.29748 0.3427,0.48191 0.1209,0.90868 -0.4926,0.94836 -0.6136,0.0397 -0.8091,0.50327 -0.4344,1.03019 0.3746,0.52691 0.2413,0.98648 -0.2962,1.02124 -0.5377,0.0348 -1.184,1.41441 -1.4364,3.06588 -0.2523,1.65146 -1.4028,4.60777 -2.5566,6.56958 -1.1538,1.96181 -2.572,5.20107 -3.1515,7.19837 -0.5795,1.9973 -1.4305,3.43094 -1.8911,3.18586 -0.4605,-0.24507 -0.4918,0.30588 -0.069,1.22433 0.5622,1.22265 0.3997,1.47402 -0.6067,0.93854 -0.945,-0.50287 -1.1124,-0.36288 -0.5358,0.44805 0.4993,0.70199 0.013,2.05447 -1.2001,3.34105 -1.1214,1.18889 -1.7638,2.75976 -1.4277,3.49081 0.3361,0.73105 0.1866,1.63107 -0.3322,2.00003 -0.5188,0.36897 -1.5187,2.1391 -2.2217,3.93362 -0.7032,1.79452 -1.1196,2.4863 -0.9253,1.5373 0.2308,-1.12781 -0.088,-1.52086 -0.9332,-1.13401 -0.7497,0.34471 -1.1029,1.80948 -0.8466,3.51104 0.2418,1.60576 0.046,2.94506 -0.4362,2.97621 -0.4817,0.0312 -0.7586,0.38726 -0.6153,0.79136 0.1432,0.4041 -0.2068,1.72026 -0.7777,2.92481 -0.571,1.20454 -0.8129,2.38788 -0.5378,2.62965 0.2752,0.24176 -0.3477,1.31307 -1.3844,2.38077 -1.0365,1.0677 -1.8563,2.3803 -1.8216,2.9169 0.035,0.5366 -0.8496,1.8767 -1.9649,2.978 -1.1155,1.1013 -1.5103,1.9689 -0.8774,1.928 0.6327,-0.041 1.1941,0.5991 1.2474,1.4224 0.053,0.8233 -0.2978,1.5224 -0.7801,1.5536 5.32859,1.96802 14.92475,0.52264 33.8869,1.6378 1.4172,-2.4736 3.3214,-6.0112 4.2316,-7.8613 0.9103,-1.8501 2.0074,-3.3866 2.4379,-3.4145 0.4305,-0.028 0.7374,-0.7507 0.6821,-1.6063 -0.06,-0.9219 0.3876,-1.2961 1.0975,-0.9183 0.69,0.3671 0.901,0.2196 0.4976,-0.3476 -0.3853,-0.54187 1.2774,-5.11575 3.695,-10.16419 2.4175,-5.04844 4.37,-9.5888 4.3388,-10.08968 -0.032,-0.50081 1.2031,-3.18418 2.7425,-5.96288 2.4246,-4.37622 3.0279,-4.89622 4.5086,-3.88661 1.5166,1.03404 1.5447,0.98117 0.2494,-0.46853 -1.2728,-1.42439 -0.8999,-2.8629 2.9062,-11.21094 2.9545,-6.47988 4.8727,-9.51999 5.9319,-9.401 0.861,0.0967 1.8177,-0.2982 2.126,-0.87759 0.3294,-0.61906 -0.063,-0.76706 -0.9498,-0.35898 -1.7699,0.81384 -1.9456,0.11781 -0.6757,-2.67416 0.5068,-1.11428 1.4371,-1.75153 2.0674,-1.41613 0.7057,0.3755 0.833,0.16953 0.3312,-0.53601 -0.4529,-0.63701 0.7511,-4.95676 2.7115,-9.72768 3.7579,-9.14556 5.0131,-15.83328 6.8366,-36.42443 1.0776,-12.16928 2.44511,-20.58414 5.49341,-31.1094 -2.06348,5.47227 -21.10229,-0.34187 -41.10451,-1.25316 z"
     id="path3104"
     sodipodi:nodetypes="ccscccccccccccscscsccccsssccsccccsscccccsccccccccccccccccccccccccccccsccccsscc" />
</svg>
