<?xml version="1.0" encoding="UTF-8" standalone="no"?>
<!-- Created with Inkscape (http://www.inkscape.org/) -->

<svg
   xmlns:dc="http://purl.org/dc/elements/1.1/"
   xmlns:cc="http://creativecommons.org/ns#"
   xmlns:rdf="http://www.w3.org/1999/02/22-rdf-syntax-ns#"
   xmlns:svg="http://www.w3.org/2000/svg"
   xmlns="http://www.w3.org/2000/svg"
   xmlns:sodipodi="http://sodipodi.sourceforge.net/DTD/sodipodi-0.dtd"
   xmlns:inkscape="http://www.inkscape.org/namespaces/inkscape"
   width="95.831139"
   height="415.67535"
   id="svg3452"
   version="1.1"
   inkscape:version="0.48.3.1 r9886"
   sodipodi:docname="New document 19">
  <defs
     id="defs3454" />
  <sodipodi:namedview
     id="base"
     pagecolor="#ffffff"
     bordercolor="#666666"
     borderopacity="1.0"
     inkscape:pageopacity="0.0"
     inkscape:pageshadow="2"
     inkscape:zoom="0.35"
     inkscape:cx="47.915564"
     inkscape:cy="207.83768"
     inkscape:document-units="px"
     showgrid="false"
     fit-margin-top="0"
     fit-margin-left="0"
     fit-margin-right="0"
     fit-margin-bottom="0"
     inkscape:window-width="497"
     inkscape:window-height="420"
     inkscape:window-x="1033"
     inkscape:window-y="315"
     inkscape:window-maximized="0"
     inkscape:current-layer="svg3452" />
  <metadata
     id="metadata3457">
    <rdf:RDF>
      <cc:Work
         rdf:about="">
        <dc:format>image/svg+xml</dc:format>
        <dc:type
           rdf:resource="http://purl.org/dc/dcmitype/StillImage" />
        <dc:title></dc:title>
      </cc:Work>
    </rdf:RDF>
  </metadata>
  <path
     inkscape:connector-curvature="0"
     style="fill:#000000"
     d="m 94.041114,113.70039 c -1.8808,-1.65235 -2.0639,-2.47733 -1.5284,-6.88554 0.3346,-2.75454 -0.2825,-14.871315 -1.3714,-26.926165 -1.0889,-12.05486 -1.9801,-22.59431 -1.9806,-23.42101 -4e-4,-0.8267 0.059,-3.31486 0.1324,-5.52925 0.1155,-3.48783 -0.3195,-4.39762 -3.2511,-6.80437 -3.3058,-2.71367 -6.5152,-4.09529 -5.1925,-2.23532 0.3652,0.51354 -0.1076,1.40094 -1.0506,1.972 -2.4213,1.46627 -22.136,0.0367 -27.6134,-2.00238 -2.9996,-1.11663 -4.7697,-1.30038 -5.5372,-0.57481 -0.7961,0.75257 -1.3481,0.50252 -1.8756,-0.84954 -1.343,-3.44305 -3.9504,-3.25248 -7.0724,0.51691 -1.5942,1.92483 -2.6761,4.0468 -2.404,4.71546 0.272,0.66865 -0.019,1.24892 -0.6455,1.28947 -0.627,0.0405 -0.8406,0.49461 -0.4748,1.00904 0.3658,0.51442 0.036,2.22679 -0.7335,3.80527 -1.3396,2.74889 -1.3775,2.76291 -0.9005,0.33252 0.5681,-2.8945 0.07,-2.57143 -1.4926,0.96903 -0.6958,1.57605 -0.7051,2.17908 -0.026,1.69619 0.5796,-0.41208 1.0862,-0.24719 1.1258,0.36645 0.04,0.61364 0.5712,0.76083 1.1811,0.32711 0.7654,-0.54425 0.9729,-0.0857 0.6699,1.47982 -0.341,1.7619 -0.1016,2.11324 1.0724,1.57341 1.3179,-0.60602 1.3208,-0.35843 0.022,1.93343 -0.9741,1.71944 -1.0738,2.51154 -0.2884,2.29041 1.8486,-0.52038 2.475,3.27287 0.7274,4.40485 -0.8478,0.54918 -1.4997,1.53707 -1.4487,2.19533 0.058,0.74708 0.4501,0.60889 1.0439,-0.36783 0.7489,-1.23185 0.8502,-1.08808 0.4761,0.67595 -1.0265,4.84126 -1.7394,13.11938 -1.4358,16.67215 0.1761,2.05542 -0.036,3.76014 -0.4695,3.7882 -0.4339,0.0281 -0.5883,3.15157 -0.3432,6.94113 0.2451,3.789545 0.2098,6.764605 -0.079,6.611245 -0.2882,-0.15337 -0.4044,2.85025 -0.2583,6.67472 0.2861,7.48357 -0.9825,14.31861 -2.5071,13.50742 -0.553,-0.29426 -0.5308,0.41902 0.054,1.7321 0.7224,1.62239 0.5781,2.62428 -0.5279,3.66657 -0.8371,0.78881 -0.9329,1.08077 -0.213,0.64881 1.0357,-0.62139 1.2019,-0.0837 0.7958,2.5732 -0.2822,1.84722 -1.092,4.01744 -1.7994,4.82272 -1.7298,1.96898 -1.5759,2.9049 0.2014,1.22477 1.8754,-1.77289 2.008,0.23968 0.1519,2.34937 -0.8114,0.92369 -1.0713,2.29993 -0.6195,3.28229 0.4324,0.94024 0.3537,1.46626 -0.1769,1.18421 -0.525,-0.27912 -0.9572,1.5511 -0.9603,4.06716 0,2.51605 -0.3745,5.38589 -0.8254,6.37742 -0.451,0.99153 -0.4066,6.55303 0.099,12.35887 0.5051,5.80585 0.5817,10.57777 0.17,10.60427 -0.4116,0.0265 -0.7177,0.52374 -0.6801,1.10498 0.038,0.58125 0.4568,0.78059 0.9316,0.443 1.1918,-0.84762 1.4135,6.69893 0.2236,7.61401 -0.6233,0.47934 -0.506,1.21597 0.3354,2.106 1.6286,1.72281 0.7878,4.65688 -1.3805,4.81741 -1.0063,0.0741 -1.2071,0.37755 -0.5206,0.78523 1.9879,1.18025 2.4825,3.6245 1.2585,6.21681 -0.6577,1.39264 -1.1365,3.20465 -1.0642,4.0267 0.086,0.9704 0.3872,0.77519 0.8602,-0.55668 0.7213,-2.0308 0.7306,-2.0309 0.931,-0.0101 0.1117,1.12263 -0.1913,2.49504 -0.6725,3.04976 -0.7935,0.91467 -1.1982,16.21228 -0.5563,21.02974 0.1458,1.09287 0.3544,3.671 0.4637,5.72918 0.1289,2.41171 0.5636,3.48298 1.2242,3.01323 0.6547,-0.46555 0.8241,-0.0839 0.4691,1.05655 -0.3057,0.98199 -0.542,1.99974 -0.5251,2.26166 0.017,0.26194 -0.5083,0.18935 -1.1673,-0.16129 -0.7483,-0.39817 -0.8986,-0.21638 -0.4005,0.48415 0.4387,0.61692 1.199,0.83629 1.6895,0.48747 1.2405,-0.88219 1.4392,4.14568 0.2657,6.726 -0.5602,1.23203 -0.5651,1.83739 -0.012,1.44376 0.5243,-0.37282 1.2646,-8.1e-4 1.6452,0.82681 0.3805,0.82758 0.2538,1.27159 -0.2816,0.9867 -0.9665,-0.51424 -1.9063,4.73419 -1.3571,7.57924 0.4856,2.51606 -0.6318,12.06593 -1.4178,12.11676 -0.408,0.0264 -0.3713,2.51895 0.082,5.53903 0.5248,3.49951 0.4173,6.05059 -0.2969,7.03382 -0.7045,0.97003 -0.7305,1.51755 -0.07,1.47484 0.7269,-0.047 0.8043,0.95126 0.2507,3.24058 -0.4397,1.81967 -1.0265,6.25428 -1.304,9.8547 -0.4974,6.45281 -0.9023,10.09975 -1.2324,11.10268 -0.3769,1.14487 -0.3842,7.98907 -0.016,15.29596 0.2523,5.01768 0.015,7.55418 -0.6737,7.18779 -0.6117,-0.32551 -0.5046,0.33434 0.252,1.55208 0.724,1.16506 1.0389,2.89014 0.7,3.8335 -0.3389,0.94336 -0.4421,2.76922 -0.2293,4.05747 0.2436,1.47471 -0.031,2.12008 -0.7404,1.74239 -0.6271,-0.33369 -1.0827,0.0905 -1.0267,0.95591 0.055,0.85567 0.5952,1.52378 1.1998,1.48468 0.762,-0.0493 1.0333,2.16183 0.8845,7.20794 -0.2984,10.11723 -0.5026,13.91285 -0.9062,16.8436 -0.552,4.00693 -0.9927,10.20401 -1.074,15.10081 -0.079,4.7474 -0.7189,12.5332 -1.2423,15.1117 -0.505,2.488 -0.1188,8.3178 0.7519,11.3478 0.841,2.9273 2.02,4.6479 1.8986,2.7708 -0.046,-0.7154 1.0253,-0.8612 3.2284,-0.4394 9.7024,1.8577 10.4976,1.8795 14.5239,0.3979 2.2707,-0.8356 5.3846,-1.4965 6.9197,-1.4687 1.5351,0.028 3.4033,-0.6302 4.1516,-1.4623 0.8372,-0.931 1.5207,-1.1192 1.777,-0.4893 0.2681,0.6591 1.4435,0.6558 3.3008,-0.01 1.7187,-0.6155 2.9089,-0.6578 2.9446,-0.1048 0.033,0.5105 1.2093,0.8539 2.6137,0.7631 1.6132,-0.1043 2.2759,-0.5558 1.7995,-1.2258 -0.5223,-0.7345 -0.01,-0.8656 1.6669,-0.4264 1.3316,0.3489 3.208,0.598 4.1696,0.5535 0.9617,-0.044 1.773,0.2985 1.803,0.7621 0.03,0.4637 0.4856,0.5364 1.0125,0.1617 0.5269,-0.3747 1.5421,-0.3669 2.2558,0.017 3.9466,2.1245 8.2069,-0.5144 8.772,-5.4334 0.211,-1.8362 0.4692,-9.2063 0.5738,-16.378 0.1045,-7.1717 1.0098,-21.66037 2.0115,-32.19699 3.4313,-36.08903 3.4572,-37.19431 1.5314,-65.35595 -1.009,-14.74915 -1.7774,-34.26085 -1.7086,-43.35926 0.069,-9.09841 0.1729,-22.40787 0.2312,-29.57658 0.058,-7.16871 0.4986,-17.79428 0.9786,-23.61238 0.4798,-5.81809 1.1106,-13.52487 1.4016,-17.12616 0.2911,-3.60129 1.2453,-12.89667 2.1204,-20.6564 0.8751,-7.75971 1.4599,-16.13993 1.2994,-18.62268 -0.2572,-3.97883 1.056,-17.95795 2.0886,-22.23482 0.2068,-0.85673 -0.5855,-2.40246 -1.7608,-3.43497 z"
     id="path3138" />
  <path
     inkscape:connector-curvature="0"
     style="fill:#000000"
     d="m 29.572314,257.98348 c -0.3212,-0.66817 -0.3938,-1.79082 -0.1614,-2.49479 0.2325,-0.70397 0.4953,-0.15729 0.584,1.21484 0.089,1.37213 -0.1015,1.94811 -0.4226,1.27995 z"
     id="path3136" />
  <path
     inkscape:connector-curvature="0"
     style="fill:#000000"
     d="m 92.784314,397.68071 c -0.3493,-0.3069 -1.2859,-0.2587 -2.0813,0.107 -1.1787,0.5421 -1.19,0.8051 -0.061,1.4227 2.4154,1.3208 4.0542,0.1504 2.1418,-1.5297 z"
     id="path3134" />
  <path
     inkscape:connector-curvature="0"
     style="fill:#000000"
     d="m 39.446714,36.272395 c -0.8029,0.36917 -1.4302,1.12721 -1.3942,1.68455 0.038,0.58409 0.6656,0.4461 1.4821,-0.32576 0.7791,-0.7365 1.4064,-1.49455 1.3942,-1.68455 -0.012,-0.18999 -0.6793,-0.0434 -1.4821,0.32576 z"
     id="path3130" />
  <path
     inkscape:connector-curvature="0"
     style="fill:#000000"
     d="m 31.096714,116.33982 c -0.5489,0.0355 -0.9689,0.5136 -0.9334,1.06246 0.035,0.54885 0.5136,0.96887 1.0624,0.93337 0.5489,-0.0355 0.9689,-0.5136 0.9334,-1.06245 -0.035,-0.54885 -0.5136,-0.96887 -1.0624,-0.93338 z"
     id="path3128" />
  <path
     inkscape:connector-curvature="0"
     style="fill:#000000"
     d="m 1.5859144,0.0018548 c -0.5164,0.0334 -1.18749999,0.52774 -1.49119999,1.09853 -0.3037,0.57079 0.1474,0.99256 1.00359999,0.93719 0.8556,-0.0553 1.5267,-0.54968 1.4912,-1.09853 -0.035,-0.54885 -0.487,-0.97059 -1.0036,-0.93719 z"
     id="path3126" />
</svg>
