<?xml version="1.0" encoding="UTF-8" standalone="no"?>
<!-- Created with Inkscape (http://www.inkscape.org/) -->

<svg
   xmlns:dc="http://purl.org/dc/elements/1.1/"
   xmlns:cc="http://creativecommons.org/ns#"
   xmlns:rdf="http://www.w3.org/1999/02/22-rdf-syntax-ns#"
   xmlns:svg="http://www.w3.org/2000/svg"
   xmlns="http://www.w3.org/2000/svg"
   xmlns:sodipodi="http://sodipodi.sourceforge.net/DTD/sodipodi-0.dtd"
   xmlns:inkscape="http://www.inkscape.org/namespaces/inkscape"
   width="328.66196"
   height="129.05194"
   id="svg3568"
   version="1.1"
   inkscape:version="0.48.5 r10040"
   sodipodi:docname="normal-needle_speed.svg">
  <defs
     id="defs3570" />
  <sodipodi:namedview
     id="base"
     pagecolor="#ffffff"
     bordercolor="#666666"
     borderopacity="1.0"
     inkscape:pageopacity="0.0"
     inkscape:pageshadow="2"
     inkscape:zoom="0.35"
     inkscape:cx="166.54387"
     inkscape:cy="-151.50097"
     inkscape:document-units="px"
     inkscape:current-layer="layer1"
     showgrid="false"
     inkscape:window-width="714"
     inkscape:window-height="743"
     inkscape:window-x="0"
     inkscape:window-y="22"
     inkscape:window-maximized="0"
     fit-margin-top="0"
     fit-margin-left="0"
     fit-margin-right="0"
     fit-margin-bottom="0" />
  <metadata
     id="metadata3573">
    <rdf:RDF>
      <cc:Work
         rdf:about="">
        <dc:format>image/svg+xml</dc:format>
        <dc:type
           rdf:resource="http://purl.org/dc/dcmitype/StillImage" />
        <dc:title />
      </cc:Work>
    </rdf:RDF>
  </metadata>
  <g
     inkscape:label="Layer 1"
     inkscape:groupmode="layer"
     id="layer1"
     transform="translate(-208.45613,-251.80926)">
    <path
       inkscape:connector-curvature="0"
       style="fill:#000000"
       d="m 209.27929,372.51115 c 1.87861,3.02062 2.57176,3.28662 13.72937,5.26701 6.10595,1.08679 9.28053,2.01364 8.7822,2.5726 -0.44355,0.49763 -0.22851,0.65558 0.4983,0.36608 0.70323,-0.28014 1.11321,-0.92484 0.91091,-1.43268 -0.20227,-0.50784 0.12493,-0.99655 0.72772,-1.08583 1.36071,-0.20178 2.07368,-3.01289 1.85532,-7.31557 -0.14968,-2.9496 0.0343,-3.20817 1.80242,-2.53289 1.08304,0.41356 2.04287,0.33379 2.13281,-0.17633 0.09,-0.51051 0.82843,-0.81106 1.6409,-0.6678 0.81246,0.14325 1.55009,-0.15286 1.63915,-0.65796 0.18691,-1.06015 4.28532,-1.85952 6.06073,-1.18203 0.66105,0.25223 1.58595,-0.18054 2.05523,-0.96171 0.46919,-0.7812 1.93984,-1.22873 3.26795,-0.99454 1.35902,0.23968 2.22457,-0.0517 1.97979,-0.66633 -0.23924,-0.60068 0.25538,-0.97039 1.10035,-0.82141 0.84437,0.14886 1.61808,-0.19864 1.71921,-0.77219 0.10118,-0.57365 0.57877,-0.6909 1.06139,-0.26066 0.48261,0.43024 0.96023,0.313 1.06138,-0.26065 0.10117,-0.57355 0.88025,-0.92013 1.73141,-0.77004 0.85118,0.15005 2.3295,-0.27466 3.28523,-0.94387 0.95571,-0.66921 2.61858,-1.06141 3.69507,-0.8716 1.0766,0.18976 1.80066,-0.0484 1.60915,-0.52922 -0.19159,-0.48097 1.71988,-1.10828 4.2476,-1.39398 2.52773,-0.28581 4.66031,-0.88519 4.73909,-1.33201 0.0788,-0.4467 1.76807,-1.09532 3.754,-1.44121 1.98603,-0.34589 3.41737,-1.11462 3.18096,-1.70829 -0.23783,-0.59706 0.15207,-0.72958 0.87325,-0.29647 1.46505,0.87998 4.38391,-0.86498 3.51729,-2.10277 -0.30787,-0.43953 -0.1354,-0.61374 0.38314,-0.38715 1.36305,0.59575 4.66429,-0.28062 8.62292,-2.28922 1.89798,-0.96306 3.98907,-1.65607 4.64703,-1.54005 0.65784,0.11598 1.00268,-0.27497 0.7662,-0.86876 -0.24666,-0.61903 0.17772,-0.71449 0.99484,-0.22363 0.78375,0.47085 1.51158,0.36502 1.61723,-0.23413 0.10567,-0.59966 0.87087,-0.97052 1.70036,-0.82426 0.82941,0.14624 1.86475,-0.32778 2.30058,-1.05341 0.4359,-0.72554 1.32837,-0.99738 1.98321,-0.604 0.65493,0.3934 2.28351,-0.26216 3.61915,-1.45678 1.33565,-1.19471 3.16629,-2.042 4.06818,-1.88297 1.0498,0.18511 1.45181,-0.20075 1.11726,-1.07227 -0.30444,-0.79344 0.1429,-0.60866 1.07239,0.44294 0.87709,0.99238 1.39348,1.27655 1.14737,0.63145 -0.26212,-0.6873 2.51424,-2.0895 6.70632,-3.38691 3.93462,-1.21771 7.8556,-2.66144 8.71329,-3.20832 0.8577,-0.54687 2.19259,-0.88267 2.96636,-0.74623 0.77375,0.13646 1.46596,-0.0869 1.53815,-0.49633 0.0723,-0.40942 1.67458,-1.07482 3.56086,-1.47865 5.34965,-1.14529 7.36485,-1.74591 12.05717,-3.59339 2.40059,-0.94518 5.16974,-1.5964 6.15377,-1.44712 1.09759,0.16629 1.59444,-0.2172 1.28551,-0.99274 -0.34493,-0.86616 0.13487,-0.97133 1.5222,-0.33438 1.11413,0.51138 2.09505,0.53655 2.1798,0.0559 0.0847,-0.4806 1.31103,-0.95654 2.72506,-1.05765 1.41404,-0.10109 2.64065,-0.57892 2.7258,-1.06185 0.0851,-0.48292 0.68022,-0.7854 1.32231,-0.67219 0.6422,0.1132 2.26354,-0.51164 3.60306,-1.38859 1.33954,-0.87696 7.11467,-2.97431 12.83362,-4.66081 5.71894,-1.6865 10.12993,-3.44917 9.8024,-3.91703 -0.32763,-0.46787 0.0607,-0.45603 0.86473,0.0266 0.80331,0.48252 2.17369,0.40557 3.04553,-0.1709 0.87177,-0.57651 2.89799,-1.45673 4.50288,-1.95602 1.60478,-0.49932 2.76829,-1.28325 2.58549,-1.7421 -0.53258,-1.33723 2.15237,-1.3958 3.87831,-0.0846 0.86887,0.66014 1.5651,0.83541 1.54707,0.38945 -0.0698,-1.72956 2.16146,-3.97948 3.70686,-3.73772 0.89293,0.13965 2.57662,-0.23422 3.74143,-0.83091 1.16481,-0.59669 2.51564,-0.7303 3.00167,-0.29696 0.48613,0.43335 0.69546,0.31507 0.46532,-0.26285 -0.39451,-0.99046 4.34713,-4.00746 6.21283,-3.95309 0.4743,0.0138 1.31527,0.0478 1.86884,0.0757 0.5536,0.0278 1.13285,-0.66586 1.28723,-1.54147 0.20562,-1.16602 0.91564,-1.35054 2.65367,-0.68955 1.37641,0.52345 2.958,0.40614 3.76599,-0.27921 0.7661,-0.64995 2.00492,-0.81407 2.75296,-0.36473 1.1725,0.70436 1.21215,0.5509 0.28771,-1.1134 -0.77352,-1.39209 -0.75581,-1.65489 0.0632,-0.94243 0.66575,0.57908 3.36335,0.28121 6.51725,-0.71952 2.95984,-0.93913 5.76906,-1.36202 6.24272,-0.93971 0.47366,0.42227 0.84293,0.15937 0.8206,-0.58413 -0.0225,-0.74773 0.71419,-1.15662 1.64841,-0.91489 0.92888,0.24035 1.53911,0.0609 1.35606,-0.39883 -0.18315,-0.45973 1.11238,-0.86891 2.87883,-0.90929 1.76656,-0.0404 4.97387,-0.98423 7.1274,-2.09741 2.15361,-1.11315 3.45209,-1.50392 2.88542,-0.86837 -0.99732,1.11872 4.83862,-1.34876 7.97256,-3.37083 0.84971,-0.54828 2.12374,-0.89481 2.83123,-0.77006 0.70749,0.12474 1.97545,-0.35789 2.81784,-1.07249 0.8423,-0.71462 2.02602,-1.00225 2.63046,-0.63918 0.60434,0.36306 2.52937,0.0442 4.27785,-0.70869 1.80015,-0.77511 3.93525,-0.97411 4.92256,-0.4588 1.13842,0.59412 1.57651,0.49028 1.26211,-0.2991 -0.2754,-0.69152 0.19246,-1.09028 1.09296,-0.9315 0.86605,0.15266 3.4875,-0.30823 5.82547,-1.02431 3.02945,-0.9279 4.19594,-0.94102 4.06011,-0.0457 -0.11326,0.74379 0.33049,0.64054 1.08699,-0.25324 2.19245,-2.59055 4.61827,0.46698 4.41033,5.55876 -0.0226,0.55449 0.47583,1.09933 1.10778,1.21076 0.63185,0.1115 1.42264,0.59356 1.75725,1.07142 0.3346,0.47786 1.55379,1.03555 2.70937,1.23931 1.15546,0.20378 2.5613,1.0228 3.12399,1.82013 0.82064,1.16289 0.94675,1.05174 0.63726,-0.56193 -0.25036,-1.30573 -0.0599,-1.72118 0.54263,-1.18397 0.99017,0.88274 2.56538,-2.96113 2.66729,-6.50896 0.0664,-2.30666 -5.06744,-10.8924 -7.22589,-12.08466 -1.19143,-0.65809 -1.0916,-1.00193 0.70451,-2.42796 1.84286,-1.46309 2.0218,-2.13402 1.49931,-5.62362 -0.32623,-2.17926 -1.30646,-4.58962 -2.17838,-5.35632 -1.32149,-1.16206 -2.26072,-0.87947 -5.64413,1.69813 -3.83535,2.92196 -8.11234,3.90155 -6.2624,1.43434 0.46239,-0.61658 0.1346,-0.55063 -0.72744,0.14673 -1.57385,1.27235 -6.35799,3.00612 -19.33466,7.00692 -3.83885,1.18354 -8.25572,2.70304 -9.81527,3.37664 -1.55957,0.67362 -3.08022,0.8754 -3.37921,0.44839 -0.29899,-0.42699 -0.64782,-0.18549 -0.77516,0.53671 -0.12733,0.72219 -0.45753,0.99036 -0.73374,0.59593 -0.27611,-0.39442 -1.26409,-0.18317 -2.1953,0.46843 -0.93117,0.65207 -2.0562,0.86192 -2.49984,0.46635 -0.44376,-0.39558 -0.88753,-0.26129 -0.98621,0.2984 -0.24197,1.3721 -6.18612,3.16237 -7.00648,2.11023 -0.3585,-0.45981 -0.4448,-0.26122 -0.19174,0.44129 0.38039,1.05611 -2.20375,2.07126 -4.75042,1.86613 -0.27535,-0.0221 -1.51442,0.61738 -2.75353,1.42123 -1.23912,0.80388 -2.8054,1.12971 -3.48052,0.72413 -0.67523,-0.4056 -1.06009,-0.31678 -0.85536,0.19735 0.35813,0.89902 -17.23793,6.67008 -19.37975,6.35609 -0.57516,-0.0838 -3.69086,1.11947 -6.92401,2.67506 -3.23304,1.55559 -5.50041,2.40454 -5.03864,1.88657 1.28082,-1.43666 0.32118,-1.25143 -2.60639,0.50321 -2.03568,1.22002 -2.77883,1.26472 -3.22026,0.19377 -0.42473,-1.03036 -0.6526,-0.9693 -0.87642,0.23491 -0.2802,1.50835 -7.89139,5.04819 -11.14403,5.18302 -0.78364,0.0325 -2.12353,0.51126 -2.97737,1.06393 -0.85395,0.55268 -1.91559,0.68121 -2.35925,0.28565 -0.44375,-0.39557 -0.88751,-0.26129 -0.9862,0.29841 -0.23072,1.30872 -6.18316,3.19109 -6.89155,2.17938 -0.29534,-0.42178 -1.89133,0.25974 -3.54666,1.51448 -1.7152,1.30006 -3.58197,1.93757 -4.3401,1.48215 -0.84885,-0.5099 -1.14789,-0.3412 -0.8264,0.46607 0.3396,0.85264 -0.01,0.95658 -1.07163,0.31876 -0.93755,-0.56317 -1.4011,-0.50841 -1.14477,0.1352 0.40459,1.01565 -4.67054,2.73014 -6.21738,2.10043 -0.39082,-0.15909 -0.78165,0.11385 -0.86852,0.60652 -0.2359,1.33766 -15.91881,6.42371 -18.43805,5.97949 -1.19911,-0.21138 -1.93811,-0.0387 -1.64229,0.38374 0.62672,0.89503 -3.04382,2.42095 -15.70175,6.52765 -5.03517,1.63359 -11.01842,3.72433 -13.29598,4.64611 -2.27767,0.92176 -4.58234,1.2826 -5.12156,0.80187 -0.53921,-0.48074 -0.79869,-0.41769 -0.57649,0.14013 0.22221,0.55781 -1.56793,1.72885 -3.97802,2.60232 -2.43796,0.88353 -3.93668,1.0589 -3.37816,0.39527 0.55212,-0.65608 -0.32673,-0.35148 -1.9529,0.67687 -1.7465,1.10432 -3.39819,1.47629 -4.0349,0.90864 -0.74041,-0.66012 -0.89759,-0.50813 -0.5019,0.48539 0.41603,1.04458 0.15978,1.19636 -0.92229,0.54633 -0.82424,-0.49509 -1.88956,-0.46152 -2.36751,0.0746 -0.5262,0.59026 -0.37161,0.77665 0.3919,0.47254 0.69349,-0.27621 1.2185,-0.26194 1.16672,0.0317 -0.1277,0.72416 -11.19745,4.14588 -12.08206,3.73461 -0.38713,-0.17997 -0.76949,0.0448 -0.84965,0.4995 -0.14477,0.82064 -4.12327,2.16085 -5.81682,1.95941 -0.48595,-0.0573 -1.22927,0.27116 -1.65203,0.73094 -0.42275,0.45976 -3.427,1.65931 -6.67612,2.66569 -3.24911,1.00639 -6.1763,2.05867 -6.50491,2.33856 -0.32857,0.2798 -3.73808,1.47592 -7.57666,2.65801 -3.83858,1.1821 -8.43933,2.8351 -10.22378,3.67327 -1.97478,0.92758 -2.81759,1.02439 -2.15377,0.24736 0.7517,-0.87985 0.41113,-0.86607 -1.09561,0.0441 -2.11354,1.27688 -6.92118,2.55303 -7.92946,2.10484 -0.27103,-0.12088 -1.75258,0.59805 -3.29222,1.59686 -1.53963,0.99883 -3.35175,1.48423 -4.02688,1.07863 -0.7597,-0.45635 -1.0356,-0.2547 -0.72374,0.52774 0.33961,0.85264 -0.01,0.95653 -1.07163,0.31876 -0.93589,-0.56216 -1.40095,-0.50808 -1.14553,0.13321 0.38695,0.97165 -1.00692,1.26476 -2.90742,0.61132 -0.39495,-0.13562 -0.80081,0.22252 -0.90195,0.79607 -0.10118,0.57365 -0.57875,0.69089 -1.06137,0.26065 -0.48263,-0.43024 -0.95652,-0.33416 -1.05309,0.21357 -0.0966,0.54776 -1.16241,-0.30548 -2.36862,-1.8956 -1.93783,-2.55523 -2.45916,-2.78036 -4.48196,-1.93568 -1.25892,0.52568 -3.81853,3.07584 -5.68806,5.66686 -1.86944,2.59114 -3.68138,4.30788 -4.02644,3.81507 -0.34506,-0.49289 -0.46942,-0.0825 -0.27625,0.91189 0.19316,0.99435 -0.0444,1.7382 -0.52785,1.65295 -0.48355,-0.0853 -1.08236,0.6088 -1.33065,1.54238 -0.2479,0.93363 -0.90065,2.76054 -1.44963,4.05994 -0.65447,1.5493 -0.50938,3.14788 0.42055,4.64358 z"
       id="path3452" />
  </g>
</svg>
