<?xml version="1.0" encoding="UTF-8" standalone="no"?>
<!-- Created with Inkscape (http://www.inkscape.org/) -->

<svg
   xmlns:dc="http://purl.org/dc/elements/1.1/"
   xmlns:cc="http://creativecommons.org/ns#"
   xmlns:rdf="http://www.w3.org/1999/02/22-rdf-syntax-ns#"
   xmlns:svg="http://www.w3.org/2000/svg"
   xmlns="http://www.w3.org/2000/svg"
   xmlns:sodipodi="http://sodipodi.sourceforge.net/DTD/sodipodi-0.dtd"
   xmlns:inkscape="http://www.inkscape.org/namespaces/inkscape"
   width="204.01826"
   height="608.50952"
   id="svg3142"
   version="1.1"
   inkscape:version="0.48.5 r10040"
   sodipodi:docname="special-rpm.svg">
  <defs
     id="defs3144" />
  <sodipodi:namedview
     id="base"
     pagecolor="#ffffff"
     bordercolor="#666666"
     borderopacity="1.0"
     inkscape:pageopacity="0.0"
     inkscape:pageshadow="2"
     inkscape:zoom="0.9899495"
     inkscape:cx="179.00826"
     inkscape:cy="351.1874"
     inkscape:document-units="px"
     showgrid="false"
     fit-margin-top="0"
     fit-margin-left="0"
     fit-margin-right="0"
     fit-margin-bottom="0"
     inkscape:window-width="1280"
     inkscape:window-height="744"
     inkscape:window-x="0"
     inkscape:window-y="22"
     inkscape:window-maximized="1"
     inkscape:current-layer="svg3142" />
  <metadata
     id="metadata3147">
    <rdf:RDF>
      <cc:Work
         rdf:about="">
        <dc:format>image/svg+xml</dc:format>
        <dc:type
           rdf:resource="http://purl.org/dc/dcmitype/StillImage" />
        <dc:title></dc:title>
      </cc:Work>
    </rdf:RDF>
  </metadata>
  <path
     inkscape:connector-curvature="0"
     style="fill:#000000"
     d="m 3.7213572,341.11493 c -0.24203,0.016 -0.74664,-0.4027 -1.12135,-0.9296 -0.3747,-0.5269 -0.20571,-0.9888 0.37553,-1.0264 0.58125,-0.038 1.08585,0.3808 1.12135,0.9296 0.0355,0.5489 -0.13349,1.0107 -0.37553,1.0264 z"
     id="path3034" />
  <path
     inkscape:connector-curvature="0"
     style="fill:#000000"
     d="m 45.679377,285.79173 c -0.57079,-0.3037 -1.00705,-0.077 -0.96946,0.5046 0.0376,0.5812 0.51741,1.0277 1.06627,0.9922 0.54885,-0.036 0.9851,-0.2625 0.96945,-0.5046 -0.0156,-0.242 -0.49547,-0.6885 -1.06626,-0.9922 z"
     id="path3030" />
  <path
     inkscape:connector-curvature="0"
     style="fill:#d40000"
     d="m 187.42417,143.14932 c -0.637,-8.50162 -2.0613,-21.03582 -3.1661,-27.85375 -7.1368,-44.038705 -7.2092,-44.343405 -13.2949,-56.008725 -1.4603,-2.79909 -2.3435,-5.11631 -1.9626,-5.14938 0.381,-0.0326 0.2006,-0.35962 -0.4007,-0.72565 -3.0654,-1.8661 -7.1884,-10.13606 -8.6698,-17.38962 -0.8688,-4.25479 -2.4302,-10.80445 -3.4698,-14.554801 -1.2889,-4.64983 -1.5863,-7.1647 -0.9349,-7.90615 2.4149,-2.74886 -0.6664,-7.0951803 -4.8388,-6.8253503 -1.5318,0.0991 -2.0448,-0.41647 -1.9363,-1.9453799 0.083,-1.1627 -0.877,-2.86853 -2.176,-3.86761995 -1.2781,-0.98311 -1.9388,-1.21853 -1.4682,-0.52317 0.5454,0.80594995 0.3625,1.22341995 -0.5048,1.15153995 -2.849,-0.23613 -7.5979,1.79444 -7.0391,3.00979 0.8049,1.7504399 -6.954,8.9848502 -9.836,9.1712502 -2.6183,0.16932 -8.0193,3.43565 -7.9313,4.79648 0.03,0.46291 -0.3826,0.60913 -0.9167,0.32494 -1.4544,-0.77389 0.4865,3.86362 5.2302,12.496881 2.741,4.98842 4.339,9.23317 4.6566,12.36948 0.266,2.62617 0.7612,4.58227 1.1005,4.34686 0.6227,-0.43199 2.6077,4.29937 2.394,5.70626 -0.063,0.41745 0.3712,0.72756 0.9658,0.68911 0.5946,-0.0385 0.9313,0.49941 0.7484,1.19526 -0.1831,0.69586 0.3032,1.82396 1.0806,2.50691 0.7774,0.68296 1.4408,1.77142 1.4743,2.41883 0.035,0.69008 -0.3797,0.58359 -1.0034,-0.25721 -0.6686,-0.90102 -1.0407,-0.9832 -1.0011,-0.22104 0.033,0.66741 1.0206,1.64869 2.1908,2.18086 1.1702,0.53218 1.9688,1.51101 1.7746,2.17519 -0.1942,0.66419 0.2812,1.85101 1.0564,2.63739 0.7753,0.78638 1.7818,2.95755 2.2367,4.82482 0.4549,1.86727 1.4086,4.02611 2.1192,4.79742 1.056,1.14612 1.0084,1.26254 -0.2605,0.63713 -1.1442,-0.56395 -1.0703,-0.28048 0.281,1.07766 1.0085,1.0136 2.7267,5.37666 3.8181,9.69569 2.0215,7.99907 6.1981,38.162425 7.9027,57.073455 1.78562,-1.41346 30.63484,-1.30781 31.7811,-2.05536 z"
     id="path3104"
     sodipodi:nodetypes="ccscccscccccscscsscccccscccsscscssccc" />
</svg>
