<?xml version="1.0" encoding="UTF-8" standalone="no"?>
<!-- Created with Inkscape (http://www.inkscape.org/) -->

<svg
   xmlns:dc="http://purl.org/dc/elements/1.1/"
   xmlns:cc="http://creativecommons.org/ns#"
   xmlns:rdf="http://www.w3.org/1999/02/22-rdf-syntax-ns#"
   xmlns:svg="http://www.w3.org/2000/svg"
   xmlns="http://www.w3.org/2000/svg"
   xmlns:sodipodi="http://sodipodi.sourceforge.net/DTD/sodipodi-0.dtd"
   xmlns:inkscape="http://www.inkscape.org/namespaces/inkscape"
   width="1052.3622"
   height="744.09448"
   id="svg2"
   version="1.1"
   inkscape:version="0.48.5 r10040"
   sodipodi:docname="Neues Dokument 1">
  <defs
     id="defs4" />
  <sodipodi:namedview
     id="base"
     pagecolor="#ffffff"
     bordercolor="#666666"
     borderopacity="1.0"
     inkscape:pageopacity="0.0"
     inkscape:pageshadow="2"
     inkscape:zoom="0.7"
     inkscape:cx="374.44625"
     inkscape:cy="295.9951"
     inkscape:document-units="px"
     inkscape:current-layer="layer1"
     showgrid="false"
     inkscape:window-width="1338"
     inkscape:window-height="898"
     inkscape:window-x="25"
     inkscape:window-y="25"
     inkscape:window-maximized="0" />
  <metadata
     id="metadata7">
    <rdf:RDF>
      <cc:Work
         rdf:about="">
        <dc:format>image/svg+xml</dc:format>
        <dc:type
           rdf:resource="http://purl.org/dc/dcmitype/StillImage" />
        <dc:title></dc:title>
      </cc:Work>
    </rdf:RDF>
  </metadata>
  <g
     inkscape:label="Ebene 1"
     inkscape:groupmode="layer"
     id="layer1"
     transform="translate(0,-308.2677)">
    <path
       style="fill:#000000"
       d="m 696.91895,908.75521 c 0,-0.45965 9.01629,-2.90855 27.06198,-7.35016 32.07842,-7.89558 30.93034,-7.58887 30.93034,-8.26202 0,-0.29321 -0.89623,-1.31826 -1.99163,-2.27796 -1.09541,-0.95969 -3.83454,-4.06185 -6.08692,-6.89371 -10.79064,-13.56658 -22.81011,-22.25837 -39.34508,-28.45206 -6.56023,-2.4573 -12.32104,-3.6817 -24.1183,-5.12603 -45.21634,-5.53578 -98.76569,-7.43901 -194.30136,-6.90581 -60.3725,0.33695 -73.02751,0.79499 -101.08008,3.65818 -38.39352,3.91865 -55.88119,8.24889 -68.09859,16.86243 -8.93711,6.30084 -28.9166,24.86201 -28.9166,26.86389 0,0.2989 1.15849,0.7843 2.57442,1.0786 4.51192,0.93774 73.47503,14.70962 75.97108,15.17133 3.56084,0.65868 3.52973,1.78882 -0.0482,1.7466 -4.97352,-0.0587 -11.08591,-0.88051 -25.92494,-3.48577 -7.89943,-1.38694 -17.04541,-2.85621 -20.32442,-3.26508 -15.63137,-1.94924 -26.83201,-3.99632 -58.8053,-10.74733 C 245.83326,887.44678 208.35841,878.19169 182.6806,871.18449 137.89373,858.96263 101.82436,846.02281 82.213899,835.14231 51.792697,818.26362 37.679376,797.23024 36.425327,766.90269 c -0.433689,-10.48783 1.089771,-24.22361 6.07126,-54.74041 8.300702,-50.85043 18.628921,-92.91187 29.478251,-120.04951 4.617976,-11.55095 13.629765,-28.38975 22.189596,-41.4618 9.462076,-14.44996 22.971626,-29.27372 34.081386,-37.39691 17.48403,-12.78386 48.38262,-27.64808 76.82226,-36.95644 42.28551,-13.84017 97.10902,-24.11816 174.24795,-32.66699 86.93965,-9.63499 181.97806,-10.10778 272.61811,-1.35621 26.86182,2.59358 39.36529,4.23206 66.12209,8.66475 74.84515,12.39927 136.77966,28.49652 165.97342,43.13777 27.27741,13.6801 53.96446,35.9438 69.76319,58.19999 15.03312,21.17766 22.92821,40.9769 36.04959,90.40436 11.19687,42.17842 18.59227,84.73232 20.32237,116.93708 0.9128,16.9931 -0.4855,25.68767 -5.9225,36.82247 -6.7389,13.80125 -19.75959,28.62381 -31.15975,35.47168 -16.46469,9.88996 -25.70226,13.54922 -72.37768,28.67108 -29.27463,9.48434 -33.81359,10.72435 -97.45749,26.62514 -44.45887,11.10759 -70.82635,16.83343 -96.13728,20.87686 -9.81686,1.56823 -10.19127,1.59278 -10.19127,0.66961 z m 73.73523,-19.38694 c 5.19112,-1.12147 81.36713,-20.10648 94.82191,-23.63202 12.87976,-3.37489 64.93182,-20.42469 77.63909,-25.43094 8.47247,-3.33786 19.79367,-8.79012 26.96379,-12.98562 5.7378,-3.35737 17.55499,-14.92489 22.6865,-22.2071 4.25993,-6.04519 9.43053,-16.46917 11.02263,-22.22137 1.0746,-3.88277 1.2,-5.61018 1.2004,-16.53051 0,-32.19301 -8.9291,-82.58969 -24.56355,-138.62338 -9.60643,-34.42945 -16.69433,-51.52867 -28.8622,-69.62947 -18.04109,-26.8376 -50.5531,-52.36193 -83.37679,-65.45688 -34.08487,-13.59812 -102.18244,-29.47284 -170.72503,-39.79896 -31.17765,-4.69699 -74.47704,-8.45116 -123.57242,-10.71405 -19.55387,-0.90127 -88.11624,-0.89261 -107.58388,0.0136 -57.39055,2.67146 -112.904,8.56066 -167.47315,17.76655 -62.8614,10.6048 -102.41905,22.34019 -140.64492,41.7245 -19.14679,9.7093 -28.03767,15.82432 -39.34075,27.058 -10.18893,10.12634 -17.35266,19.55115 -26.365476,34.687 -13.089297,21.98174 -19.96242,39.08813 -28.563652,71.09155 -8.299085,30.87934 -18.187211,84.39243 -21.752703,117.72252 -1.280441,11.96983 0.165795,26.28493 3.633622,35.96505 5.757932,16.07293 15.213342,27.10214 32.988253,38.47915 17.144371,10.97345 53.182266,24.68858 97.015186,36.9216 40.54422,11.31517 99.60783,25.28173 106.91497,25.28173 2.1687,0 2.49118,-0.24959 9.18154,-7.10629 5.96042,-6.1086 16.63708,-15.53815 24.32149,-21.48057 4.1987,-3.24692 14.44709,-8.10061 23.80325,-11.27333 8.64747,-2.93246 53.68804,-7.96154 85.09153,-9.50099 30.60169,-1.50016 145.08703,-1.13367 188.33954,0.60297 23.2481,0.9334 56.22974,3.35141 70.45796,5.16553 17.58317,2.24187 24.03327,3.97703 34.41601,9.25829 14.39386,7.32156 23.12002,14.47396 33.68687,27.61166 4.58963,5.70628 8.24206,8.33469 11.59419,8.34358 1.0573,0 4.22791,-0.49304 7.04579,-1.1018 z M 253.3048,837.84806 c -6.09879,-0.63629 -8.61202,-1.31095 -18.15647,-4.87374 -41.62114,-15.53647 -69.23091,-28.48355 -84.38544,-39.57092 -11.28536,-8.25665 -19.61062,-20.58582 -23.32213,-34.53855 -3.00493,-11.29664 -1.39555,-30.1468 4.96175,-58.11677 4.71874,-20.76092 5.67681,-24.50115 9.01537,-35.19645 1.72151,-5.51469 3.41456,-11.12424 3.76241,-12.46564 0.34784,-1.34141 1.74399,-4.99981 3.10248,-8.12977 1.35853,-3.12996 3.26946,-8.00782 4.2466,-10.83968 2.10296,-6.09483 4.93737,-12.53715 11.2703,-25.61614 11.77813,-24.32453 23.92606,-41.17034 39.65211,-54.98657 7.88164,-6.92446 19.51127,-13.73146 31.82142,-18.62551 3.06129,-1.21705 10.32187,-4.24359 16.13466,-6.72567 18.92679,-8.08182 21.6733,-9.05274 36.04195,-12.74136 2.08664,-0.53567 5.25725,-1.49383 7.0458,-2.12924 7.59265,-2.69745 24.07933,-6.27694 44.98469,-9.76684 14.9527,-2.49617 37.48738,-5.68876 45.79768,-6.48837 3.12996,-0.30116 8.73949,-0.91905 12.46563,-1.37311 10.99562,-1.33988 25.88193,-2.3705 50.67554,-3.50839 50.30894,-2.30891 96.3776,-2.70856 134.95409,-1.17074 37.50548,1.49512 43.36237,1.78517 50.13355,2.48273 4.02423,0.41458 10.36545,0.90175 14.09159,1.08261 3.72614,0.18086 9.82346,0.56562 13.5496,0.85503 42.49493,3.30058 52.61649,4.44786 74.17251,8.40742 5.76915,1.05972 10.85193,1.78762 11.29506,1.61757 0.44318,-0.17005 1.45447,0.0354 2.24729,0.45657 0.79286,0.42118 7.53889,2.52677 14.99117,4.6791 20.98655,6.06124 34.13607,11.15509 51.7595,20.05058 16.73886,8.44899 24.18136,13.82517 35.83135,25.88333 14.56461,15.07493 25.19739,31.02039 37.04702,55.55727 5.79294,11.99519 8.40315,18.24936 12.82628,30.73148 1.74294,4.9185 3.53809,9.214 3.98924,9.54553 0.54939,0.40367 0.72145,1.11958 0.52106,2.16794 -0.19637,1.02705 0.83626,5.57127 3.00354,13.2178 4.25073,14.99725 8.21231,30.25459 10.34329,39.83585 1.49653,6.72857 1.71939,8.85771 1.96722,18.80251 0.43489,17.4402 -1.5542,29.45756 -6.56518,39.66697 -2.87338,5.85414 -5.56405,9.20435 -11.43334,14.23598 -8.60028,7.37278 -16.44651,12.3495 -35.77854,22.69353 -14.23155,7.615 -19.4793,10.0556 -32.12536,14.94105 -4.68374,1.80942 -9.61342,3.72842 -10.95483,4.26444 -6.06941,2.42538 -19.63208,6.35975 -24.3893,7.07506 -5.32456,0.80068 -22.20807,0.64518 -29.55434,-0.27218 -8.3741,-1.04571 -21.02249,-3.58371 -26.54103,-5.32565 -2.38473,-0.75275 -7.81623,-2.36695 -12.07004,-3.58706 -12.34549,-3.54111 -20.51845,-6.36101 -24.9754,-8.61718 -2.27997,-1.15415 -6.21846,-3.02524 -8.75223,-4.15788 -5.35215,-2.39265 -7.9708,-4.10825 -24.18448,-15.8447 -25.65878,-18.57332 -36.65982,-24.5823 -49.2544,-26.90362 -18.30817,-3.37444 -110.48495,-5.90606 -150.12964,-4.12325 -28.37315,1.27589 -52.43281,4.69093 -66.75085,9.47464 -11.39765,3.80804 -17.08161,7.53971 -47.06586,30.90038 -14.06953,10.96147 -16.45529,11.98603 -70.18696,30.14148 -21.14162,7.14351 -22.62584,7.53705 -28.10834,7.45261 -2.57497,-0.0396 -6.63286,-0.27565 -9.01759,-0.52448 z m 16.03732,-4.7848 c 3.63612,-0.94652 9.82666,-3.0027 48.19422,-16.00767 19.27231,-6.53248 29.41116,-11.22238 37.21302,-17.21342 27.90385,-21.42747 35.98635,-27.24539 42.18128,-30.36278 9.48131,-4.77109 27.4269,-8.87792 49.04958,-11.22476 31.6114,-3.43109 96.78722,-3.31917 158.25204,0.27175 16.2275,0.94804 23.36912,1.91402 30.06934,4.06721 8.59366,2.76162 20.25065,9.7626 40.84551,24.53107 16.60332,11.90616 19.09145,13.43802 30.71458,18.91039 9.3566,4.40524 15.49511,6.54256 34.41601,11.98289 23.74335,6.82694 42.61909,9.31698 56.09536,7.39988 10.55271,-1.5012 34.11537,-9.58266 52.03054,-17.84533 6.99907,-3.22806 26.56108,-13.64423 33.60298,-17.89258 19.84336,-11.97141 26.71998,-19.12739 31.25022,-32.5201 3.04059,-8.9887 3.96217,-15.37972 3.94868,-27.38305 -0.0109,-9.73528 -0.16427,-11.55748 -1.50525,-17.88548 -2.88344,-13.60705 -11.446,-45.69518 -15.90869,-59.61827 -11.45664,-35.74243 -29.13073,-68.44218 -49.10551,-90.85279 -5.52014,-6.19324 -13.16695,-12.7246 -20.90066,-17.85181 -11.3408,-7.51868 -36.53896,-19.10122 -54.0077,-24.82507 -8.41187,-2.75626 -26.49415,-7.86371 -31.70609,-8.95559 -13.35481,-2.79779 -26.56162,-4.89166 -42.90765,-6.80281 -9.4011,-1.09915 -44.55403,-3.95939 -56.81746,-4.62297 -3.42805,-0.1855 -9.52537,-0.6835 -13.54961,-1.10668 -4.02423,-0.42319 -14.99941,-1.02717 -24.38929,-1.34218 -9.38988,-0.31501 -23.77956,-0.8069 -31.97708,-1.0931 -31.64244,-1.10471 -47.17707,-1.22871 -73.47393,-0.5865 -45.942,1.12198 -88.93876,3.48807 -104.29691,5.7394 -2.83187,0.41513 -8.92919,1.14343 -13.54961,1.61846 -29.16753,2.99875 -69.92812,10.38648 -86.70404,15.71485 -3.13739,0.99648 -8.89332,2.66794 -12.79094,3.71433 -8.49024,2.27936 -16.71274,5.30831 -31.02346,11.42815 -5.86768,2.50926 -12.61176,5.33287 -14.9869,6.2747 -6.40761,2.54088 -18.31722,8.71784 -23.86476,12.37756 -9.05623,5.97436 -20.5883,17.66615 -28.15625,28.54617 -9.84693,14.15646 -21.53834,36.84079 -29.051,56.36635 -1.72042,4.47137 -3.99085,10.3248 -5.04539,13.00762 -3.84743,9.78802 -11.20829,35.01538 -12.01871,41.19081 -0.45066,3.43456 -4.37252,20.88114 -5.42337,24.12622 -1.17871,3.64007 -3.46908,19.42379 -3.8572,26.58108 -0.56307,10.38355 1.30477,19.23664 6.05657,28.70619 2.47914,4.94051 7.62355,12.18538 10.62419,14.96208 12.6833,11.73656 40.36775,25.57217 84.75665,42.35803 6.25991,2.36722 12.79587,4.71369 14.52431,5.21442 7.39895,2.14345 16.99327,2.51714 23.19238,0.90333 z"
       id="path2996"
       inkscape:connector-curvature="0" />
  </g>
</svg>
